<svg width="8" height="30" viewBox="0 0 8 30" fill="none" xmlns="http://www.w3.org/2000/svg">
<path d="M3.46638 29.7742C3.04429 29.6231 2.60512 29.5348 2.19957 29.3203C0.646745 28.5001 -0.219317 26.6836 0.0597653 24.797C0.31857 23.0468 1.74546 21.5768 3.41729 21.339C5.96158 20.9779 8.11099 23.0638 7.9936 25.7819C7.91088 27.6991 6.52241 29.352 4.69477 29.7108C4.63874 29.7222 4.5651 29.691 4.53362 29.7742C4.17769 29.7742 3.8223 29.7742 3.46638 29.7742ZM3.51974 0.803429C3.5016 0.862862 3.45251 0.850977 3.41089 0.856636C1.56777 1.12607 0.0907152 2.83497 0.00640353 4.79632C-0.110459 7.5139 2.03842 9.59978 4.58324 9.23808C6.254 9.00091 7.68196 7.53032 7.94023 5.7801C8.21878 3.8929 7.35325 2.07703 5.80043 1.25683C5.39488 1.04287 4.95571 0.954561 4.53362 0.802862C4.19584 0.803427 3.85806 0.803429 3.51974 0.803429ZM4.00107 11.046C1.80256 11.0455 0.000533736 12.9559 1.18551e-07 15.2885C-0.000533499 17.6207 1.80043 19.5322 3.99947 19.5328C6.19797 19.5333 8 17.6229 8.00053 15.2902C8.00053 12.9576 6.19957 11.0466 4.00107 11.046Z" fill="#D1D8EF"/>
</svg>
