<svg width="11" height="11" viewBox="0 0 11 11" fill="none" xmlns="http://www.w3.org/2000/svg">
<path d="M5.50589 11C2.47482 11.0096 0.0162462 8.55899 7.59168e-05 5.51206C-0.0157503 2.47824 2.44489 0.0096791 5.49419 2.82173e-05C8.53111 -0.00962267 11.0003 2.45756 11 5.50034C10.999 8.53969 8.55106 10.99 5.50589 11ZM1.09656 5.49931C1.09553 7.92272 3.06865 9.8977 5.4966 9.90356C7.91732 9.90942 9.89319 7.93823 9.90386 5.50655C9.91453 3.08418 7.92317 1.09127 5.49729 1.09609C3.06933 1.10126 1.09725 3.07418 1.09656 5.49931ZM4.95197 4.12027C4.95197 4.57145 4.95334 5.02263 4.95128 5.4738C4.95059 5.63201 4.99532 5.77126 5.10679 5.88328C5.56747 6.34618 6.02781 6.80976 6.49262 7.26818C6.66946 7.44259 6.91167 7.47257 7.12326 7.36538C7.46352 7.1927 7.52992 6.75806 7.25193 6.47439C6.88208 6.09698 6.50672 5.72473 6.13068 5.35351C6.07116 5.29457 6.04639 5.23563 6.04673 5.15153C6.04983 4.37808 6.0488 3.60498 6.04845 2.83153C6.04845 2.75432 6.05189 2.67712 6.03022 2.60129C5.9559 2.34244 5.70819 2.1732 5.44258 2.20078C5.17285 2.22904 4.95885 2.4517 4.95507 2.72847C4.94887 3.1924 4.95334 3.65634 4.95334 4.12061L4.95197 4.12027Z" fill="#979797"/>
</svg>
