<svg width="10" height="10" viewBox="0 0 10 10" fill="none" xmlns="http://www.w3.org/2000/svg">
<path d="M5.35329 0C5.46108 0.0239424 5.56887 0.0478846 5.67665 0.0758173C6.61078 0.323222 7.27346 1.16919 7.28543 2.13087C7.28942 2.72544 7.28543 3.32001 7.28543 3.91458C7.28543 4.09015 7.20958 4.22184 7.04591 4.29366C6.88224 4.36549 6.73453 4.32559 6.60678 4.20587C6.36327 3.97443 6.12775 3.93453 5.82435 4.07818C5.46507 4.24578 5.08982 4.32958 4.69461 4.32559C3.86427 4.32559 3.03393 4.32559 2.20359 4.32559C1.10978 4.32559 0.239516 3.60333 0.0319308 2.52991C0.0239467 2.49799 0.0399202 2.45808 0 2.43414C0 2.25058 0 2.07101 0 1.88746C0.0359282 1.85952 0.0239467 1.81962 0.0319308 1.78371C0.231532 0.865915 0.786424 0.291299 1.69261 0.0518752C1.76447 0.0319232 1.84431 0.0399039 1.91217 0C3.06188 0 4.20758 0 5.35329 0ZM3.65269 0.778127C3.65269 0.782117 3.65269 0.782117 3.65269 0.778127C3.14571 0.778127 2.63872 0.774136 2.13174 0.778127C1.40519 0.786107 0.794408 1.40063 0.782432 2.12688C0.770456 2.91299 1.38523 3.54347 2.17964 3.54347C2.99002 3.54746 3.8004 3.53948 4.61078 3.54746C4.94611 3.55145 5.26148 3.4876 5.56088 3.33996C5.83633 3.20828 6.12774 3.17635 6.42715 3.24419C6.49501 3.26015 6.50698 3.24419 6.50698 3.18034C6.50299 2.85313 6.50698 2.52592 6.50698 2.19871C6.50698 1.38866 5.9002 0.782117 5.08982 0.782117C4.61078 0.778127 4.13174 0.778127 3.65269 0.778127ZM10 9.35348C9.97206 9.3455 9.98404 9.32156 9.98004 9.3056C9.8523 8.63122 9.47306 8.16434 8.83833 7.90098C8.53493 7.77329 8.21956 7.77329 7.9002 7.77728C7.14172 7.78526 6.45509 8.27209 6.1996 8.98637C6.13174 9.17791 6.09581 9.37343 6.09581 9.57694C6.09581 9.80041 6.25948 9.97199 6.47505 9.97997C6.69461 9.98396 6.87026 9.82036 6.87824 9.59291C6.88623 9.2617 7.01397 8.98637 7.27745 8.78286C7.6527 8.49555 8.07984 8.50353 8.50299 8.61526C8.93812 8.73098 9.20559 9.11805 9.22156 9.58492C9.23353 9.89618 9.5489 10.0757 9.81237 9.92411C9.90818 9.86824 9.9481 9.77646 10 9.68867C10 9.57295 10 9.46122 10 9.35348ZM0.00398983 9.70065C0.0279419 9.70464 0.0319325 9.72858 0.0399165 9.74454C0.131733 9.92012 0.299398 10.0079 0.471055 9.968C0.65868 9.9281 0.778444 9.78045 0.786428 9.57694C0.802396 9.15396 1.12974 8.83473 1.55289 8.82675C1.81238 8.82276 2.07185 8.82675 2.33533 8.82675C2.56686 8.82675 2.73852 8.65915 2.73852 8.44367C2.74252 8.22021 2.56687 8.05261 2.33134 8.04862C2.07186 8.04862 1.81237 8.04862 1.5489 8.04862C0.814367 8.05261 0.195607 8.55141 0.0359267 9.26968C0.0279427 9.29762 0.039918 9.33752 0.00398983 9.35348C0.00398983 9.4692 0.00398983 9.58493 0.00398983 9.70065ZM8.09182 4.81241C8.79042 4.8164 9.35729 5.38703 9.35329 6.08535C9.3493 6.77968 8.77446 7.34631 8.07186 7.34232C7.37725 7.33833 6.81038 6.76771 6.81437 6.07338C6.81836 5.37905 7.39321 4.81241 8.09182 4.81241ZM8.08384 5.59054C7.81637 5.59054 7.59681 5.814 7.6008 6.08136C7.60479 6.34473 7.82036 6.56021 8.08783 6.5642C8.35529 6.5642 8.57884 6.34473 8.57884 6.07737C8.57485 5.81001 8.35529 5.59054 8.08384 5.59054ZM1.72455 5.0279C2.42315 5.0279 2.99002 5.60251 2.99002 6.30083C2.98603 6.99516 2.41118 7.5618 1.70858 7.55781C1.01397 7.55381 0.447102 6.98319 0.451094 6.28886C0.451094 5.59453 1.02595 5.02391 1.72455 5.0279ZM2.20759 6.29285C2.20759 6.02549 1.98802 5.80602 1.71656 5.80602C1.4491 5.80602 1.22954 6.02948 1.22954 6.29684C1.22954 6.56021 1.4491 6.77968 1.71656 6.77968C1.98802 6.77968 2.20759 6.56021 2.20759 6.29285ZM4.88623 5.0279C5.58483 5.0279 6.15569 5.59852 6.15569 6.29684C6.15569 6.99516 5.58084 7.5618 4.88224 7.55781C4.18762 7.55381 3.62076 6.98718 3.62076 6.29285C3.61677 5.59453 4.18762 5.0279 4.88623 5.0279ZM4.88224 6.77968C5.1497 6.77968 5.37325 6.56021 5.37325 6.29285C5.37325 6.02948 5.15768 5.81001 4.89421 5.80602C4.62275 5.80203 4.40319 6.01751 4.3992 6.28886C4.39521 6.55622 4.61477 6.77968 4.88224 6.77968ZM5.31337 8.82675C5.53693 8.82276 5.70459 8.65516 5.70459 8.43968C5.70459 8.2242 5.53693 8.05261 5.31337 8.04862C5.06587 8.04463 4.81836 8.04463 4.57086 8.04862C3.76846 8.06857 3.08982 8.75891 3.08583 9.56098C3.08583 9.79642 3.2495 9.97199 3.46906 9.97598C3.69261 9.97997 3.85628 9.81238 3.86826 9.57295C3.88024 9.20185 4.13573 8.91055 4.503 8.84271C4.65469 8.81478 4.80639 8.83872 4.93413 8.82675C5.07785 8.82675 5.19361 8.82675 5.31337 8.82675ZM2.0519 1.67597C1.78443 1.67597 1.56886 1.89145 1.56487 2.1588C1.56487 2.43015 1.78044 2.64962 2.0519 2.64962C2.32335 2.64962 2.54291 2.43015 2.54291 2.16279C2.54291 1.89544 2.31936 1.67597 2.0519 1.67597ZM3.61277 1.67597C3.34531 1.67597 3.12974 1.89145 3.12574 2.15481C3.12175 2.42616 3.34132 2.64563 3.60878 2.64962C3.88024 2.64962 4.0998 2.43414 4.0998 2.16279C4.10379 1.89544 3.88423 1.67597 3.61277 1.67597ZM5.66467 2.16279C5.66467 1.89544 5.4491 1.67996 5.18164 1.67597C4.91018 1.67197 4.69062 1.89145 4.68663 2.1588C4.68663 2.43015 4.90219 2.64962 5.17365 2.64962C5.44511 2.64962 5.66467 2.43015 5.66467 2.16279Z" fill="#6E63EE"/>
</svg>
