<?xml version="1.0" encoding="utf-8"?>
<!-- Generator: Adobe Illustrator 16.0.0, SVG Export Plug-In . SVG Version: 6.00 Build 0)  -->
<!DOCTYPE svg PUBLIC "-//W3C//DTD SVG 1.1//EN" "http://www.w3.org/Graphics/SVG/1.1/DTD/svg11.dtd">
<svg version="1.1" id="Layer_1" xmlns="http://www.w3.org/2000/svg" xmlns:xlink="http://www.w3.org/1999/xlink" x="0px" y="0px"
	 width="52px" height="52px" viewBox="0 0 52 52" enable-background="new 0 0 52 52" xml:space="preserve">
<g>
	<circle fill="#FFFFFF" cx="25.557" cy="25.557" r="25.557"/>
</g>
<g>
	<path fill="#778899" d="M27.117,31.385c0.006-0.028,0.031-0.023,0.053-0.028c1.476-0.321,2.008-1.88,1.025-2.991
		c-1.063-1.202-2.122-2.409-3.186-3.61c-0.068-0.077-0.062-0.117,0.002-0.19c1.067-1.206,2.129-2.415,3.194-3.621
		c0.791-0.896,0.593-2.173-0.432-2.762c-0.771-0.443-1.763-0.281-2.365,0.4c-1.441,1.628-2.879,3.258-4.312,4.893
		c-0.631,0.72-0.63,1.655,0.002,2.375c1.433,1.635,2.873,3.264,4.312,4.894c0.273,0.309,0.614,0.513,1.028,0.6
		c0.035,0.007,0.085-0.005,0.106,0.042C26.734,31.385,26.926,31.385,27.117,31.385z"/>
</g>
<div  xmlns="" style="display: none" id="divScriptsUsed"></div>
<script  src="moz-extension://b8897ea9-e640-46f6-8e88-ab53dcdd5f8f/js/wrs_env.js" xmlns="" id="globalVarsDetection"></script>
</svg>
