<svg width="24" height="24" viewBox="0 0 24 24" fill="none" xmlns="http://www.w3.org/2000/svg">
<g filter="url(#filter0_dd_241_16)">
<path d="M12.5 19C17.1944 19 21 15.1944 21 10.5C21 5.80558 17.1944 2 12.5 2C7.80558 2 4 5.80558 4 10.5C4 15.1944 7.80558 19 12.5 19Z" fill="url(#paint0_linear_241_16)"/>
<path d="M12.5 18C16.6421 18 20 14.6421 20 10.5C20 6.35786 16.6421 3 12.5 3C8.35786 3 5 6.35786 5 10.5C5 14.6421 8.35786 18 12.5 18Z" fill="url(#paint1_linear_241_16)"/>
</g>
<path d="M11.7823 15C11.7789 14.9851 11.7664 14.9873 11.756 14.9849C11.0245 14.8178 10.7605 14.0064 11.2477 13.4282C11.7748 12.8027 12.2993 12.1747 12.8267 11.5495C12.8604 11.5095 12.8573 11.4886 12.8255 11.4506C12.2969 10.8234 11.7702 10.1942 11.2424 9.56625C10.8502 9.09955 10.9487 8.43531 11.4564 8.12889C11.8381 7.89847 12.3299 7.9825 12.6286 8.33691C13.3428 9.18407 14.0558 10.0327 14.7659 10.8835C15.0786 11.2581 15.0778 11.7446 14.7649 12.1192C14.0546 12.9698 13.3409 13.8174 12.6279 14.6658C12.4926 14.8266 12.3234 14.9325 12.1181 14.9778C12.1007 14.9817 12.0759 14.9756 12.0658 15C11.9715 15 11.8769 15 11.7823 15Z" fill="#E7345D"/>
<defs>
<filter id="filter0_dd_241_16" x="0" y="-1" width="25" height="25" filterUnits="userSpaceOnUse" color-interpolation-filters="sRGB">
<feFlood flood-opacity="0" result="BackgroundImageFix"/>
<feColorMatrix in="SourceAlpha" type="matrix" values="0 0 0 0 0 0 0 0 0 0 0 0 0 0 0 0 0 0 127 0" result="hardAlpha"/>
<feOffset dy="1"/>
<feGaussianBlur stdDeviation="2"/>
<feComposite in2="hardAlpha" operator="out"/>
<feColorMatrix type="matrix" values="0 0 0 0 0 0 0 0 0 0 0 0 0 0 0 0 0 0 0.13 0"/>
<feBlend mode="normal" in2="BackgroundImageFix" result="effect1_dropShadow_241_16"/>
<feColorMatrix in="SourceAlpha" type="matrix" values="0 0 0 0 0 0 0 0 0 0 0 0 0 0 0 0 0 0 127 0" result="hardAlpha"/>
<feOffset dy="1"/>
<feGaussianBlur stdDeviation="0.5"/>
<feComposite in2="hardAlpha" operator="out"/>
<feColorMatrix type="matrix" values="0 0 0 0 1 0 0 0 0 1 0 0 0 0 1 0 0 0 1 0"/>
<feBlend mode="normal" in2="effect1_dropShadow_241_16" result="effect2_dropShadow_241_16"/>
<feBlend mode="normal" in="SourceGraphic" in2="effect2_dropShadow_241_16" result="shape"/>
</filter>
<linearGradient id="paint0_linear_241_16" x1="12.5" y1="2" x2="12.5" y2="19" gradientUnits="userSpaceOnUse">
<stop stop-color="#E9E9E9"/>
<stop offset="1" stop-color="white"/>
</linearGradient>
<linearGradient id="paint1_linear_241_16" x1="12.5" y1="3" x2="12.5" y2="18" gradientUnits="userSpaceOnUse">
<stop stop-color="#F3F3F3"/>
<stop offset="1" stop-color="white"/>
</linearGradient>
</defs>
</svg>
