<svg width="10" height="10" viewBox="0 0 10 10" fill="none" xmlns="http://www.w3.org/2000/svg">
<path d="M0.000734103 6.2104C0.000734103 5.61143 0.000734103 5.01246 0.000734103 4.41373C0.0354817 4.39881 0.0269171 4.36309 0.0318111 4.33813C0.129447 3.85562 0.402533 3.50353 0.825377 3.26106C2.58722 2.25128 4.34883 1.24149 6.11019 0.23122C6.25162 0.149987 6.39942 0.0853924 6.55701 0.0437972C6.60497 0.031074 6.65905 0.0376803 6.69943 0C6.82961 0 6.95979 0 7.08997 0C7.09413 0.0154147 7.10588 0.0166381 7.11933 0.0183508C7.47513 0.0594566 7.78003 0.208954 8.02571 0.466844C8.29806 0.753117 8.45834 1.11328 8.64064 1.45656C8.71723 1.60092 8.66511 1.74969 8.55108 1.86713C8.51291 1.90628 8.46323 1.93417 8.42188 1.97063C8.30809 2.07119 8.26013 2.19794 8.29292 2.34694C8.34969 2.60337 8.59929 2.7169 8.85769 2.60802C9.1068 2.50305 9.2842 2.56079 9.41781 2.79226C9.54457 3.01149 9.67328 3.22974 9.79514 3.45166C10.1597 4.11621 10.0301 4.87789 9.46675 5.38388C9.42564 5.42082 9.41292 5.45753 9.41341 5.50964C9.41561 5.7049 9.41585 5.90015 9.4139 6.0954C9.41145 6.32833 9.26096 6.48615 9.02898 6.50328C8.79431 6.52041 8.63526 6.67675 8.63354 6.89109C8.63208 7.10812 8.79333 7.26716 9.03314 7.28527C9.25973 7.30239 9.41047 7.45948 9.41365 7.68703C9.4161 7.86613 9.41414 8.04499 9.41414 8.22409C9.41414 8.39977 9.41977 8.57545 9.38184 8.74893C9.21911 9.49421 8.59611 9.998 7.82652 9.99898C6.48213 10.0007 5.13774 9.99947 3.79336 9.99947C3.05779 9.99947 2.32197 10.0009 1.5864 9.99898C0.892914 9.99703 0.322027 9.59331 0.0849113 8.94516C0.0496743 8.849 0.0484508 8.74379 0 8.65203C0 8.29407 0 7.93586 0 7.5779C0.085156 7.38632 0.22488 7.28845 0.442175 7.27719C0.63867 7.26716 0.783044 7.08414 0.780841 6.88938C0.778639 6.69437 0.630105 6.53068 0.433121 6.50646C0.391277 6.50132 0.348699 6.50083 0.307589 6.49251C0.148778 6.46119 0.0672928 6.3435 0.000734103 6.2104ZM1.54896 3.74943C1.76258 3.74943 1.94684 3.7487 2.13086 3.74968C2.38412 3.7509 2.5608 3.91386 2.55859 4.14361C2.55639 4.36969 2.38217 4.52922 2.13355 4.53069C1.94807 4.53167 1.76258 4.52849 1.5771 4.53142C1.20075 4.5373 0.906373 4.76069 0.809227 5.11889C0.760042 5.3002 0.791608 5.48836 0.779862 5.67284C0.774234 5.75995 0.803843 5.79983 0.883126 5.838C1.29569 6.0357 1.52718 6.36919 1.55605 6.82405C1.58419 7.26373 1.39822 7.60922 1.04169 7.8676C0.958984 7.92754 0.82293 7.92975 0.78965 8.02566C0.756371 8.12157 0.782065 8.23779 0.78182 8.34521C0.78182 8.37775 0.780841 8.41029 0.782554 8.44283C0.788916 8.56052 0.809471 8.67528 0.865018 8.78073C1.02579 9.08438 1.28395 9.21846 1.62188 9.21846C3.67884 9.21773 5.73579 9.21822 7.79275 9.21797C7.81869 9.21797 7.84487 9.21822 7.87081 9.21675C8.23223 9.19693 8.51682 8.97158 8.60761 8.62683C8.65214 8.458 8.62278 8.28306 8.63575 8.11179C8.6426 8.02028 8.60418 7.98578 8.52881 7.94932C8.11331 7.74746 7.88305 7.41005 7.85833 6.95104C7.83533 6.52016 8.01788 6.17933 8.36755 5.92388C8.45247 5.86198 8.59195 5.86124 8.62596 5.75897C8.65802 5.66232 8.63305 5.54634 8.63305 5.43918C8.63305 5.4196 8.63305 5.40003 8.63305 5.3807C8.63257 4.85587 8.30687 4.53093 7.78003 4.53093C6.88491 4.53069 5.99004 4.53093 5.09492 4.53093C4.77926 4.53093 4.46359 4.53044 4.14793 4.53118C4.02093 4.53142 3.91008 4.49325 3.82786 4.39391C3.72557 4.27084 3.69964 4.13187 3.76644 3.98432C3.83789 3.82626 3.9666 3.74992 4.13887 3.74968C4.78978 3.74895 5.44068 3.74943 6.09159 3.74943C6.12511 3.74943 6.15888 3.74943 6.19534 3.74943C6.12438 3.51406 6.16206 3.35453 6.30717 3.24491C6.4376 3.14631 6.61011 3.13383 6.74543 3.22313C6.94144 3.35257 6.9708 3.53485 6.88785 3.74943C7.20204 3.74943 7.50792 3.74968 7.81355 3.74943C8.2271 3.74895 8.59121 3.87985 8.90051 4.15731C9.00206 4.24858 9.086 4.3555 9.17066 4.47123C9.23845 4.28014 9.23037 4.10079 9.15598 3.92413C9.09138 3.77121 8.99326 3.6359 8.91936 3.48812C8.88901 3.42719 8.85157 3.41814 8.78868 3.4245C8.3629 3.46903 8.01494 3.31513 7.75213 2.98408C7.42203 2.56862 7.41836 2.01736 7.72742 1.57964C7.74773 1.55076 7.79349 1.52532 7.76559 1.47907C7.67138 1.32395 7.60237 1.1517 7.47366 1.02006C7.20498 0.745776 6.85016 0.708341 6.49314 0.912891C4.87616 1.83924 3.25966 2.76583 1.64317 3.69267C1.61943 3.70613 1.59667 3.72056 1.54896 3.74943Z" fill="#5293F4"/>
<path d="M5.8601 1.97283C6.07397 1.97283 6.25016 2.14876 6.25016 2.3626C6.25016 2.57621 6.07373 2.75286 5.86035 2.75286C5.6477 2.75311 5.47005 2.57547 5.47005 2.3626C5.4698 2.14973 5.64697 1.97259 5.8601 1.97283Z" fill="#5293F4"/>
<path d="M6.87537 5.50328C6.87732 5.71615 6.70187 5.8955 6.48923 5.89746C6.27634 5.89941 6.09722 5.72374 6.09526 5.51111C6.09306 5.29775 6.26802 5.11963 6.4814 5.11743C6.69478 5.11522 6.87316 5.29017 6.87537 5.50328Z" fill="#5293F4"/>
<path d="M6.87537 6.87152C6.87684 7.08414 6.70041 7.263 6.48801 7.26447C6.27512 7.26569 6.09673 7.08977 6.09526 6.8769C6.09379 6.66354 6.26924 6.48591 6.48262 6.48444C6.69576 6.48297 6.8739 6.6584 6.87537 6.87152Z" fill="#5293F4"/>
<path d="M6.87537 8.24098C6.87561 8.45409 6.69894 8.63148 6.48605 8.63148C6.27267 8.63172 6.09575 8.45531 6.0955 8.24195C6.09526 8.0286 6.27169 7.85194 6.48507 7.85145C6.69796 7.85121 6.87512 8.02762 6.87537 8.24098Z" fill="#5293F4"/>
</svg>
