<svg width="16" height="15" viewBox="0 0 16 15" fill="none" xmlns="http://www.w3.org/2000/svg">
<path d="M14.9977 3.7767L13.2505 2.52343C13.0626 2.3874 12.9166 2.44772 12.8198 2.48768C12.8046 2.49395 11.9635 2.78537 11.9599 2.78682C11.9233 2.80173 11.8912 2.81725 11.8628 2.83381C11.8419 2.84345 11.8225 2.85665 11.8053 2.8732C11.7148 2.94737 11.682 3.04672 11.682 3.20987L11.6833 4.62573C10.7027 4.22202 9.61236 4.1497 8.56365 4.43532C8.04781 4.05551 7.45475 3.77505 6.81272 3.62241L7.63945 2.4712C7.80097 2.24697 7.72358 2.07847 7.70705 2.05228C7.69419 2.02479 7.14356 1.23572 7.13493 1.22188C7.07631 1.12782 6.99604 0.999023 6.7645 0.999023H4.6137C4.38216 0.999023 4.30189 1.12782 4.24327 1.22188C4.23464 1.23572 3.67818 2.03485 3.66434 2.06662C3.65523 2.08396 3.64842 2.10265 3.64444 2.12243C3.61217 2.23714 3.64296 2.33781 3.73926 2.4719L4.56495 3.62257C2.42431 4.13169 0.827148 6.0616 0.827148 8.35815C0.827148 11.042 3.00824 13.2254 5.68914 13.2254C6.12322 13.2254 6.5517 13.1679 6.96488 13.0559C6.97937 13.0665 6.99388 13.0771 7.00817 13.0874C7.84314 13.6867 8.82304 14.0001 9.83051 14.0001C10.096 14.0001 10.3634 13.9783 10.6306 13.9343C11.9127 13.723 13.0357 13.0244 13.7929 11.9672C15.1297 10.1006 14.9545 7.60004 13.5103 5.93737L14.8512 5.48406C15.0738 5.40895 15.1494 5.31186 15.1622 5.0845C15.1624 5.08088 15.1683 4.19053 15.1694 4.17419C15.1765 4.06366 15.1862 3.91225 14.9977 3.7767ZM13.0063 2.8655L14.7517 4.11746C14.7512 4.12681 14.7429 4.94315 14.7429 4.94315L12.3737 3.08849C12.3737 3.08849 12.998 2.86878 13.0063 2.8655ZM12.1025 3.40989L14.3862 5.19763L13.1894 5.60219C13.0296 5.45038 12.8579 5.30752 12.6739 5.17544C12.4905 5.04384 12.2999 4.92634 12.1038 4.82267L12.1025 3.40989ZM4.61572 1.41924H6.76265C6.76769 1.42703 7.13599 1.95391 7.13599 1.95391H4.24238C4.24238 1.95391 4.61067 1.42703 4.61572 1.41924ZM4.18651 2.37418H7.19169L6.35664 3.53698C6.13835 3.50683 5.91558 3.49089 5.68917 3.49089C5.4625 3.49089 5.23954 3.50686 5.02102 3.53706L4.18651 2.37418ZM1.24742 8.35815C1.24742 5.90607 3.23998 3.91119 5.68914 3.91119C8.13831 3.91119 10.1309 5.9061 10.1309 8.35815C10.1309 9.69576 9.51122 10.9844 8.4671 11.8312C8.33303 11.7624 8.20311 11.6833 8.0784 11.5938C7.9159 11.4772 7.76853 11.3472 7.63642 11.2065C8.57931 10.5698 9.13502 9.52303 9.13502 8.35815C9.13502 7.55429 8.85887 6.8138 8.39663 6.22665C8.39537 6.22452 8.39431 6.22231 8.39296 6.22021C8.38313 6.20485 8.37147 6.1914 8.35872 6.17952C8.03114 5.77803 7.61515 5.45159 7.14078 5.23011C7.13064 5.22431 7.12013 5.21938 7.10926 5.21534C6.67602 5.01837 6.19517 4.9086 5.68917 4.9086C4.56506 4.9086 3.5087 5.45966 2.86221 6.38439C2.82873 6.43331 2.79939 6.47766 2.77249 6.51994C2.71024 6.61789 2.73918 6.74776 2.83713 6.81001C2.93503 6.87227 3.06492 6.84333 3.1272 6.74538C3.15152 6.70713 3.17828 6.66667 3.20787 6.62344C3.77461 5.8128 4.70221 5.32884 5.6892 5.32884C6.01662 5.32884 6.33196 5.38138 6.62752 5.47815C6.35213 5.72118 6.10437 5.99489 5.88927 6.2956C5.31771 7.09381 5.0032 8.03275 4.97975 9.01094C4.95983 9.84153 5.14909 10.6546 5.5293 11.3839C3.9346 11.3004 2.6628 9.97515 2.6628 8.35809C2.6628 8.09713 2.69631 7.83682 2.76238 7.58438C2.79177 7.47211 2.72458 7.35726 2.61232 7.32787C2.49999 7.2984 2.3852 7.36567 2.35581 7.47794C2.28064 7.76509 2.24253 8.06124 2.24253 8.35809C2.24253 10.2606 3.78871 11.8084 5.6892 11.8084C5.72181 11.8084 5.75036 11.8081 5.77799 11.8074C5.99941 12.1442 6.25984 12.4498 6.55571 12.7202C6.27211 12.7761 5.98215 12.8051 5.68922 12.8051C3.23997 12.8051 1.24742 10.8102 1.24742 8.35815ZM8.71475 8.35815C8.71475 9.39392 8.21533 10.323 7.36969 10.8793C6.64794 9.85451 6.612 8.44164 7.38185 7.3664C7.59599 7.06694 7.85779 6.81368 8.16002 6.61179C8.50927 7.10569 8.71475 7.70833 8.71475 8.35815ZM13.4512 11.7225C12.7594 12.6884 11.7334 13.3266 10.5623 13.5196C9.39203 13.7125 8.21693 13.4377 7.25355 12.7462C7.21481 12.7183 7.17819 12.6919 7.1437 12.6645C7.14269 12.6637 7.14171 12.6629 7.14067 12.6622C6.71639 12.3382 6.35768 11.9442 6.07428 11.4911C6.07094 11.485 6.0673 11.4791 6.06341 11.4734C5.11615 9.94108 5.18134 8.00607 6.23098 6.54026C6.46804 6.20883 6.74836 5.91347 7.06412 5.66016C7.37554 5.81989 7.65575 6.03223 7.89323 6.28521C7.5631 6.51134 7.27597 6.792 7.04009 7.12183C6.12406 8.40124 6.20991 10.1008 7.14213 11.2769C7.15006 11.2886 7.15866 11.2996 7.16841 11.3093C7.35708 11.5414 7.57901 11.7527 7.83342 11.9352C8.01539 12.0658 8.20715 12.177 8.4061 12.2688C8.40677 12.2691 8.40742 12.2694 8.40806 12.2697C8.85568 12.4757 9.34003 12.582 9.83379 12.582C10.0221 12.582 10.2119 12.5666 10.4013 12.5353C11.3098 12.3854 12.1056 11.8903 12.6421 11.141C12.7096 11.0466 12.6879 10.9154 12.5935 10.8478C12.4992 10.7803 12.3679 10.802 12.3004 10.8964C11.8293 11.5543 11.1306 11.9891 10.333 12.1207C9.84595 12.201 9.35773 12.1622 8.90177 12.0126C9.94028 11.0879 10.5512 9.74753 10.5512 8.35818C10.5512 7.54624 10.3513 6.78026 9.99859 6.10654C10.573 6.13669 11.1329 6.33088 11.6037 6.66911C12.6648 7.43031 13.1236 8.82891 12.7194 10.0702C12.6834 10.1806 12.7438 10.2992 12.8541 10.3351C12.8757 10.3422 12.8976 10.3455 12.9192 10.3455C13.0078 10.3455 13.0901 10.2891 13.119 10.2004C13.3464 9.5021 13.3444 8.76088 13.1133 8.0569C12.8823 7.3534 12.445 6.75541 11.8488 6.32771C11.2386 5.88934 10.4973 5.66273 9.74884 5.68299C9.52758 5.34764 9.26614 5.0411 8.97123 4.7705C9.93297 4.57726 10.9184 4.70651 11.7902 5.13451C11.7961 5.13784 11.8021 5.14087 11.8083 5.14361C12.0228 5.25014 12.2304 5.37448 12.4289 5.5169C14.4197 6.94596 14.8783 9.72977 13.4512 11.7225Z" fill="#192838" stroke="#192838" stroke-width="0.1"/>
</svg>
