<svg width="26" height="27" viewBox="0 0 26 27" fill="none" xmlns="http://www.w3.org/2000/svg">
<path d="M24.2548 12.5855L13.4297 23.4106C12.1035 24.7368 10.3049 25.4818 8.4294 25.4818C6.55393 25.4818 4.75526 24.7368 3.4291 23.4106C2.10294 22.0845 1.35791 20.2858 1.35791 18.4103C1.35791 16.5349 2.10294 14.7362 3.4291 13.41L14.2542 2.5849C15.1384 1.70079 16.3375 1.2041 17.5878 1.2041C18.8381 1.2041 20.0372 1.70079 20.9213 2.5849C21.8054 3.469 22.3021 4.66811 22.3021 5.91843C22.3021 7.16875 21.8054 8.36785 20.9213 9.25196L10.0844 20.0771C9.64233 20.5192 9.04278 20.7675 8.41762 20.7675C7.79246 20.7675 7.19291 20.5192 6.75086 20.0771C6.3088 19.6351 6.06046 19.0355 6.06046 18.4103C6.06046 17.7852 6.3088 17.1856 6.75086 16.7436L16.7515 6.75476" stroke="#192838" stroke-width="2.35585" stroke-linecap="round" stroke-linejoin="round"/>
</svg>
