<svg width="16" height="16" viewBox="0 0 16 16" fill="none" xmlns="http://www.w3.org/2000/svg">
<path d="M15.6875 15.0431H15.0402V11.7011V10.3307C15.0402 9.81485 14.6206 9.39523 14.1047 9.39523H13.5711V7.50454V6.31273C13.5711 5.79695 13.1515 5.37729 12.6357 5.37729H11.6763V4.46998C11.8907 4.41586 12.0937 4.30532 12.261 4.13795C12.6458 3.75326 12.7424 3.16704 12.5016 2.67914L11.6441 0.941793C11.5914 0.835137 11.4828 0.767605 11.3638 0.767605C11.2449 0.767605 11.1363 0.835137 11.0836 0.941793L10.2261 2.67917C9.98525 3.16701 10.0819 3.75326 10.4667 4.13798C10.634 4.30536 10.837 4.41589 11.0513 4.47001V5.37732H8.3125V4.03395C8.52687 3.97982 8.72981 3.86929 8.89719 3.70192C9.28191 3.31723 9.37856 2.73101 9.13778 2.24311L8.28022 0.50573C8.22756 0.399074 8.11894 0.331543 8 0.331543C7.88106 0.331543 7.77244 0.399074 7.71978 0.50573L6.86222 2.24314C6.62144 2.73101 6.71812 3.31723 7.10281 3.70192C7.27019 3.86929 7.47312 3.97982 7.6875 4.03395V5.37732H4.94866V4.47098C5.16803 4.41567 5.36922 4.30211 5.53334 4.13798C5.91806 3.75329 6.01475 3.16704 5.77394 2.67917L4.91638 0.941793C4.86372 0.835137 4.75509 0.767605 4.63616 0.767605C4.51722 0.767605 4.40859 0.835137 4.35594 0.941793L3.49837 2.6792C3.25759 3.16704 3.35428 3.75329 3.73897 4.13801C3.90309 4.30214 4.10428 4.4157 4.32366 4.47101V5.37736H3.36434C2.84853 5.37736 2.42891 5.79698 2.42891 6.31279V7.50467V9.39529H1.89525C1.37944 9.39529 0.959813 9.81492 0.959813 10.3307V11.7012V15.0432H0.3125C0.139906 15.0432 0 15.1831 0 15.3557C0 15.5283 0.139906 15.6682 0.3125 15.6682H1.27231H14.7277H15.6875C15.8601 15.6682 16 15.5283 16 15.3557C16 15.1831 15.8601 15.0431 15.6875 15.0431ZM10.9086 3.69598C10.7134 3.50079 10.6643 3.20332 10.7865 2.95576L11.3639 1.78611L11.9412 2.95576C12.0634 3.20332 12.0143 3.50079 11.8192 3.69598C11.7758 3.73932 11.7275 3.77467 11.6764 3.80304C11.4826 3.91061 11.2452 3.91061 11.0514 3.80304C11.0002 3.7747 10.9519 3.73936 10.9086 3.69598ZM7.54475 3.25995C7.34956 3.06476 7.3005 2.76729 7.42269 2.51973L8 1.35011L8.57734 2.51976C8.69953 2.76732 8.65047 3.06479 8.45528 3.25998C8.41194 3.30332 8.36366 3.33867 8.31253 3.36704C8.11878 3.47461 7.88131 3.47461 7.68753 3.36704C7.63638 3.33864 7.58809 3.30332 7.54475 3.25995ZM4.18091 3.69598C3.98569 3.50079 3.93666 3.20332 4.05884 2.95576L4.63619 1.78611L5.21353 2.95576C5.33572 3.20329 5.28666 3.50076 5.09147 3.69598C5.04813 3.73932 4.99984 3.77467 4.94872 3.80304C4.75497 3.91061 4.5175 3.91061 4.32372 3.80304C4.27253 3.7747 4.22425 3.73936 4.18091 3.69598ZM3.36434 6.00229H12.6357C12.8069 6.00229 12.9461 6.14154 12.9461 6.31273V7.29386C12.8084 7.33711 12.6601 7.35701 12.485 7.35701C12.019 7.35701 11.8063 7.21523 11.537 7.03573C11.2373 6.83592 10.8976 6.60948 10.2423 6.60948C9.58709 6.60948 9.24741 6.83592 8.94772 7.03573C8.67847 7.21523 8.46581 7.35701 7.99978 7.35701C7.53375 7.35701 7.32109 7.21523 7.05188 7.03573C6.75219 6.83595 6.41253 6.60948 5.75728 6.60948C5.10206 6.60948 4.76241 6.83595 4.46272 7.03573C4.1935 7.21523 3.98084 7.35701 3.51487 7.35701C3.33987 7.35701 3.19159 7.33707 3.05394 7.29389V6.31273H3.05391C3.05391 6.14154 3.19319 6.00229 3.36434 6.00229ZM14.4152 15.0431H1.58481V12.0397C1.8505 12.0886 2.01975 12.2012 2.22022 12.3349C2.51991 12.5347 2.85956 12.7611 3.51484 12.7611C4.17006 12.7611 4.50972 12.5347 4.80941 12.3349C5.07863 12.1554 5.29128 12.0136 5.75725 12.0136C6.22325 12.0136 6.43594 12.1554 6.70516 12.3349C7.00484 12.5347 7.3445 12.7611 7.99975 12.7611C8.65503 12.7611 8.99469 12.5347 9.29438 12.3349C9.56363 12.1554 9.77628 12.0136 10.2423 12.0136C10.7084 12.0136 10.9211 12.1554 11.1903 12.3349C11.49 12.5347 11.8297 12.7611 12.485 12.7611C13.1403 12.7611 13.48 12.5347 13.7797 12.3349C13.9802 12.2012 14.1495 12.0886 14.4152 12.0397V15.0431ZM14.4152 11.4075C13.9563 11.4659 13.681 11.6495 13.433 11.8148C13.1637 11.9943 12.9511 12.1361 12.485 12.1361C12.0189 12.1361 11.8063 11.9943 11.537 11.8148C11.2373 11.615 10.8976 11.3886 10.2423 11.3886C9.58706 11.3886 9.24737 11.615 8.94769 11.8148C8.67844 11.9943 8.46578 12.1361 7.99975 12.1361C7.53372 12.1361 7.32106 11.9943 7.05184 11.8148C6.75216 11.615 6.4125 11.3886 5.75722 11.3886C5.102 11.3886 4.76234 11.615 4.46266 11.8148C4.19344 11.9943 3.98078 12.1361 3.51481 12.1361C3.04878 12.1361 2.83612 11.9943 2.56691 11.8148C2.31894 11.6495 2.04363 11.4659 1.58481 11.4075V10.3306C1.58481 10.1594 1.72409 10.0202 1.89525 10.0202H4.29353C4.46613 10.0202 4.60603 9.88029 4.60603 9.7077C4.60603 9.5351 4.46613 9.3952 4.29353 9.3952H3.05391V7.93798C3.19772 7.96739 3.34966 7.98204 3.51484 7.98204C4.17006 7.98204 4.50972 7.75557 4.80941 7.55579C5.07863 7.37629 5.29128 7.23451 5.75725 7.23451C6.22328 7.23451 6.43594 7.37629 6.70516 7.55579C7.00484 7.75557 7.3445 7.98204 7.99975 7.98204C8.655 7.98204 8.99469 7.75557 9.29438 7.55579C9.56363 7.37629 9.77628 7.23451 10.2423 7.23451C10.7084 7.23451 10.9211 7.37629 11.1903 7.55579C11.49 7.75561 11.8297 7.98204 12.485 7.98204C12.6502 7.98204 12.8022 7.96736 12.9461 7.93795V9.39523H6.78528C6.61269 9.39523 6.47278 9.53514 6.47278 9.70773C6.47278 9.88032 6.61269 10.0202 6.78528 10.0202H14.1047C14.2759 10.0202 14.4152 10.1595 14.4152 10.3307V11.4075Z" fill="#192838"/>
</svg>
