<svg width="127" height="127" viewBox="0 0 127 127" fill="none" xmlns="http://www.w3.org/2000/svg">
<path d="M112.889 22.4649V21.1667C112.889 9.47561 103.413 0 91.7222 0C80.0312 0 70.5556 9.47561 70.5556 21.1667H56.4444C56.4444 9.47561 46.9688 0 35.2778 0C23.5867 0 14.1111 9.47561 14.1111 21.1667V22.4649C5.91961 25.3929 0 33.147 0 42.3333V105.833C0 117.503 9.49678 127 21.1667 127H105.833C117.503 127 127 117.503 127 105.833V42.3333C127 33.147 121.08 25.3929 112.889 22.4649ZM84.6667 21.1667C84.6667 17.272 87.8205 14.1111 91.7222 14.1111C95.6239 14.1111 98.7778 17.272 98.7778 21.1667V35.2778C98.7778 39.1724 95.6239 42.3333 91.7222 42.3333C87.8205 42.3333 84.6667 39.1724 84.6667 35.2778V21.1667ZM28.2222 21.1667C28.2222 17.272 31.3761 14.1111 35.2778 14.1111C39.1795 14.1111 42.3333 17.272 42.3333 21.1667V35.2778C42.3333 39.1724 39.1795 42.3333 35.2778 42.3333C31.3761 42.3333 28.2222 39.1724 28.2222 35.2778V21.1667ZM112.889 105.833C112.889 109.721 109.728 112.889 105.833 112.889H21.1667C17.272 112.889 14.1111 109.721 14.1111 105.833V63.5H112.889V105.833ZM112.889 56.4444H14.1111V42.3333C14.1111 38.4457 17.272 35.2778 21.1667 35.2778C21.1667 43.0671 27.4884 49.3889 35.2778 49.3889C43.0671 49.3889 49.3889 43.0671 49.3889 35.2778H77.6111C77.6111 43.0671 83.9329 49.3889 91.7222 49.3889C99.5116 49.3889 105.833 43.0671 105.833 35.2778C109.728 35.2778 112.889 38.4457 112.889 42.3333V56.4444Z" fill="white"/>
</svg>
