<svg width="62" height="62" viewBox="0 0 62 62" fill="none" xmlns="http://www.w3.org/2000/svg">
<rect x="1" y="1" width="60" height="60" rx="12" fill="#F7F7F9" stroke="#E5E9F2"/>
<path fill-rule="evenodd" clip-rule="evenodd" d="M38.0714 38.0699C35.0152 41.1263 30.4898 41.7867 26.7864 40.074C26.2397 39.8539 25.7915 39.676 25.3654 39.676C24.1785 39.683 22.7012 40.8339 21.9334 40.067C21.1656 39.2991 22.3173 37.8206 22.3173 36.6266C22.3173 36.2004 22.1464 35.7602 21.9263 35.2124C20.2128 31.5096 20.8741 26.9827 23.9303 23.9272C27.8316 20.0244 34.17 20.0244 38.0714 23.9262C41.9797 27.835 41.9727 34.1681 38.0714 38.0699Z" stroke="#130F26" stroke-width="1.5" stroke-linecap="round" stroke-linejoin="round"/>
<path d="M34.9398 31.4131H34.9488" stroke="#130F26" stroke-width="2" stroke-linecap="round" stroke-linejoin="round"/>
<path d="M30.9301 31.4131H30.9391" stroke="#130F26" stroke-width="2" stroke-linecap="round" stroke-linejoin="round"/>
<path d="M26.9213 31.4131H26.9303" stroke="#130F26" stroke-width="2" stroke-linecap="round" stroke-linejoin="round"/>
<circle cx="38" cy="20" r="8.5" fill="#E12217" stroke="#F2F2F4"/>
<path d="M40.504 22.98V24H34.96V23.076L37.876 19.884C38.252 19.476 38.524 19.104 38.692 18.768C38.86 18.432 38.944 18.1 38.944 17.772C38.944 17.34 38.82 17.012 38.572 16.788C38.324 16.564 37.968 16.452 37.504 16.452C36.712 16.452 35.928 16.76 35.152 17.376L34.72 16.464C35.056 16.152 35.48 15.904 35.992 15.72C36.504 15.536 37.02 15.444 37.54 15.444C38.348 15.444 38.988 15.648 39.46 16.056C39.932 16.456 40.168 17 40.168 17.688C40.168 18.176 40.06 18.64 39.844 19.08C39.636 19.52 39.284 20.012 38.788 20.556L36.52 22.98H40.504Z" fill="white"/>
</svg>
