<svg width="25" height="16" viewBox="0 0 25 16" fill="none" xmlns="http://www.w3.org/2000/svg">
<circle cx="19.5866" cy="2.76923" r="2.15385" fill="white" stroke="#192838" stroke-width="1.23077"/>
<mask id="path-2-inside-1" fill="white">
<path fill-rule="evenodd" clip-rule="evenodd" d="M24.6429 11.0768C24.6566 10.9248 24.6636 10.7708 24.6636 10.6153C24.6636 7.81135 22.3906 5.53833 19.5867 5.53833C16.7828 5.53833 14.5098 7.81135 14.5098 10.6153C14.5098 10.7708 14.5168 10.9248 14.5305 11.0768H24.6429Z"/>
</mask>
<path fill-rule="evenodd" clip-rule="evenodd" d="M24.6429 11.0768C24.6566 10.9248 24.6636 10.7708 24.6636 10.6153C24.6636 7.81135 22.3906 5.53833 19.5867 5.53833C16.7828 5.53833 14.5098 7.81135 14.5098 10.6153C14.5098 10.7708 14.5168 10.9248 14.5305 11.0768H24.6429Z" fill="white"/>
<path d="M24.6429 11.0768V12.3076H25.7678L25.8687 11.1873L24.6429 11.0768ZM14.5305 11.0768L13.3047 11.1873L13.4056 12.3076H14.5305V11.0768ZM23.4328 10.6153C23.4328 10.7339 23.4275 10.851 23.4171 10.9664L25.8687 11.1873C25.8857 10.9986 25.8944 10.8078 25.8944 10.6153H23.4328ZM19.5867 6.7691C21.7109 6.7691 23.4328 8.49108 23.4328 10.6153H25.8944C25.8944 7.13161 23.0703 4.30756 19.5867 4.30756V6.7691ZM15.7405 10.6153C15.7405 8.49108 17.4625 6.7691 19.5867 6.7691V4.30756C16.103 4.30756 13.279 7.13161 13.279 10.6153H15.7405ZM15.7563 10.9664C15.7459 10.851 15.7405 10.7339 15.7405 10.6153H13.279C13.279 10.8078 13.2877 10.9986 13.3047 11.1873L15.7563 10.9664ZM14.5305 12.3076H24.6429V9.84606H14.5305V12.3076Z" fill="#192838" mask="url(#path-2-inside-1)"/>
<circle cx="5.58662" cy="2.76923" r="2.15385" fill="white" stroke="#192838" stroke-width="1.23077"/>
<mask id="path-5-inside-2" fill="white">
<path fill-rule="evenodd" clip-rule="evenodd" d="M10.6429 11.0768C10.6566 10.9248 10.6636 10.7708 10.6636 10.6153C10.6636 7.81135 8.3906 5.53833 5.58669 5.53833C2.78278 5.53833 0.509766 7.81135 0.509766 10.6153C0.509766 10.7708 0.516765 10.9248 0.530466 11.0768H10.6429Z"/>
</mask>
<path fill-rule="evenodd" clip-rule="evenodd" d="M10.6429 11.0768C10.6566 10.9248 10.6636 10.7708 10.6636 10.6153C10.6636 7.81135 8.3906 5.53833 5.58669 5.53833C2.78278 5.53833 0.509766 7.81135 0.509766 10.6153C0.509766 10.7708 0.516765 10.9248 0.530466 11.0768H10.6429Z" fill="white"/>
<path d="M10.6429 11.0768V12.3076H11.7678L11.8687 11.1873L10.6429 11.0768ZM0.530466 11.0768L-0.695337 11.1873L-0.594373 12.3076H0.530466V11.0768ZM9.43285 10.6153C9.43285 10.7339 9.42751 10.851 9.41712 10.9664L11.8687 11.1873C11.8857 10.9986 11.8944 10.8078 11.8944 10.6153H9.43285ZM5.58669 6.7691C7.71087 6.7691 9.43285 8.49108 9.43285 10.6153H11.8944C11.8944 7.13161 9.07034 4.30756 5.58669 4.30756V6.7691ZM1.74054 10.6153C1.74054 8.49108 3.46252 6.7691 5.58669 6.7691V4.30756C2.10305 4.30756 -0.721004 7.13161 -0.721004 10.6153H1.74054ZM1.75627 10.9664C1.74587 10.851 1.74054 10.7339 1.74054 10.6153H-0.721004C-0.721004 10.8078 -0.712343 10.9986 -0.695337 11.1873L1.75627 10.9664ZM0.530466 12.3076H10.6429V9.84606H0.530466V12.3076Z" fill="#192838" mask="url(#path-5-inside-2)"/>
<circle cx="12.8173" cy="4.92327" r="3.07693" fill="white" stroke="#192838" stroke-width="1.23077"/>
<mask id="path-8-inside-3" fill="white">
<path fill-rule="evenodd" clip-rule="evenodd" d="M19.5587 16C19.577 15.7974 19.5863 15.5921 19.5863 15.3847C19.5863 11.6462 16.5556 8.61548 12.8171 8.61548C9.07854 8.61548 6.04785 11.6462 6.04785 15.3847C6.04785 15.5921 6.05718 15.7974 6.07544 16H19.5587Z"/>
</mask>
<path fill-rule="evenodd" clip-rule="evenodd" d="M19.5587 16C19.577 15.7974 19.5863 15.5921 19.5863 15.3847C19.5863 11.6462 16.5556 8.61548 12.8171 8.61548C9.07854 8.61548 6.04785 11.6462 6.04785 15.3847C6.04785 15.5921 6.05718 15.7974 6.07544 16H19.5587Z" fill="white"/>
<path d="M19.5587 16V17.2308H20.6836L20.7845 16.1105L19.5587 16ZM6.07544 16L4.84963 16.1105L4.95058 17.2308H6.07544V16ZM18.3556 15.3847C18.3556 15.5552 18.3479 15.7236 18.3329 15.8896L20.7845 16.1105C20.8061 15.8711 20.8171 15.629 20.8171 15.3847H18.3556ZM12.8171 9.84625C15.8759 9.84625 18.3556 12.3259 18.3556 15.3847H20.8171C20.8171 10.9664 17.2354 7.38471 12.8171 7.38471V9.84625ZM7.27862 15.3847C7.27862 12.3259 9.75828 9.84625 12.8171 9.84625V7.38471C8.39881 7.38471 4.81708 10.9664 4.81708 15.3847H7.27862ZM7.30124 15.8896C7.28629 15.7236 7.27862 15.5552 7.27862 15.3847H4.81708C4.81708 15.629 4.82807 15.8711 4.84963 16.1105L7.30124 15.8896ZM6.07544 17.2308H19.5587V14.7692H6.07544V17.2308Z" fill="#192838" mask="url(#path-8-inside-3)"/>
</svg>
