<svg width="158" height="104" viewBox="0 0 158 104" fill="none" xmlns="http://www.w3.org/2000/svg">
<circle cx="124.125" cy="18" r="14" fill="white" stroke="#E12217" stroke-width="8"/>
<mask id="path-2-inside-1" fill="white">
<path fill-rule="evenodd" clip-rule="evenodd" d="M156.99 72C157.08 71.0119 157.125 70.0113 157.125 69C157.125 50.7746 142.35 36 124.125 36C105.9 36 91.125 50.7746 91.125 69C91.125 70.0113 91.1705 71.0119 91.2595 72H156.99Z"/>
</mask>
<path fill-rule="evenodd" clip-rule="evenodd" d="M156.99 72C157.08 71.0119 157.125 70.0113 157.125 69C157.125 50.7746 142.35 36 124.125 36C105.9 36 91.125 50.7746 91.125 69C91.125 70.0113 91.1705 71.0119 91.2595 72H156.99Z" fill="white"/>
<path d="M156.99 72V80H164.302L164.958 72.718L156.99 72ZM91.2595 72L83.2918 72.718L83.948 80H91.2595V72ZM149.125 69C149.125 69.7713 149.09 70.5323 149.023 71.282L164.958 72.718C165.069 71.4915 165.125 70.2513 165.125 69H149.125ZM124.125 44C137.932 44 149.125 55.1929 149.125 69H165.125C165.125 46.3563 146.769 28 124.125 28V44ZM99.125 69C99.125 55.1929 110.318 44 124.125 44V28C101.481 28 83.125 46.3563 83.125 69H99.125ZM99.2272 71.282C99.1597 70.5323 99.125 69.7712 99.125 69H83.125C83.125 70.2513 83.1813 71.4915 83.2918 72.718L99.2272 71.282ZM91.2595 80H156.99V64H91.2595V80Z" fill="#E12217" mask="url(#path-2-inside-1)"/>
<circle cx="33.125" cy="18" r="14" fill="white" stroke="#E12217" stroke-width="8"/>
<mask id="path-5-inside-2" fill="white">
<path fill-rule="evenodd" clip-rule="evenodd" d="M65.9905 72C66.0795 71.0119 66.125 70.0113 66.125 69C66.125 50.7746 51.3504 36 33.125 36C14.8996 36 0.125 50.7746 0.125 69C0.125 70.0113 0.170488 71.0119 0.259529 72H65.9905Z"/>
</mask>
<path fill-rule="evenodd" clip-rule="evenodd" d="M65.9905 72C66.0795 71.0119 66.125 70.0113 66.125 69C66.125 50.7746 51.3504 36 33.125 36C14.8996 36 0.125 50.7746 0.125 69C0.125 70.0113 0.170488 71.0119 0.259529 72H65.9905Z" fill="white"/>
<path d="M65.9905 72V80H73.302L73.9582 72.718L65.9905 72ZM0.259529 72L-7.70818 72.718L-7.05197 80H0.259529V72ZM58.125 69C58.125 69.7713 58.0903 70.5323 58.0228 71.282L73.9582 72.718C74.0687 71.4915 74.125 70.2513 74.125 69H58.125ZM33.125 44C46.9321 44 58.125 55.1929 58.125 69H74.125C74.125 46.3563 55.7687 28 33.125 28V44ZM8.125 69C8.125 55.1929 19.3179 44 33.125 44V28C10.4813 28 -7.875 46.3563 -7.875 69H8.125ZM8.22724 71.282C8.15969 70.5323 8.125 69.7712 8.125 69H-7.875C-7.875 70.2513 -7.81871 71.4915 -7.70818 72.718L8.22724 71.282ZM0.259529 80H65.9905V64H0.259529V80Z" fill="#E12217" mask="url(#path-5-inside-2)"/>
<circle cx="80.125" cy="32" r="20" fill="white" stroke="#E12217" stroke-width="8"/>
<mask id="path-8-inside-3" fill="white">
<path fill-rule="evenodd" clip-rule="evenodd" d="M123.946 104C124.064 102.683 124.125 101.348 124.125 100C124.125 75.6995 104.426 56 80.125 56C55.8245 56 36.125 75.6995 36.125 100C36.125 101.348 36.1857 102.683 36.3044 104H123.946Z"/>
</mask>
<path fill-rule="evenodd" clip-rule="evenodd" d="M123.946 104C124.064 102.683 124.125 101.348 124.125 100C124.125 75.6995 104.426 56 80.125 56C55.8245 56 36.125 75.6995 36.125 100C36.125 101.348 36.1857 102.683 36.3044 104H123.946Z" fill="white"/>
<path d="M123.946 104V112H131.257L131.913 104.718L123.946 104ZM36.3044 104L28.3367 104.718L28.9929 112H36.3044V104ZM116.125 100C116.125 101.108 116.075 102.203 115.978 103.282L131.913 104.718C132.054 103.162 132.125 101.588 132.125 100H116.125ZM80.125 64C100.007 64 116.125 80.1177 116.125 100H132.125C132.125 71.2812 108.844 48 80.125 48V64ZM44.125 100C44.125 80.1177 60.2427 64 80.125 64V48C51.4062 48 28.125 71.2812 28.125 100H44.125ZM44.2721 103.282C44.1748 102.203 44.125 101.108 44.125 100H28.125C28.125 101.588 28.1965 103.162 28.3367 104.718L44.2721 103.282ZM36.3044 112H123.946V96H36.3044V112Z" fill="#E12217" mask="url(#path-8-inside-3)"/>
</svg>
