<svg width="27" height="24" viewBox="0 0 27 24" fill="none" xmlns="http://www.w3.org/2000/svg">
<path fill-rule="evenodd" clip-rule="evenodd" d="M12.2815 2.30154H6.73734C5.004 2.29487 3.58317 3.67654 3.54234 5.40904V14.3365C3.504 16.0974 4.89984 17.5565 6.66067 17.5957C6.6865 17.5957 6.7115 17.5965 6.73734 17.5957H13.3948C15.1398 17.5249 16.5148 16.0832 16.5023 14.3365V6.6982L12.2815 2.30154Z" stroke="#677180" stroke-width="1.5" stroke-linecap="round" stroke-linejoin="round"/>
<path d="M12.0626 2.29169V4.71585C12.0626 5.89919 13.0192 6.85835 14.2026 6.86169H16.4984" stroke="#677180" stroke-width="1.5" stroke-linecap="round" stroke-linejoin="round"/>
<path d="M11.9067 12.7987H7.40674" stroke="#677180" stroke-width="1.5" stroke-linecap="round" stroke-linejoin="round"/>
<path d="M10.2027 9.67167H7.40601" stroke="#677180" stroke-width="1.5" stroke-linecap="round" stroke-linejoin="round"/>
<rect x="13" y="11" width="14" height="13" fill="white"/>
<rect x="7" y="16" width="14" height="7" fill="white"/>
<path d="M16.6666 13.3333V16.6666" stroke="#677180" stroke-linecap="round" stroke-linejoin="round"/>
<path d="M18.3333 15H15" stroke="#677180" stroke-linecap="round" stroke-linejoin="round"/>
</svg>
