<svg id="Layer_1" data-name="Layer 1" xmlns="http://www.w3.org/2000/svg" viewBox="0 0 358.4 358.4"><defs><style>.cls-1,.cls-2{fill:#fffdfd;}.cls-1{fill-rule:evenodd;}</style></defs><path class="cls-1" d="M287.6,196A89.6,89.6,0,1,1,198,106.4,89.61,89.61,0,0,1,287.6,196" transform="translate(-18.8 -16.8)"/><rect class="cls-2" x="168" width="22.4" height="56"/><rect class="cls-2" x="168" y="302.4" width="22.4" height="56"/><rect class="cls-2" x="302.4" y="168" width="56" height="22.4"/><rect class="cls-2" y="168" width="56" height="22.4"/><rect class="cls-2" x="276.91" y="77.88" width="56" height="22.4" transform="translate(7.52 224.9) rotate(-45)"/><rect class="cls-2" x="63.08" y="291.71" width="56" height="22.4" transform="translate(-206.31 136.32) rotate(-45)"/><rect class="cls-2" x="293.72" y="274.91" width="22.4" height="56" transform="translate(-143.68 287.53) rotate(-45)"/><rect class="cls-2" x="79.88" y="61.08" width="22.4" height="56" transform="translate(-55.11 73.7) rotate(-45)"/></svg>