<svg width="28" height="47" viewBox="0 0 28 47" fill="none" xmlns="http://www.w3.org/2000/svg">
<path d="M12.7784 46.6363V0.272705H15.7486V46.6363H12.7784ZM22.7755 14.1818C22.5582 12.3466 21.6768 10.9219 20.1314 9.90765C18.5859 8.89344 16.6903 8.38634 14.4446 8.38634C12.8025 8.38634 11.3657 8.65197 10.1342 9.18322C8.91475 9.71447 7.96092 10.4449 7.27271 11.3746C6.59657 12.3043 6.2585 13.3608 6.2585 14.544C6.2585 15.5341 6.49394 16.3853 6.96482 17.0976C7.44778 17.7979 8.06354 18.3835 8.81212 18.8544C9.5607 19.3132 10.3455 19.6935 11.1665 19.9954C11.9875 20.2851 12.7422 20.5206 13.4304 20.7017L17.1974 21.7159C18.1633 21.9694 19.2379 22.3196 20.4211 22.7663C21.6165 23.213 22.7574 23.8228 23.8441 24.5955C24.9428 25.3562 25.8483 26.3341 26.5607 27.5295C27.2731 28.7248 27.6292 30.1917 27.6292 31.9304C27.6292 33.9346 27.104 35.7457 26.0536 37.3636C25.0152 38.9815 23.4939 40.2674 21.4897 41.2212C19.4975 42.1751 17.0767 42.652 14.2273 42.652C11.571 42.652 9.27093 42.2233 7.32704 41.3661C5.39522 40.5089 3.87391 39.3135 2.76312 37.7802C1.6644 36.2468 1.04259 34.4659 0.897705 32.4375H5.53407C5.65481 33.838 6.12569 34.9971 6.94671 35.9148C7.77981 36.8203 8.83023 37.4964 10.098 37.9432C11.3778 38.3778 12.7542 38.5951 14.2273 38.5951C15.9417 38.5951 17.4812 38.3175 18.8455 37.7621C20.2098 37.1946 21.2905 36.4098 22.0873 35.4076C22.8842 34.3934 23.2826 33.2102 23.2826 31.8579C23.2826 30.6264 22.9385 29.6243 22.2503 28.8515C21.5621 28.0788 20.6566 27.451 19.5337 26.968C18.4108 26.4851 17.1974 26.0625 15.8934 25.7003L11.3295 24.3963C8.4318 23.5632 6.13776 22.3739 4.44742 20.8285C2.75708 19.283 1.91191 17.2606 1.91191 14.7613C1.91191 12.6846 2.47334 10.8736 3.59621 9.32811C4.73116 7.77058 6.25246 6.56319 8.16013 5.70595C10.0799 4.83663 12.223 4.40197 14.5895 4.40197C16.9801 4.40197 19.1051 4.83059 20.9645 5.68783C22.8238 6.533 24.2969 7.6921 25.3835 9.16511C26.4822 10.6381 27.0618 12.3103 27.1221 14.1818H22.7755Z" fill="white"/>
</svg>
