<svg width="50" height="66" viewBox="0 0 50 66" fill="none" xmlns="http://www.w3.org/2000/svg">
<path d="M19.2906 9.49768H30.6248C30.9727 9.49768 31.3064 9.35947 31.5524 9.11346C31.7984 8.86744 31.9366 8.53377 31.9366 8.18585C31.9366 7.83793 31.7984 7.50427 31.5524 7.25825C31.3064 7.01223 30.9727 6.87402 30.6248 6.87402H19.2906C18.9427 6.87402 18.609 7.01223 18.363 7.25825C18.117 7.50427 17.9788 7.83793 17.9788 8.18585C17.9788 8.53377 18.117 8.86744 18.363 9.11346C18.609 9.35947 18.9427 9.49768 19.2906 9.49768Z" fill="white"/>
<path d="M19.2906 15.4009H30.6248C30.9727 15.4009 31.3064 15.2627 31.5524 15.0167C31.7984 14.7706 31.9366 14.437 31.9366 14.0891C31.9366 13.7411 31.7984 13.4075 31.5524 13.1614C31.3064 12.9154 30.9727 12.7772 30.6248 12.7772H19.2906C18.9427 12.7772 18.609 12.9154 18.363 13.1614C18.117 13.4075 17.9788 13.7411 17.9788 14.0891C17.9788 14.437 18.117 14.7706 18.363 15.0167C18.609 15.2627 18.9427 15.4009 19.2906 15.4009Z" fill="white"/>
<path d="M19.2906 21.291H30.6248C30.9727 21.291 31.3064 21.1528 31.5524 20.9068C31.7984 20.6608 31.9366 20.3271 31.9366 19.9792C31.9366 19.6313 31.7984 19.2976 31.5524 19.0516C31.3064 18.8056 30.9727 18.6674 30.6248 18.6674H19.2906C18.9427 18.6674 18.609 18.8056 18.363 19.0516C18.117 19.2976 17.9788 19.6313 17.9788 19.9792C17.9788 20.3271 18.117 20.6608 18.363 20.9068C18.609 21.1528 18.9427 21.291 19.2906 21.291Z" fill="white"/>
<path d="M19.2906 27.2073H30.6248C30.9727 27.2073 31.3064 27.0691 31.5524 26.8231C31.7984 26.577 31.9366 26.2434 31.9366 25.8954C31.9366 25.5475 31.7984 25.2139 31.5524 24.9678C31.3064 24.7218 30.9727 24.5836 30.6248 24.5836H19.2906C18.9427 24.5836 18.609 24.7218 18.363 24.9678C18.117 25.2139 17.9788 25.5475 17.9788 25.8954C17.9788 26.2434 18.117 26.577 18.363 26.8231C18.609 27.0691 18.9427 27.2073 19.2906 27.2073Z" fill="white"/>
<path d="M48.0459 22.7471L46.7341 21.96C45.8622 21.4467 44.8235 21.2965 43.8419 21.5419C42.8604 21.7873 42.0145 22.4086 41.4868 23.2719C41.4868 22.9833 41.4868 22.6947 41.3818 22.406L38.5745 5.62775C38.3732 4.10493 37.6375 2.70315 36.4986 1.67239C35.3597 0.641636 33.8917 0.0489372 32.3564 0H17.559C16.0237 0.0489372 14.5557 0.641636 13.4169 1.67239C12.278 2.70315 11.5423 4.10493 11.3409 5.62775L8.55986 22.4323C8.55986 22.7209 8.48116 22.9964 8.45492 23.285C7.92954 22.4191 7.08363 21.7955 6.10105 21.5499C5.11847 21.3043 4.07865 21.4564 3.2076 21.9731L1.89577 22.7602C1.03013 23.2849 0.399908 24.1228 0.136061 25.1C-0.127786 26.0773 -0.00496717 27.1186 0.478996 28.0076L3.60115 33.4385C3.45813 33.8205 3.38267 34.2245 3.37814 34.6323V36.7312C3.38161 37.6683 3.75631 38.5659 4.42018 39.2273C5.08404 39.8887 5.98297 40.2601 6.92008 40.26H20.4188V43.474C20.4183 43.9744 20.5535 44.4655 20.8099 44.8951C21.0663 45.3248 21.4344 45.6769 21.8749 45.914V47.0553H13.0463C11.0237 47.0588 9.08512 47.8647 7.65615 49.2962C6.22717 50.7276 5.42459 52.6676 5.42459 54.6902V54.8476C4.34973 55.5161 3.52191 56.5166 3.06644 57.6977C2.61096 58.8787 2.55264 60.176 2.90027 61.3931C3.24791 62.6103 3.9826 63.681 4.99313 64.4433C6.00366 65.2056 7.23502 65.618 8.50083 65.618C9.76665 65.618 10.998 65.2056 12.0085 64.4433C13.0191 63.681 13.7538 62.6103 14.1014 61.3931C14.449 60.176 14.3907 58.8787 13.9352 57.6977C13.4798 56.5166 12.6519 55.5161 11.5771 54.8476V54.6902C11.5698 54.4947 11.6028 54.2998 11.6739 54.1175C11.7449 53.9352 11.8527 53.7695 11.9904 53.6305C12.1281 53.4916 12.2929 53.3824 12.4745 53.3097C12.6561 53.237 12.8508 53.2023 13.0463 53.2078H21.8749V54.8476C21.0196 55.386 20.3195 56.1381 19.8437 57.0298C19.368 57.9214 19.1329 58.9217 19.1618 59.932C19.1907 60.9422 19.4826 61.9274 20.0086 62.7904C20.5347 63.6534 21.2766 64.3642 22.1613 64.8528C23.046 65.3414 24.0428 65.5909 25.0534 65.5765C26.0639 65.5622 27.0532 65.2845 27.9237 64.771C28.7942 64.2575 29.5157 63.5258 30.017 62.6483C30.5183 61.7707 30.782 60.7776 30.7823 59.767C30.7809 58.7816 30.5285 57.8128 30.0488 56.952C29.569 56.0913 28.8779 55.367 28.0405 54.8476V53.2078H36.8691C37.0647 53.2023 37.2593 53.237 37.4409 53.3097C37.6226 53.3824 37.7873 53.4916 37.9251 53.6305C38.0628 53.7695 38.1705 53.9352 38.2416 54.1175C38.3127 54.2998 38.3457 54.4947 38.3384 54.6902V54.8476C37.4854 55.3877 36.7878 56.1408 36.3144 57.0326C35.841 57.9243 35.6081 58.9241 35.6387 59.9332C35.6692 60.9424 35.9622 61.9262 36.4887 62.7877C37.0151 63.6492 37.757 64.3587 38.6411 64.8463C39.5252 65.3338 40.5211 65.5827 41.5306 65.5682C42.5401 65.5538 43.5285 65.2766 44.3983 64.7639C45.2681 64.2512 45.9893 63.5208 46.4909 62.6446C46.9925 61.7684 47.2572 60.7766 47.2588 59.767C47.2574 58.7801 47.0035 57.81 46.5213 56.949C46.0391 56.0879 45.3446 55.3645 44.504 54.8476V54.6902C44.504 52.6676 43.7014 50.7276 42.2724 49.2962C40.8435 47.8647 38.9049 47.0588 36.8823 47.0553H28.0405V45.914C28.4792 45.678 28.8459 45.3279 29.1022 44.9008C29.3585 44.4736 29.4948 43.9853 29.4967 43.4872V40.2732H43.0216C43.961 40.2732 44.8619 39.9 45.5262 39.2358C46.1904 38.5715 46.5636 37.6706 46.5636 36.7312V34.6717C46.5579 34.2597 46.4825 33.8516 46.3406 33.4648L49.4627 28.0469C49.9627 27.1529 50.0945 26.0991 49.8299 25.1095C49.5654 24.1199 48.9254 23.2724 48.0459 22.7471ZM11.1442 22.8652L13.9384 6.04753C14.0394 5.14079 14.4586 4.29921 15.1215 3.67234C15.7844 3.04548 16.648 2.67391 17.559 2.62366H32.3564C33.2674 2.67391 34.1311 3.04548 34.794 3.67234C35.4569 4.29921 35.8761 5.14079 35.9771 6.04753L38.7713 22.8652C39.1222 25.2053 38.7275 27.5966 37.6431 29.6998C37.3745 30.2379 37.0099 30.7225 36.5674 31.1297H13.348C12.8951 30.7023 12.518 30.2011 12.233 29.6473C11.1756 27.5542 10.7951 25.1841 11.1442 22.8652ZM3.18136 25.0166L4.49319 24.2295C4.78359 24.08 5.11932 24.0442 5.43472 24.1291C5.75012 24.214 6.02249 24.4135 6.19857 24.6886L9.92417 31.1297H6.89384C6.39011 31.1293 5.89264 31.2414 5.43771 31.4577L2.72222 26.7351C2.56888 26.4433 2.53097 26.1046 2.61605 25.7861C2.70112 25.4677 2.90294 25.193 3.18136 25.0166ZM8.42868 62.9678C7.79561 62.9678 7.17676 62.7801 6.65038 62.4284C6.124 62.0767 5.71374 61.5768 5.47147 60.9919C5.2292 60.407 5.16582 59.7634 5.28932 59.1425C5.41283 58.5216 5.71768 57.9513 6.16533 57.5036C6.61298 57.056 7.18332 56.7511 7.80422 56.6276C8.42513 56.5041 9.06872 56.5675 9.6536 56.8097C10.2385 57.052 10.7384 57.4623 11.0901 57.9886C11.4418 58.515 11.6295 59.1339 11.6295 59.767C11.6297 60.6046 11.3015 61.409 10.7153 62.0074C10.1292 62.6059 9.33178 62.9507 8.49427 62.9678H8.42868ZM24.9577 62.9678C24.3247 62.9678 23.7058 62.7801 23.1794 62.4284C22.653 62.0767 22.2428 61.5768 22.0005 60.9919C21.7583 60.407 21.6949 59.7634 21.8184 59.1425C21.9419 58.5216 22.2467 57.9513 22.6944 57.5036C23.142 57.056 23.7124 56.7511 24.3333 56.6276C24.9542 56.5041 25.5978 56.5675 26.1826 56.8097C26.7675 57.052 27.2674 57.4623 27.6192 57.9886C27.9709 58.515 28.1586 59.1339 28.1586 59.767C28.1586 60.6159 27.8214 61.43 27.2211 62.0303C26.6208 62.6306 25.8067 62.9678 24.9577 62.9678ZM41.4212 62.9678C40.7887 62.9652 40.1711 62.7753 39.6465 62.422C39.1218 62.0687 38.7136 61.5679 38.4733 60.9828C38.2331 60.3977 38.1716 59.7545 38.2966 59.1345C38.4215 58.5145 38.7274 57.9453 39.1756 57.499C39.6238 57.0527 40.1941 56.7491 40.8147 56.6267C41.4352 56.5042 42.0781 56.5684 42.6622 56.811C43.2464 57.0537 43.7455 57.4639 44.0966 57.99C44.4478 58.5161 44.6352 59.1344 44.6352 59.767C44.6352 60.1884 44.552 60.6057 44.3903 60.9949C44.2286 61.3841 43.9916 61.7376 43.693 62.035C43.3944 62.3324 43.04 62.5679 42.6501 62.7279C42.2603 62.888 41.8426 62.9695 41.4212 62.9678ZM36.8691 49.679C38.0721 49.6803 39.234 50.1166 40.1405 50.9074C41.047 51.6982 41.637 52.7901 41.8016 53.9818C41.6749 53.9753 41.5479 53.9753 41.4212 53.9818C41.2375 53.9818 41.067 53.9818 40.8965 53.9818C40.7455 53.0249 40.2558 52.1541 39.5166 51.528C38.7774 50.902 37.8378 50.5623 36.8691 50.571H26.7287C26.3808 50.571 26.0471 50.7092 25.8011 50.9553C25.5551 51.2013 25.4169 51.5349 25.4169 51.8829V53.9818C25.2595 53.9818 25.1152 53.9818 24.9577 53.9818C24.8003 53.9818 24.656 53.9818 24.4986 53.9818V51.8829C24.4986 51.5349 24.3604 51.2013 24.1144 50.9553C23.8684 50.7092 23.5347 50.571 23.1868 50.571H13.0463C12.0776 50.5623 11.1381 50.902 10.3989 51.528C9.65963 52.1541 9.16994 53.0249 9.01901 53.9818C8.84847 53.9818 8.67793 53.9818 8.49427 53.9818C8.36755 53.9753 8.24057 53.9753 8.11384 53.9818C8.27846 52.7901 8.86844 51.6982 9.77495 50.9074C10.6815 50.1166 11.8434 49.6803 13.0463 49.679H23.1868C23.5347 49.679 23.8684 49.5408 24.1144 49.2948C24.3604 49.0487 24.4986 48.7151 24.4986 48.3672V46.2551H25.4169V48.3672C25.4169 48.7151 25.5551 49.0487 25.8011 49.2948C26.0471 49.5408 26.3808 49.679 26.7287 49.679H36.8691ZM26.873 43.4872C26.873 43.5254 26.8578 43.5621 26.8307 43.5892C26.8037 43.6163 26.767 43.6314 26.7287 43.6314H23.1868C23.1485 43.6314 23.1118 43.6163 23.0847 43.5892C23.0577 43.5621 23.0425 43.5254 23.0425 43.4872V40.2732H26.873V43.4872ZM43.9268 36.7443C43.9268 36.8643 43.903 36.9831 43.8567 37.0938C43.8103 37.2045 43.7425 37.3048 43.657 37.3891C43.5716 37.4733 43.4703 37.5397 43.3589 37.5844C43.2476 37.6291 43.1285 37.6512 43.0085 37.6495H6.89384C6.77387 37.6512 6.65476 37.6291 6.54342 37.5844C6.43208 37.5397 6.33074 37.4733 6.2453 37.3891C6.15985 37.3048 6.092 37.2045 6.0457 37.0938C5.99939 36.9831 5.97555 36.8643 5.97556 36.7443V34.6717C5.97556 34.5511 5.99931 34.4317 6.04546 34.3202C6.09161 34.2088 6.15925 34.1076 6.24452 34.0223C6.32979 33.9371 6.43102 33.8694 6.54243 33.8233C6.65384 33.7771 6.77325 33.7534 6.89384 33.7534C40.5029 33.7534 38.7188 33.7534 43.0216 33.7534C43.1422 33.7534 43.2616 33.7771 43.373 33.8233C43.4844 33.8694 43.5857 33.9371 43.6709 34.0223C43.7562 34.1076 43.8239 34.2088 43.87 34.3202C43.9162 34.4317 43.9399 34.5511 43.9399 34.6717L43.9268 36.7443ZM47.2588 26.7351L44.4778 31.4839C44.0228 31.2676 43.5254 31.1555 43.0216 31.156H39.9519L43.6644 24.7149C43.8405 24.4398 44.1129 24.2402 44.4283 24.1553C44.7437 24.0704 45.0794 24.1062 45.3698 24.2557L46.6816 25.0428C46.974 25.1996 47.1961 25.4614 47.3032 25.7754C47.4103 26.0894 47.3944 26.4323 47.2588 26.7351Z" fill="white"/>
</svg>
