<svg id="Layer_1" data-name="Layer 1" xmlns="http://www.w3.org/2000/svg" viewBox="0 0 500.82 504"><defs><style>.cls-1{fill:#fff;fill-rule:evenodd;}</style></defs><path class="cls-1" d="M376.36,202.89a9.38,9.38,0,0,1,3.09,7.27v36.68a8.87,8.87,0,0,1-3.09,7.28,9.06,9.06,0,0,1-7.29,3.37v.27l-.55-.27H173.36Q172,265.59,172,281l.56,21.29H369.08a9,9,0,0,1,7.28,3.36,8.82,8.82,0,0,1,3.09,7.27v36.69a9.38,9.38,0,0,1-3.09,7.28,10,10,0,0,1-7.28,3.08H190.17q19,37.8,54,59.09Q280,441.17,325.4,441.17q35.85,0,67.77-20.44a136.78,136.78,0,0,0,45.91-49.83l.29-1.4q4.47-7.56,13.16-3.93L524.21,400A10.39,10.39,0,0,1,529,405.9a9.67,9.67,0,0,1-.56,7.28V414h-.56v.55q-29.4,52.1-74.49,81.77Q398.48,533,325.4,533,235.52,533,168,486.24,100.27,439.49,76.2,360H39a8.57,8.57,0,0,1-7-3.07,9,9,0,0,1-3.36-7.29V312.91A8.51,8.51,0,0,1,32,305.63a8.25,8.25,0,0,1,7-3.36H65.85v-44.8H39v.27a8.57,8.57,0,0,1-7-3.07,10.17,10.17,0,0,1-3.36-7.84V210.16A9,9,0,0,1,32,202.89a8.53,8.53,0,0,1,7-3.09H77.33q24.35-78.69,91.55-124.6Q236.08,29,325.4,29q73.64,0,128,36.4,45.09,29.4,74.49,81.76l.56.29V148a10.66,10.66,0,0,1,.56,7.56,9.4,9.4,0,0,1-4.77,6.16l-71.68,34.44v-.55a9.21,9.21,0,0,1-7.28.84,9.59,9.59,0,0,1-5.88-4.49,133,133,0,0,0-45.65-50.4q-32.47-20.72-68.31-20.71-44.53,0-79.8,21.27-35,20.73-54.32,57.69h177.8a9.88,9.88,0,0,1,7.28,3.08Z" transform="translate(-28.61 -29)"/></svg>