<svg width="19" height="20" viewBox="0 0 19 20" fill="none" xmlns="http://www.w3.org/2000/svg">
<path d="M13.1668 12.6667H11.1668C10.9828 12.6667 10.8335 12.816 10.8335 13C10.8335 13.184 10.9828 13.3333 11.1668 13.3333H13.1668C13.3508 13.3333 13.5001 13.184 13.5001 13C13.5002 12.816 13.3508 12.6667 13.1668 12.6667Z" fill="#677180"/>
<path d="M13.1668 11.3333H11.1668C10.9828 11.3333 10.8335 11.4826 10.8335 11.6666C10.8335 11.8506 10.9828 12 11.1668 12H13.1668C13.3508 12 13.5001 11.8506 13.5001 11.6666C13.5001 11.4826 13.3508 11.3333 13.1668 11.3333Z" fill="#677180"/>
<path d="M10.8337 3.33332C11.7527 3.33332 12.5004 2.58566 12.5004 1.66664C12.5004 0.747656 11.7527 0 10.8337 0C9.91469 0 9.16699 0.747656 9.16699 1.66668C9.16699 2.58566 9.91465 3.33332 10.8337 3.33332ZM10.8337 0.66668C11.385 0.66668 11.8337 1.11535 11.8337 1.66668C11.8337 2.10066 11.5543 2.46703 11.167 2.60535V1.66668C11.167 1.4827 11.0177 1.33336 10.8337 1.33336C10.6497 1.33336 10.5004 1.4827 10.5004 1.66668V2.605C10.113 2.46699 9.83367 2.10066 9.83367 1.66668C9.83367 1.11535 10.2823 0.66668 10.8337 0.66668Z" fill="#677180"/>
<path d="M13.1668 8.66669H9.16682C8.98283 8.66669 8.8335 8.81602 8.8335 9.00001V15.6667C8.8335 15.8507 8.98283 16 9.16682 16H13.1668C13.3508 16 13.5001 15.8507 13.5001 15.6667C13.5001 15.4827 13.3508 15.3334 13.1668 15.3334H9.50014V9.33337H13.1668C13.3508 9.33337 13.5001 9.18403 13.5001 9.00005C13.5001 8.81606 13.3508 8.66669 13.1668 8.66669Z" fill="#677180"/>
<path d="M12.6604 3.44432C12.4967 3.36034 12.2961 3.42432 12.2114 3.58799C12.1271 3.75166 12.1918 3.95268 12.3551 4.03698C13.4724 4.61233 14.1668 5.74764 14.1668 6.99998V19C14.1668 19.1836 14.0171 19.3333 13.8335 19.3333H7.83346C7.64979 19.3333 7.50014 19.1836 7.50014 19V6.99998C7.50014 5.74764 8.19447 4.61233 9.31182 4.03698C9.47514 3.95264 9.53982 3.75162 9.45549 3.58799C9.37084 3.42432 9.17014 3.35998 9.0065 3.44432C7.66615 4.13432 6.8335 5.49698 6.8335 6.99998V19C6.8335 19.5513 7.28217 20 7.8335 20H13.8335C14.3848 20 14.8335 19.5513 14.8335 19V6.99998C14.8334 5.49698 14.0008 4.13432 12.6604 3.44432Z" fill="#677180"/>
<path d="M17.8337 1.33331H13.5004C13.3587 1.33331 13.2327 1.42265 13.1857 1.55632C13.1391 1.68999 13.1814 1.83866 13.2921 1.92698L14.9587 3.26031C15.0204 3.30929 15.0937 3.33331 15.1671 3.33331C15.2644 3.33331 15.3614 3.29066 15.4274 3.20831C15.5424 3.06433 15.5191 2.85464 15.3754 2.73964L14.4507 1.99999H17.8337C18.0177 1.99999 18.167 1.85066 18.167 1.66667C18.167 1.48265 18.0177 1.33331 17.8337 1.33331Z" fill="#677180"/>
<path d="M8.16686 2.00001C8.35084 2.00001 8.50018 1.85068 8.50018 1.66669C8.50018 1.48271 8.35084 1.33337 8.16686 1.33337C4.69018 1.33337 2.16686 4.13704 2.16686 8.00005V9.38173C1.61819 9.5274 1.20854 10.0194 1.16753 10.6447L0.834207 15.6447C0.828192 15.7364 0.860535 15.8271 0.923543 15.8944C0.986551 15.9617 1.07456 16 1.16686 16H3.83354C3.92589 16 4.01389 15.9617 4.07686 15.8944C4.13987 15.827 4.17221 15.7364 4.1662 15.6447L3.83288 10.6444C3.79053 10.0194 3.38089 9.52771 2.83354 9.38204V8.00001C2.83354 4.46736 5.02686 2.00001 8.16686 2.00001ZM3.16753 10.6887L3.47717 15.3333H1.52319L1.83284 10.6883C1.85886 10.2897 2.13952 10 2.50022 10C2.85421 10 3.1412 10.2963 3.16753 10.6887Z" fill="#677180"/>
</svg>
