<svg width="17" height="17" viewBox="0 0 17 17" fill="none" xmlns="http://www.w3.org/2000/svg">
<path d="M7 0.125C4.5625 0.125 2.625 2.0625 2.625 4.5C2.625 6.02344 3.38123 7.35095 4.54394 8.13281C2.31876 9.09208 0.75 11.3085 0.75 13.875H2C2 11.125 4.25 8.875 7 8.875C9.4375 8.875 11.375 6.9375 11.375 4.5C11.375 2.0625 9.4375 0.125 7 0.125ZM7 1.375C8.75 1.375 10.125 2.75 10.125 4.5C10.125 6.25 8.75 7.625 7 7.625C5.25 7.625 3.875 6.25 3.875 4.5C3.875 2.75 5.25 1.375 7 1.375ZM12.0623 8.25V9.56226C11.6873 9.62476 11.3127 9.81299 11.0002 10.0005L10.0627 9.06299L9.1875 9.93701L10.125 10.8745C9.875 11.187 9.75049 11.5625 9.68799 12H8.25V13.25H9.56226C9.62476 13.625 9.81299 14.0005 10.0005 14.3755L9.06299 15.313L9.93701 16.187L10.8745 15.2495C11.187 15.437 11.5627 15.6252 11.9377 15.6877V17H13.1877V15.6877C13.5627 15.6252 13.9373 15.437 14.2498 15.2495L15.1873 16.187L16.0625 15.313L15.125 14.3755C15.375 14.063 15.4995 13.6875 15.562 13.25H17V12H15.6877C15.6252 11.625 15.437 11.2495 15.2495 10.8745L16.187 9.93701L15.313 9.06299L14.3755 10.0005C14.063 9.81299 13.6873 9.62476 13.3123 9.56226V8.25H12.0623ZM12.625 10.75C13.6875 10.75 14.5 11.5625 14.5 12.625C14.5 13.6875 13.6875 14.5 12.625 14.5C11.5625 14.5 10.75 13.6875 10.75 12.625C10.75 11.5625 11.5625 10.75 12.625 10.75ZM12.625 12C12.5469 12 12.4688 12.0195 12.3955 12.0537C12.3223 12.0879 12.2539 12.1367 12.1953 12.1953C12.1367 12.2539 12.0879 12.3223 12.0537 12.3955C12.0195 12.4688 12 12.5469 12 12.625C12 12.8594 12.1758 13.0938 12.3955 13.1963C12.4688 13.2305 12.5469 13.25 12.625 13.25C12.9375 13.25 13.25 12.9375 13.25 12.625C13.25 12.3125 12.9375 12 12.625 12Z" fill="#E12217"/>
</svg>
