<svg width="18" height="18" viewBox="0 0 18 18" fill="none" xmlns="http://www.w3.org/2000/svg">
<path d="M9.00033 0.666672C4.40782 0.666672 0.666992 4.4075 0.666992 9.00001C0.666992 13.5925 4.40782 17.3333 9.00033 17.3333C13.5928 17.3333 17.3337 13.5925 17.3337 9.00001C17.3337 4.4075 13.5928 0.666672 9.00033 0.666672ZM9.00033 2.33334C12.6921 2.33334 15.667 5.30824 15.667 9.00001C15.667 12.6918 12.6921 15.6667 9.00033 15.6667C5.30856 15.6667 2.33366 12.6918 2.33366 9.00001C2.33366 5.30824 5.30856 2.33334 9.00033 2.33334ZM8.16699 4.83334V6.50001H9.83366V4.83334H8.16699ZM8.16699 8.16667V13.1667H9.83366V8.16667H8.16699Z" fill="#677180"/>
</svg>
