<svg width="24" height="27" viewBox="0 0 24 27" fill="none" xmlns="http://www.w3.org/2000/svg">
<path d="M6 2.5C5.81139 2.50008 5.62973 2.57121 5.49121 2.69922L2.24121 5.69922C2.16519 5.76942 2.10451 5.85459 2.063 5.94938C2.02149 6.04417 2.00004 6.14652 2 6.25V8.25C2 9.21867 2.3823 10.0978 3 10.7627V21.25C3.00002 21.4489 3.07904 21.6397 3.21969 21.7803C3.36034 21.921 3.55109 22 3.75 22H20.25C20.4489 22 20.6397 21.921 20.7803 21.7803C20.921 21.6397 21 21.4489 21 21.25V10.7637C21.6183 10.0986 22.001 9.21916 22.001 8.25V6.25H21.999C21.9991 6.14659 21.9778 6.04429 21.9365 5.9495C21.8951 5.85472 21.8346 5.76951 21.7588 5.69922L18.5088 2.69922C18.3703 2.57121 18.1886 2.50008 18 2.5H6ZM6.29297 4H17.707L19.332 5.5H4.66797L6.29297 4ZM3.5 7H8.16602V8.25C8.16602 8.25198 8.16601 8.25389 8.16602 8.25586C8.16269 9.49353 7.14055 10.5 5.83398 10.5C4.52529 10.5 3.5 9.49044 3.5 8.25V7ZM9.66699 7H14.334V8.25C14.334 9.49044 13.3087 10.5 12 10.5C10.6934 10.5 9.67032 9.49353 9.66699 8.25586C9.667 8.25389 9.66699 8.25198 9.66699 8.25V7ZM15.834 7H20.501V8.25C20.501 9.49044 19.4757 10.5 18.167 10.5C16.8583 10.5 15.834 9.49044 15.834 8.25V7ZM15.084 10.3535C15.7808 11.3243 16.877 12 18.167 12C18.6351 12 19.0831 11.9126 19.5 11.7598V20.5H11.5V14.25C11.5 14.0511 11.421 13.8603 11.2803 13.7197C11.1397 13.579 10.9489 13.5 10.75 13.5H6.75C6.55109 13.5 6.36034 13.579 6.21969 13.7197C6.07904 13.8603 6.00002 14.0511 6 14.25V20.5H4.5V11.7598C4.91714 11.9128 5.36553 12 5.83398 12C7.09117 12 8.21465 11.395 8.91602 10.4658C9.61764 11.3953 10.7426 12 12 12C13.2902 12 14.3872 11.3246 15.084 10.3535ZM13.75 13.5C13.5511 13.5 13.3603 13.579 13.2197 13.7197C13.079 13.8603 13 14.0511 13 14.25V17.75C13 17.9489 13.079 18.1397 13.2197 18.2803C13.3603 18.421 13.5511 18.5 13.75 18.5H17.25C17.4489 18.5 17.6397 18.421 17.7803 18.2803C17.921 18.1397 18 17.9489 18 17.75V14.25C18 14.0511 17.921 13.8603 17.7803 13.7197C17.6397 13.579 17.4489 13.5 17.25 13.5H13.75ZM7.5 15H10V20.5H7.5V15ZM14.5 15H16.5V17H14.5V15Z" fill="#192838"/>
</svg>
