<svg width="122" height="122" viewBox="0 0 122 122" fill="none" xmlns="http://www.w3.org/2000/svg">
<path d="M30.5003 12.708C29.5415 12.7084 28.6181 13.07 27.914 13.7207L11.3931 28.9707C11.0067 29.3276 10.6983 29.7605 10.4872 30.2424C10.2762 30.7242 10.1672 31.2445 10.167 31.7705V41.9372C10.167 46.8612 12.1103 51.3301 15.2503 54.71V108.021C15.2504 109.032 15.6521 110.001 16.3671 110.716C17.0821 111.431 18.0517 111.833 19.0628 111.833H102.938C103.949 111.833 104.919 111.431 105.634 110.716C106.349 110.001 106.75 109.032 106.75 108.021V54.715C109.893 51.3344 111.839 46.8637 111.839 41.9372V31.7705H111.829C111.829 31.2449 111.721 30.7248 111.511 30.243C111.301 29.7612 110.993 29.328 110.608 28.9707L94.0867 13.7207C93.3825 13.07 92.4591 12.7084 91.5003 12.708H30.5003ZM31.9896 20.333H90.0111L98.2715 27.958H23.7292L31.9896 20.333ZM17.792 35.583H41.5109V41.9372C41.5109 41.9472 41.5109 41.9569 41.5109 41.967C41.494 48.2584 36.2981 53.3747 29.6564 53.3747C23.0039 53.3747 17.792 48.2427 17.792 41.9372V35.583ZM49.1409 35.583H72.8647V41.9372C72.8647 48.2427 67.6529 53.3747 61.0003 53.3747C54.3586 53.3747 49.1578 48.2584 49.1409 41.967C49.1409 41.9569 49.1409 41.9472 49.1409 41.9372V35.583ZM80.4897 35.583H104.214V41.9372C104.214 48.2427 99.0017 53.3747 92.3492 53.3747C85.6967 53.3747 80.4897 48.2427 80.4897 41.9372V35.583ZM76.6772 52.6301C80.2193 57.565 85.7915 60.9997 92.3492 60.9997C94.7289 60.9997 97.0061 60.5553 99.1253 59.7785V104.208H58.4587V72.4372C58.4586 71.4261 58.0569 70.4564 57.3419 69.7415C56.6269 69.0265 55.6573 68.6248 54.6462 68.6247H34.3128C33.3017 68.6248 32.3321 69.0265 31.6171 69.7415C30.9021 70.4564 30.5004 71.4261 30.5003 72.4372V104.208H22.8753V59.7785C24.9958 60.5563 27.2751 60.9997 29.6564 60.9997C36.0471 60.9997 41.7581 57.9244 45.3234 53.2009C48.89 57.9257 54.6085 60.9997 61.0003 60.9997C67.5591 60.9997 73.1354 57.5663 76.6772 52.6301ZM69.8962 68.6247C68.8851 68.6248 67.9154 69.0265 67.2004 69.7415C66.4855 70.4564 66.0838 71.4261 66.0837 72.4372V90.2289C66.0838 91.24 66.4855 92.2096 67.2004 92.9246C67.9154 93.6395 68.8851 94.0413 69.8962 94.0414H87.6878C88.6989 94.0413 89.6686 93.6395 90.3836 92.9246C91.0985 92.2096 91.5002 91.24 91.5003 90.2289V72.4372C91.5002 71.4261 91.0985 70.4564 90.3836 69.7415C89.6686 69.0265 88.6989 68.6248 87.6878 68.6247H69.8962ZM38.1253 76.2497H50.8337V104.208H38.1253V76.2497ZM73.7087 76.2497H83.8753V86.4164H73.7087V76.2497Z" fill="#E12217"/>
</svg>
