<svg class="svg-icon" style="width: 1em; height: 1em;vertical-align: middle;fill: currentColor;overflow: hidden;" viewBox="0 0 1024 1024" version="1.1" xmlns="http://www.w3.org/2000/svg"><path d="M674.657709 1023.999991c0 0 92.947262 0 92.947262-93.086683L767.604972 93.086683C767.604972 0 674.657709 0 674.657709 0L349.342291 0c0 0-92.947262 0-92.947262 93.086683l0 837.826624c0 93.086683 92.947262 93.086683 92.947262 93.086683L674.657709 1023.999991zM512 985.240982c-25.653444 0-46.473631-20.820187-46.473631-46.473631 0-25.653444 20.820187-46.473631 46.473631-46.473631 25.653444 0 46.473631 20.820187 46.473631 46.473631C558.473631 964.420796 537.653444 985.240982 512 985.240982zM442.289553 56.744304C442.289553 50.981573 445.031497 46.473631 448.470546 46.473631l127.058908 0C578.922029 46.473631 581.710447 51.074521 581.710447 56.744304L581.710447 59.486248C581.710447 65.248978 578.922029 69.75692 575.529454 69.75692L448.470546 69.75692C445.077971 69.75692 442.289553 65.156031 442.289553 59.486248L442.289553 56.744304zM302.868659 116.184078l418.262681 0 0 743.5781L302.868659 859.762178 302.868659 116.184078z"  /></svg>