<svg width="33" height="34" viewBox="0 0 33 34" fill="none" xmlns="http://www.w3.org/2000/svg">
<circle cx="16.5" cy="17" r="15.2308" stroke="#424D5C" stroke-width="2.53846"/>
<path d="M8.88161 15.038C8.38595 14.5424 7.58231 14.5424 7.08665 15.038C6.59098 15.5337 6.59098 16.3373 7.08665 16.833L8.88161 15.038ZM14.3712 22.3226L13.4737 23.2201L14.3958 24.1422L15.2926 23.1955L14.3712 22.3226ZM24.8733 13.0826C25.3554 12.5737 25.3337 11.7704 24.8248 11.2883C24.3159 10.8062 23.5126 10.8279 23.0305 11.3368L24.8733 13.0826ZM7.08665 16.833L13.4737 23.2201L15.2687 21.4251L8.88161 15.038L7.08665 16.833ZM15.2926 23.1955L24.8733 13.0826L23.0305 11.3368L13.4498 21.4497L15.2926 23.1955Z" fill="#424D5C"/>
</svg>
