<svg width="21" height="22" viewBox="0 0 21 22" fill="none" xmlns="http://www.w3.org/2000/svg">
<circle cx="10.5" cy="11" r="9.69231" stroke="#192838" stroke-width="1.61538"/>
<path d="M5.65218 9.7515C5.33676 9.43608 4.82535 9.43608 4.50993 9.7515C4.19451 10.0669 4.19451 10.5783 4.50993 10.8938L5.65218 9.7515ZM9.14557 14.3871L8.57445 14.9583L9.16122 15.545L9.73192 14.9426L9.14557 14.3871ZM15.8287 8.50715C16.1355 8.18332 16.1217 7.6721 15.7978 7.36531C15.474 7.05853 14.9628 7.07234 14.656 7.39617L15.8287 8.50715ZM4.50993 10.8938L8.57445 14.9583L9.7167 13.816L5.65218 9.7515L4.50993 10.8938ZM9.73192 14.9426L15.8287 8.50715L14.656 7.39617L8.55922 13.8317L9.73192 14.9426Z" fill="#192838"/>
</svg>
