<svg width="105" height="104" viewBox="0 0 105 104" fill="none" xmlns="http://www.w3.org/2000/svg">
<circle cx="52.5" cy="52" r="48" stroke="#E12217" stroke-width="8"/>
<path d="M28.4896 45.8166C26.9275 44.2545 24.3948 44.2545 22.8327 45.8166C21.2706 47.3787 21.2706 49.9113 22.8327 51.4734L28.4896 45.8166ZM45.7902 68.774L42.9617 71.6025L45.8676 74.5084L48.694 71.525L45.7902 68.774ZM78.8875 39.6541C80.4068 38.0503 80.3384 35.5186 78.7347 33.9993C77.131 32.4799 74.5992 32.5484 73.0799 34.1521L78.8875 39.6541ZM22.8327 51.4734L42.9617 71.6025L48.6186 65.9456L28.4896 45.8166L22.8327 51.4734ZM48.694 71.525L78.8875 39.6541L73.0799 34.1521L42.8864 66.0231L48.694 71.525Z" fill="#E12217"/>
</svg>
