<svg class="svg-icon" style="width: 1em; height: 1em;vertical-align: middle;fill: currentColor;overflow: hidden;" viewBox="0 0 1024 1024" version="1.1" xmlns="http://www.w3.org/2000/svg"><path d="M922.814085 0q40.006285 0 69.992715 26.548961t29.98643 66.555246q0 35.983715-25.744447 86.302407-189.71902 359.398329-265.709021 429.683594-55.438326 52.000857-124.553389 52.000857-71.967431 0-123.675737-52.878509t-51.708307-125.431041q0-73.137633 52.585958-121.11592l364.517963-330.801514q33.716449-30.864081 74.307835-30.864081zM403.463753 590.8058q22.306978 43.443754 60.850511 74.307835t86.009856 43.443754l0.585101 40.591386q2.267267 121.701021-74.015285 198.276123t-199.153775 76.575102q-70.285265 0-124.553389-26.548961t-87.106921-72.845082-49.44104-104.586815-16.602243-125.723591q4.02257 2.852368 23.404043 17.114206t35.398614 25.451896 33.716449 20.844225 26.25641 9.727305q23.404043 0 31.449182-21.136776 14.261838-37.739019 32.838797-64.287979t39.713735-43.443754 50.318692-27.134062 58.875795-14.554389 71.455467-5.997286z"  /></svg>