<svg width="16" height="16" viewBox="0 0 16 16" fill="none" xmlns="http://www.w3.org/2000/svg">
<path d="M8.0002 15.7C3.7502 15.7 0.325195 12.25 0.325195 8C0.325195 3.75 3.7502 0.324997 8.0002 0.324997C12.2502 0.324997 15.7002 3.75 15.7002 8C15.7002 12.25 12.2502 15.7 8.0002 15.7ZM8.0002 1.2C4.2502 1.2 1.2002 4.25 1.2002 8C1.2002 11.75 4.2502 14.825 8.0002 14.825C11.7502 14.825 14.8252 11.75 14.8252 8C14.8252 4.25 11.7502 1.2 8.0002 1.2Z" fill="#677180"/>
<path d="M7.15029 9.75C6.97529 9.75 6.82529 9.7 6.67529 9.575L5.02529 7.975C4.85029 7.8 4.85029 7.525 5.02529 7.35C5.20029 7.175 5.47529 7.175 5.65029 7.35L7.15029 8.825L10.3503 5.725C10.5253 5.55 10.8003 5.55 10.9753 5.725C11.1503 5.9 11.1503 6.175 10.9753 6.35L7.65029 9.6C7.47529 9.7 7.30029 9.75 7.15029 9.75Z" fill="#677180"/>
</svg>
