<svg width="138" height="138" viewBox="0 0 138 138" fill="none" xmlns="http://www.w3.org/2000/svg">
<path d="M28.75 27.75H27.75V28.75V51.75V52.75H28.75H51.75H52.75V51.75V28.75V27.75H51.75H28.75ZM86.25 27.75H85.25V28.75V51.75V52.75H86.25H109.25H110.25V51.75V28.75V27.75H109.25H86.25ZM28.75 85.25H27.75V86.25V109.25V110.25H28.75H51.75H52.75V109.25V86.25V85.25H51.75H28.75ZM86.25 85.25H85.25V86.25V109.25V110.25H86.25H109.25H110.25V109.25V86.25V85.25H109.25H86.25ZM18.25 28.75C18.25 23.0172 23.0172 18.25 28.75 18.25H51.75C57.4828 18.25 62.25 23.0172 62.25 28.75V51.75C62.25 57.4828 57.4828 62.25 51.75 62.25H28.75C23.0172 62.25 18.25 57.4828 18.25 51.75V28.75ZM75.75 28.75C75.75 23.0172 80.5172 18.25 86.25 18.25H109.25C114.983 18.25 119.75 23.0172 119.75 28.75V51.75C119.75 57.4828 114.983 62.25 109.25 62.25H86.25C80.5172 62.25 75.75 57.4828 75.75 51.75V28.75ZM18.25 86.25C18.25 80.5172 23.0172 75.75 28.75 75.75H51.75C57.4828 75.75 62.25 80.5172 62.25 86.25V109.25C62.25 114.983 57.4828 119.75 51.75 119.75H28.75C23.0172 119.75 18.25 114.983 18.25 109.25V86.25ZM75.75 86.25C75.75 80.5172 80.5172 75.75 86.25 75.75H109.25C114.983 75.75 119.75 80.5172 119.75 86.25V109.25C119.75 114.983 114.983 119.75 109.25 119.75H86.25C80.5172 119.75 75.75 114.983 75.75 109.25V86.25Z" fill="#E12217" stroke="white" stroke-width="2"/>
</svg>
