<svg width="20" height="20" viewBox="0 0 20 20" fill="none" xmlns="http://www.w3.org/2000/svg">
<path d="M3 1C1.90694 1 1 1.90694 1 3V7C1 8.09306 1.90694 9 3 9H7C8.09306 9 9 8.09306 9 7V3C9 1.90694 8.09306 1 7 1H3ZM13 1C11.9069 1 11 1.90694 11 3V7C11 8.09306 11.9069 9 13 9H17C18.0931 9 19 8.09306 19 7V3C19 1.90694 18.0931 1 17 1H13ZM3 3H7V7H3V3ZM13 3H17V7H13V3ZM3 11C1.90694 11 1 11.9069 1 13V17C1 18.0931 1.90694 19 3 19H7C8.09306 19 9 18.0931 9 17V13C9 11.9069 8.09306 11 7 11H3ZM13 11C11.9069 11 11 11.9069 11 13V17C11 18.0931 11.9069 19 13 19H17C18.0931 19 19 18.0931 19 17V13C19 11.9069 18.0931 11 17 11H13ZM3 13H7V17H3V13ZM13 13H17V17H13V13Z" fill="#192838" stroke="white" stroke-width="0.5"/>
</svg>
