<svg width="16" height="17" viewBox="0 0 16 17" fill="none" xmlns="http://www.w3.org/2000/svg">
<path d="M5.16175 0C6.7134 0 8.25688 0 9.80035 0C9.80852 0.00816655 9.82485 0.0244997 9.83302 0.0244997C10.6987 0.163331 11.2458 0.669658 11.5153 1.48631C11.6297 1.82931 11.597 2.18864 11.5888 2.54797C11.5888 2.67863 11.6052 2.72763 11.7603 2.72763C12.577 2.71946 13.3936 2.71946 14.2021 2.72763C14.2675 2.72763 14.3328 2.72763 14.39 2.7358C14.7575 2.7848 15.0188 3.08696 15.0024 3.43812C14.9861 3.81378 14.6921 4.09144 14.3083 4.09144C14.1123 4.09144 13.9163 4.09961 13.7203 4.09144C13.6223 4.08328 13.5978 4.12411 13.5978 4.21394C13.5733 4.70394 13.5406 5.19393 13.5161 5.67576C13.4508 6.92524 13.3773 8.16655 13.312 9.41604C13.2221 11.0493 13.1241 12.6745 13.0425 14.3078C12.969 15.5001 12.1115 16.3331 10.9028 16.3331C8.63254 16.3331 6.36223 16.3331 4.09193 16.3331C2.88328 16.3331 2.00946 15.4838 1.96046 14.2833C1.91963 13.2543 1.84613 12.2253 1.78896 11.1963C1.71546 9.75087 1.6338 8.30539 1.55213 6.85991C1.50313 5.97792 1.45414 5.08776 1.40514 4.20578C1.39697 4.10778 1.38064 4.07511 1.27447 4.08328C1.07031 4.09144 0.866143 4.09144 0.653813 4.08328C0.229152 4.06694 -0.064844 3.68312 0.0168215 3.26662C0.0821539 2.93179 0.35165 2.71946 0.735478 2.71946C1.42964 2.71946 2.13196 2.71946 2.82612 2.71946C3.01395 2.71946 3.20994 2.7358 3.39777 2.70313C3.39777 2.5153 3.40594 2.33563 3.40594 2.1478C3.40594 2.0988 3.40594 2.04981 3.40594 2.00081C3.44677 1.15965 3.84694 0.555326 4.59826 0.179664C4.77792 0.0979987 4.98209 0.073499 5.16175 0ZM7.48105 2.71946C8.34671 2.71946 9.22053 2.71946 10.0862 2.71946C10.2005 2.71946 10.2332 2.69496 10.225 2.58063C10.2168 2.3928 10.225 2.1968 10.2168 2.00897C10.2005 1.64964 9.93102 1.37198 9.57169 1.37198C8.18338 1.36381 6.80323 1.36381 5.41491 1.37198C5.05559 1.37198 4.78609 1.65781 4.76976 2.00897C4.76159 2.1968 4.77792 2.3928 4.76159 2.58063C4.76159 2.69496 4.79426 2.71946 4.90859 2.71946C5.76608 2.71946 6.62356 2.71946 7.48105 2.71946ZM5.45575 9.53854C5.45575 8.86888 5.45575 8.19922 5.45575 7.52956C5.45575 7.1049 5.16992 6.80274 4.77792 6.80274C4.38593 6.80274 4.09193 7.11307 4.08377 7.52956C4.08377 8.86071 4.08377 10.2 4.08377 11.5312C4.08377 11.9558 4.37776 12.258 4.76976 12.2498C5.16175 12.2498 5.44758 11.9395 5.44758 11.5148C5.45575 10.8615 5.45575 10.2 5.45575 9.53854ZM10.911 9.53854C10.911 8.89338 10.911 8.24005 10.911 7.5949C10.911 7.51323 10.9028 7.43156 10.8947 7.35807C10.8293 7.02324 10.5272 6.78641 10.1923 6.81091C9.84119 6.83541 9.54719 7.11307 9.54719 7.46423C9.53902 8.84438 9.53902 10.2245 9.54719 11.6047C9.54719 11.8497 9.66969 12.0375 9.89019 12.16C10.3557 12.4295 10.911 12.0947 10.911 11.5312C10.911 10.8615 10.911 10.2 10.911 9.53854ZM8.17521 9.53854C8.17521 8.84438 8.18338 8.15839 8.17521 7.46423C8.16704 7.08857 7.86488 6.80274 7.49739 6.80274C7.13806 6.80274 6.82773 7.08857 6.82773 7.45606C6.81956 8.83621 6.82773 10.2164 6.82773 11.5965C6.82773 11.7435 6.87673 11.8742 6.97473 11.9885C7.15439 12.2172 7.44839 12.2988 7.71788 12.209C7.98738 12.1192 8.17521 11.8742 8.18338 11.5883C8.18338 10.9105 8.17521 10.2245 8.17521 9.53854Z" fill="#F46565"/>
</svg>
