<svg width="21" height="29" viewBox="0 0 21 29" fill="none" xmlns="http://www.w3.org/2000/svg">
<path d="M8.16656 28.089C8.1384 27.9933 8.03987 27.9961 7.9723 27.9567C7.53591 27.7089 7.31068 27.2162 7.42611 26.7489C7.54999 26.2478 7.9554 25.8986 8.46499 25.8958C9.94588 25.8874 11.4239 25.8874 12.9048 25.8958C13.4341 25.8986 13.8621 26.2759 13.9634 26.7967C14.0563 27.2754 13.7945 27.7681 13.3356 27.9905C13.2765 28.0186 13.1836 27.9961 13.1582 28.089C11.4943 28.089 9.83044 28.089 8.16656 28.089Z" fill="#98A2C4"/>
<path d="M10.692 23.6998C8.51574 23.6998 6.33945 23.7026 4.16598 23.6998C2.23745 23.697 0.74812 22.1795 0.824135 20.2679C0.871996 19.122 1.40129 18.2155 2.38385 17.6214C2.84276 17.3427 3.01731 16.9852 3.0145 16.4756C3.00605 14.3077 3.00887 12.1427 3.01168 9.97487C3.0145 6.4641 5.17107 3.54174 8.52418 2.51131C8.81135 2.42404 9.10697 2.35928 9.40258 2.30861C9.5518 2.28327 9.60247 2.23822 9.59684 2.08619C9.58558 1.76806 9.59121 1.4471 9.59403 1.12615C9.60247 0.481429 10.0726 0 10.6892 0C11.3058 0 11.7788 0.481429 11.7872 1.12615C11.79 1.4471 11.7956 1.76524 11.7844 2.08619C11.7788 2.23541 11.8266 2.28327 11.9758 2.30861C14.9939 2.81256 17.4433 5.10146 18.1528 8.07168C18.302 8.69669 18.3696 9.33015 18.3696 9.97206C18.3667 12.1399 18.3724 14.3049 18.3639 16.4728C18.3611 16.9823 18.5328 17.3427 18.9946 17.6186C20.2671 18.3731 20.8386 19.8991 20.4332 21.3208C20.0363 22.7088 18.7524 23.6914 17.2997 23.697C15.0981 23.7055 12.8965 23.6998 10.692 23.6998ZM10.6639 21.5038C12.8486 21.5038 15.0333 21.5038 17.2181 21.5038C17.7699 21.5038 18.1837 21.1998 18.3245 20.7014C18.4653 20.2059 18.2738 19.7245 17.7896 19.4458C16.6775 18.8011 16.182 17.8129 16.1792 16.5628C16.1707 14.3697 16.1764 12.1737 16.1792 9.9805C16.1792 9.5779 16.1426 9.17812 16.0666 8.78115C15.526 5.90947 12.5727 3.90774 9.72353 4.47926C7.00951 5.02544 5.20767 7.2158 5.20486 9.97769C5.20204 12.1709 5.21049 14.3669 5.20204 16.56C5.19641 17.8129 4.70372 18.8039 3.58883 19.443C3.45369 19.5218 3.32982 19.6147 3.23691 19.7442C2.98353 20.099 2.9244 20.4847 3.12148 20.8788C3.32419 21.2927 3.67329 21.5038 4.13502 21.5038C6.3113 21.5066 8.48758 21.5038 10.6639 21.5038Z" fill="#98A2C4"/>
</svg>
