<svg width="53" height="53" viewBox="0 0 53 53" fill="none" xmlns="http://www.w3.org/2000/svg">
<rect width="52.9065" height="52.9065" rx="10" fill="#6E63EE"/>
<path d="M24.161 9.6871C25.6667 9.6871 27.1723 9.6871 28.6812 9.6871C28.7008 9.70682 28.7204 9.73968 28.7433 9.74297C30.5853 10.0157 31.8493 11.0476 32.6005 12.74C32.6821 12.9208 32.7703 12.9668 32.95 12.9635C33.4693 12.9537 33.9886 12.9602 34.5079 12.9602C37.3297 12.9668 39.4853 15.1226 39.4886 17.9586C39.4951 24.4687 39.4951 30.9755 39.4886 37.4856C39.4853 40.3086 37.333 42.4709 34.534 42.4709C29.1483 42.4742 23.7593 42.4709 18.3736 42.4742C18.0209 42.4742 17.6747 42.4479 17.3317 42.3723C14.9932 41.8597 13.419 39.9011 13.4157 37.4856C13.4092 35.0834 13.4157 32.6844 13.4157 30.2821C13.4157 26.1645 13.4125 22.0435 13.419 17.9258C13.4223 15.5202 15.0324 13.5419 17.3579 13.0621C18.207 12.8879 19.0693 12.9767 19.9282 12.9668C20.134 12.9635 20.2352 12.9175 20.3234 12.7105C20.9538 11.2415 22.0446 10.2918 23.5731 9.84484C23.7658 9.78898 23.9847 9.81527 24.161 9.6871ZM16.672 27.7123C16.672 30.946 16.6687 34.1797 16.672 37.4134C16.672 38.4978 17.3481 39.1978 18.403 39.1978C23.7691 39.2011 29.1385 39.2011 34.5046 39.1978C35.5334 39.1978 36.2291 38.511 36.2291 37.4725C36.2356 30.9723 36.2356 24.4753 36.2291 17.9751C36.2291 16.9333 35.5465 16.2564 34.5144 16.2399C33.9951 16.2334 33.4758 16.2498 32.9565 16.2333C32.754 16.2268 32.6756 16.3024 32.5907 16.4864C31.7873 18.2741 30.4253 19.3192 28.4657 19.4933C27.3258 19.5952 26.1762 19.5262 25.0298 19.5229C22.7893 19.5163 21.1955 18.4877 20.281 16.424C20.2189 16.2826 20.1536 16.2334 20.0034 16.2366C19.4514 16.2465 18.8994 16.2334 18.3475 16.2432C18.1711 16.2465 17.9849 16.2728 17.8151 16.3254C17.0802 16.5488 16.6687 17.1732 16.6687 18.0441C16.672 21.2679 16.672 24.4917 16.672 27.7123ZM26.4571 16.2399C26.9568 16.2399 27.4532 16.2432 27.9529 16.2399C28.1423 16.2399 28.3318 16.2366 28.5212 16.1841C29.3181 15.9507 29.8048 15.2047 29.697 14.37C29.599 13.5879 28.9164 12.9767 28.0901 12.9668C27.0286 12.9537 25.9704 12.9602 24.909 12.9635C23.9259 12.9668 23.2041 13.6668 23.2041 14.6001C23.2008 15.5432 23.9063 16.2268 24.9024 16.2399C25.4185 16.2465 25.9378 16.2399 26.4571 16.2399ZM20.4802 30.5911C21.4927 31.6065 22.5052 32.6253 23.5176 33.644C24.3668 34.4951 25.278 34.4984 26.1239 33.6506C27.1593 32.6121 28.1913 31.5704 29.2267 30.5286C30.2914 29.4573 31.3529 28.386 32.4209 27.3179C32.8879 26.8513 33.0773 26.2992 32.9075 25.6584C32.5809 24.4162 31.0818 24.035 30.151 24.9617C28.4494 26.6574 26.7575 28.363 25.0723 30.0784C24.8763 30.2789 24.7751 30.2953 24.5726 30.0817C23.9585 29.4343 23.3282 28.8 22.6848 28.1822C22.1655 27.686 21.5417 27.5841 20.8917 27.8766C20.2614 28.1592 19.9544 28.6784 19.938 29.3719C19.938 29.8582 20.1438 30.2526 20.4802 30.5911Z" fill="white"/>
</svg>
