<svg width="53" height="53" viewBox="0 0 53 53" fill="none" xmlns="http://www.w3.org/2000/svg">
<rect width="52.9065" height="52.9065" rx="10" fill="#FFBE00"/>
<path d="M19.4472 10.4323C19.916 10.5575 20.4041 10.5318 20.8826 10.6153C21.3546 10.6988 21.8235 10.7952 22.2762 10.9525C23.7822 11.476 24.5304 12.6193 24.8323 14.1126C25.1566 15.7088 25.1438 17.3242 25.0988 18.9428C25.0731 19.903 24.9832 20.8568 24.7488 21.7914C24.3121 23.532 23.1593 24.4891 21.4413 24.8263C19.8454 25.141 18.2302 25.1378 16.6118 25.0896C15.703 25.0639 14.8039 24.9772 13.9144 24.7749C12.1612 24.3799 11.1304 23.2944 10.7515 21.5537C10.5877 20.7958 10.501 20.0315 10.4721 19.2607C10.4079 17.6036 10.3854 15.9432 10.6905 14.3021C10.896 13.1942 11.2942 12.1793 12.2575 11.4888C12.98 10.9718 13.8149 10.7695 14.6723 10.6185C15.0737 10.5479 15.4943 10.5864 15.8829 10.4355C16.0274 10.4355 16.1751 10.4355 16.3196 10.4355C16.4031 10.5254 16.4866 10.5222 16.5701 10.4355C17.5302 10.4323 18.4903 10.4323 19.4472 10.4323ZM22.456 17.7706C22.44 16.7397 22.4047 15.712 22.2313 14.6875C22.0932 13.8525 21.6308 13.4222 20.8184 13.3162C20.8087 13.3162 20.7991 13.313 20.7863 13.313C18.866 13.0207 16.9393 13.0207 15.0223 13.2744C13.6993 13.4479 13.4264 13.7819 13.2562 15.1146C13.0699 16.5341 13.0924 17.9633 13.1566 19.3924C13.1823 20.0058 13.2626 20.6128 13.4231 21.2133C13.558 21.7175 13.8631 22.0098 14.364 22.1414C15.064 22.3277 15.7801 22.3919 16.4962 22.4176C17.9862 22.4722 19.4729 22.4851 20.95 22.2057C21.679 22.0676 22.0707 21.6726 22.212 20.9435C22.4111 19.8934 22.4368 18.8336 22.456 17.7706ZM42.4742 36.9658C42.3265 37.3672 42.3683 37.7976 42.2944 38.2087C42.1981 38.7418 42.0889 39.2717 41.893 39.7791C41.3632 41.1568 40.2874 41.8569 38.9034 42.1556C37.1855 42.5249 35.4451 42.4993 33.7014 42.4382C32.889 42.4093 32.083 42.3194 31.2834 42.1396C29.4627 41.7317 28.4287 40.5852 28.0755 38.7771C27.764 37.1778 27.7673 35.5656 27.8122 33.947C27.8379 33.0381 27.9278 32.1421 28.1269 31.2525C28.5315 29.4509 29.6715 28.436 31.4472 28.0795C33.0431 27.7584 34.6583 27.7648 36.2735 27.8098C37.1919 27.8355 38.1007 27.9222 38.9998 28.1245C40.7563 28.5195 41.7774 29.6146 42.1531 31.3521C42.2783 31.9334 42.3522 32.5211 42.4068 33.1152C42.4132 33.1891 42.3618 33.2854 42.4678 33.3336C42.4678 33.4781 42.4678 33.6258 42.4678 33.7703C42.3779 33.8538 42.3811 33.9373 42.4678 34.0208C42.4742 35.0068 42.4742 35.9863 42.4742 36.9658ZM30.4582 35.1192C30.4742 36.1918 30.4967 37.2645 30.7054 38.3243C30.8435 39.0212 31.2192 39.4098 31.9225 39.5543C32.9725 39.7695 34.0322 39.7952 35.095 39.7984C36.2093 39.7984 37.3236 39.7823 38.4218 39.5382C39.0415 39.4001 39.414 39.0501 39.5296 38.427C39.5489 38.3243 39.5778 38.2247 39.5938 38.122C39.8636 36.5579 39.8154 34.9843 39.7448 33.4107C39.7191 32.839 39.6356 32.2738 39.4911 31.715C39.3594 31.1947 39.0479 30.8993 38.5342 30.7644C37.8438 30.5845 37.1405 30.5171 36.4309 30.4914C34.9313 30.4368 33.4317 30.4207 31.9449 30.7033C31.2321 30.8382 30.8403 31.23 30.7022 31.943C30.4999 32.9932 30.4742 34.053 30.4582 35.1192ZM16.3196 10.4323C16.4031 10.5222 16.4866 10.519 16.5701 10.4323C16.4866 10.4323 16.4031 10.4323 16.3196 10.4323ZM42.4742 33.7736C42.3843 33.8571 42.3875 33.9406 42.4742 34.0241C42.4742 33.9406 42.4742 33.8571 42.4742 33.7736ZM17.6426 42.4736C16.5347 42.4639 15.3113 42.419 14.0975 42.1781C12.1162 41.7831 11.0309 40.5627 10.6905 38.6101C10.4047 36.9658 10.4111 35.3119 10.4753 33.6547C10.5042 32.8615 10.5941 32.0779 10.7643 31.3007C11.1657 29.483 12.3057 28.436 14.1135 28.0795C15.7191 27.7616 17.3439 27.768 18.9688 27.813C19.8647 27.8387 20.7542 27.9254 21.6308 28.1213C23.4579 28.5259 24.4791 29.6789 24.8355 31.4805C25.1502 33.0767 25.1438 34.6921 25.0988 36.3074C25.0731 37.2259 24.9832 38.1348 24.7777 39.0308C24.3763 40.7682 23.2845 41.7831 21.5601 42.1556C20.3046 42.4286 19.0362 42.4703 17.6426 42.4736ZM22.4528 35.1963C22.4432 34.175 22.4239 33.218 22.2666 32.2674C22.0803 31.1208 21.7913 30.8254 20.6418 30.6423C19.2642 30.4239 17.8802 30.4336 16.493 30.4882C15.8475 30.5139 15.2053 30.5813 14.5695 30.7066C13.8888 30.8414 13.5002 31.2108 13.3621 31.9077C13.0378 33.5488 13.102 35.2027 13.163 36.8598C13.1823 37.3705 13.269 37.8715 13.3653 38.3757C13.4938 39.0404 13.8695 39.4001 14.531 39.5414C15.6196 39.7759 16.7242 39.7952 17.8288 39.7952C18.8917 39.7952 19.9514 39.7663 21.0014 39.5511C21.7111 39.4066 22.0707 39.0019 22.2088 38.3114C22.4143 37.2581 22.4368 36.1983 22.4528 35.1963ZM36.4662 13.0882C36.4598 12.6675 36.2928 12.3174 35.9588 12.0605C35.535 11.7329 35.0629 11.6687 34.5781 11.8935C34.0579 12.1344 33.7978 12.5711 33.7945 13.1428C33.7881 14.1544 33.7849 15.166 33.7978 16.1777C33.801 16.4057 33.7335 16.4474 33.5216 16.4442C32.5197 16.4314 31.5211 16.441 30.5192 16.4378C30.182 16.4378 29.8834 16.5277 29.6201 16.7397C29.1801 17.0994 29.0196 17.6742 29.2026 18.2041C29.3953 18.7661 29.8802 19.1066 30.5256 19.1098C31.5275 19.1162 32.5294 19.1194 33.528 19.1066C33.7528 19.1033 33.801 19.1676 33.7978 19.3828C33.7849 20.3719 33.7881 21.3643 33.7945 22.3534C33.801 23.1884 34.3597 23.7729 35.1368 23.7697C35.9107 23.7697 36.4662 23.1788 36.4694 22.347C36.4726 21.3578 36.4758 20.3655 36.463 19.3763C36.4598 19.1547 36.5208 19.1033 36.7391 19.1066C37.7089 19.1194 38.6787 19.1098 39.6484 19.113C39.8475 19.113 40.0434 19.0969 40.2329 19.0327C40.8269 18.8336 41.2155 18.2202 41.1288 17.6196C41.0324 16.9388 40.5154 16.4474 39.8443 16.441C38.8135 16.4282 37.7795 16.4314 36.7488 16.441C36.5497 16.4442 36.4534 16.4249 36.463 16.1809C36.4855 15.6702 36.4694 15.1596 36.4694 14.649C36.4662 14.1319 36.4726 13.6084 36.4662 13.0882Z" fill="white"/>
</svg>
