<svg width="53" height="53" viewBox="0 0 53 53" fill="none" xmlns="http://www.w3.org/2000/svg">
<rect width="52.9065" height="52.9065" rx="10" fill="#FB5F5F"/>
<path d="M22.2778 14.9033C26.4468 14.9155 29.8167 18.3087 29.8208 22.5026C29.8208 26.6964 26.3863 30.1384 22.2334 30.1059C18.0604 30.0734 14.7107 26.672 14.7228 22.4741C14.7349 18.2681 18.1048 14.8911 22.2778 14.9033ZM22.2294 26.7208C24.5379 26.737 26.4388 24.8555 26.4549 22.5351C26.471 20.2065 24.6226 18.3128 22.298 18.2721C20.0178 18.2315 18.1008 20.1293 18.0644 22.4619C18.0281 24.762 19.929 26.7005 22.2294 26.7208Z" fill="white"/>
<path d="M22.2657 31.7843C24.4693 31.8046 26.6648 31.8737 28.8159 32.4223C31.7822 33.1781 33.8324 34.9296 34.7324 37.9328C35.027 38.9162 34.6073 39.8346 33.7032 40.1435C32.7992 40.4523 31.8427 39.9931 31.5683 39.0097C30.9347 36.7583 29.2719 35.844 27.1733 35.523C23.8881 35.015 20.5949 35.0312 17.3097 35.527C16.5994 35.6327 15.9133 35.8481 15.2555 36.1569C14.186 36.6608 13.4999 37.498 13.1044 38.5992C13.0439 38.774 12.9955 38.9487 12.9268 39.1235C12.5919 39.9972 11.6798 40.4361 10.8201 40.1435C9.96052 39.8509 9.50044 38.9487 9.75873 38.0466C10.5982 35.1247 12.5273 33.3163 15.4089 32.5036C17.6528 31.8737 19.9572 31.8086 22.2657 31.7843Z" fill="white"/>
<path d="M33.7557 28.4072C33.3683 28.4113 32.7185 28.2975 32.0808 28.0781C31.1526 27.7611 30.6723 26.863 30.9508 25.9527C31.2293 25.0546 32.1616 24.567 33.0858 24.8677C33.8082 25.1034 34.5023 25.0953 35.1763 24.7417C36.3144 24.1484 36.8229 22.7626 36.3467 21.5638C35.8785 20.3772 34.5871 19.727 33.3642 20.0602C32.9727 20.1659 32.5934 20.2959 32.1737 20.1862C31.4351 19.9911 30.9185 19.3897 30.8741 18.6379C30.8257 17.9023 31.2777 17.2278 31.992 16.9555C35.2611 15.712 38.97 17.7357 39.7368 21.1818C40.5601 24.8799 37.8077 28.3747 33.7557 28.4072Z" fill="white"/>
<path d="M35.2368 30.114C36.7826 30.2034 38.3404 30.3741 39.8094 30.9999C41.3995 31.6786 42.4932 32.8368 43.0905 34.4704C43.4457 35.4457 43.0462 36.4129 42.1421 36.7502C41.2502 37.0834 40.3179 36.6527 39.9709 35.6855C39.5834 34.6127 38.7682 34.1169 37.7391 33.8487C36.7947 33.6048 35.8301 33.5439 34.8655 33.4748C33.8283 33.3976 33.1221 32.6702 33.1665 31.7314C33.2149 30.7358 33.9857 30.0734 35.0552 30.114C35.1077 30.114 35.1602 30.114 35.2368 30.114Z" fill="white"/>
</svg>
