<svg width="29" height="25" viewBox="0 0 29 25" fill="none" xmlns="http://www.w3.org/2000/svg">
<path d="M0 9.27526C0.13754 9.04229 0.112277 8.77282 0.154381 8.5202C0.825239 4.53996 4.11497 1.25304 8.11766 0.570956C8.6201 0.483941 9.12815 0.419381 9.63621 0.419381C12.5807 0.416574 15.5224 0.391312 18.4668 0.424995C22.8035 0.472713 26.7894 3.74279 27.7325 7.97846C28.2069 10.1061 28.1058 12.1945 27.2329 14.2099C26.6069 15.6554 25.5656 16.781 24.367 17.7747C22.8204 19.0574 21.1138 20.1044 19.4184 21.1682C17.7595 22.204 16.0978 23.2342 14.4389 24.2699C14.0515 24.5113 13.6585 24.5674 13.2544 24.3401C12.853 24.1127 12.6789 23.7506 12.6902 23.2931C12.693 23.2033 12.6902 23.1106 12.6902 23.0208C12.6902 22.4286 12.693 21.8363 12.6902 21.244C12.6845 20.5732 12.2242 20.1213 11.5533 20.11C10.5344 20.0932 9.5127 20.1606 8.49659 20.0118C6.09386 19.6637 4.0869 18.5831 2.47572 16.7754C1.11716 15.2512 0.331218 13.4604 0.0673665 11.4366C0.0561387 11.3692 0.0954358 11.2822 0 11.2457C0 10.5889 0 9.93209 0 9.27526ZM14.8796 21.3956C14.9694 21.3451 15.0171 21.3226 15.062 21.2946C16.4234 20.4497 17.7847 19.6132 19.1405 18.7599C20.5047 17.9038 21.8436 17.0112 23.0983 15.9923C25.2624 14.2351 26.1129 11.9643 25.7452 9.23596C25.2287 5.42415 22.012 2.62283 18.1581 2.60598C15.3876 2.59476 12.6172 2.60318 9.84673 2.60318C9.04956 2.60318 8.26923 2.72107 7.51136 2.97089C3.65182 4.23681 1.47645 8.13003 2.41116 12.1075C3.12973 15.1698 5.91421 17.5838 9.04395 17.8729C9.9169 17.9543 10.7927 17.8926 11.6656 17.9206C12.6902 17.9543 13.5266 18.3753 14.1666 19.1753C14.6775 19.8069 14.8964 20.5451 14.8796 21.3956ZM18.0682 9.16579C18.7588 9.16579 19.25 8.71387 19.2528 8.07951C19.2556 7.43391 18.7644 6.97919 18.0542 6.97919C15.3483 6.97919 12.6424 6.97919 9.93655 6.97919C9.24605 6.97919 8.75483 7.43111 8.75202 8.06547C8.74922 8.71107 9.24043 9.16579 9.94778 9.16579C11.2951 9.16579 12.6452 9.16579 13.9926 9.16579C15.3511 9.16579 16.7097 9.1686 18.0682 9.16579ZM9.9562 11.3552C9.84673 11.3552 9.73445 11.3552 9.6306 11.3777C9.07202 11.4955 8.7015 11.998 8.75483 12.5566C8.80816 13.1208 9.27692 13.539 9.8748 13.5418C12.6256 13.5446 15.3792 13.5446 18.13 13.5418C18.2114 13.5418 18.2956 13.539 18.3742 13.5193C18.9328 13.3987 19.3033 12.8962 19.25 12.3376C19.1966 11.7819 18.7363 11.358 18.1581 11.3552C16.7827 11.3496 15.4073 11.3524 14.0319 11.3524C12.6733 11.3552 11.3148 11.3524 9.9562 11.3552Z" fill="#98A2C4"/>
</svg>
