<svg width="11" height="10" viewBox="0 0 11 10" fill="none" xmlns="http://www.w3.org/2000/svg">
<path d="M5.00911 10C2.23823 9.99969 -0.00843642 7.75428 2.38158e-05 4.99373C0.00848405 2.22661 2.2423 -0.000313309 5.00911 3.30629e-08C7.78093 0.000313375 10.026 2.24416 10.0179 5.00595C10.0097 7.77308 7.77623 10 5.00911 10ZM0.998645 5C0.998958 7.20405 2.79566 8.99856 5.0066 9.00326C7.2119 9.00764 9.01111 7.21564 9.01989 5.00533C9.02866 2.80253 7.21472 0.991101 5.00598 0.996428C2.7941 1.00207 0.998332 2.79595 0.998645 5ZM4.50306 3.98289C4.50306 4.31472 4.50275 4.64655 4.50338 4.97838C4.50369 5.12001 4.54442 5.24817 4.64626 5.34969C4.98091 5.68403 5.31681 6.0168 5.65271 6.34956C5.74484 6.44075 5.85607 6.49339 5.98674 6.49965C6.19323 6.50968 6.38155 6.39406 6.46678 6.20699C6.5542 6.01429 6.52036 5.80592 6.36369 5.6458C6.10675 5.38322 5.84573 5.12471 5.58347 4.86714C5.52926 4.81387 5.50607 4.76029 5.5067 4.68321C5.50983 4.14426 5.50889 3.60531 5.50764 3.06668C5.50764 3.00088 5.50732 2.93257 5.49134 2.86927C5.43244 2.63803 5.20182 2.47697 4.97276 2.49984C4.713 2.52554 4.51779 2.72012 4.51278 2.97581C4.50651 3.3114 4.51121 3.6473 4.51121 3.9832C4.50839 3.98289 4.50557 3.98289 4.50306 3.98289Z" fill="#505050"/>
</svg>
