<svg width="23" height="23" viewBox="0 0 23 23" fill="none" xmlns="http://www.w3.org/2000/svg">
<path d="M0.00143985 5.7291C0.00143985 4.70994 -0.00188908 3.69162 0.00227208 2.67247C0.00892995 1.08369 1.07169 0.0111594 2.6571 0.00532137C4.71521 -0.00135067 6.77332 -0.00218467 8.83144 0.00532137C10.4285 0.0111594 11.4946 1.09453 11.4962 2.69916C11.4979 4.73663 11.4979 6.77411 11.4962 8.81158C11.4946 10.4062 10.4077 11.4987 8.82062 11.5004C6.77332 11.5021 4.7252 11.5029 2.6779 11.5004C1.09832 11.4987 0.0122589 10.4229 0.00310432 8.84744C-0.00272132 7.80827 0.00143985 6.7691 0.00143985 5.7291ZM20.5435 22.9888C21.8842 22.9455 22.9528 21.8913 22.9794 20.556C23.0069 19.2049 23.0069 17.8522 22.9794 16.5011C22.9519 15.1584 21.8534 14.0817 20.511 14.0633C19.1803 14.0458 17.8495 14.045 16.5196 14.0641C15.1772 14.0842 14.0737 15.2026 14.0579 16.5495C14.0429 17.8697 14.042 19.1908 14.0579 20.511C14.0737 21.8504 15.1489 22.9438 16.4896 22.988C17.1646 23.0105 17.8412 22.9922 18.5161 22.9922C19.1919 22.993 19.8685 23.0113 20.5435 22.9888ZM22.9877 5.10693C22.9586 3.64659 21.8867 2.57823 20.4303 2.56488C19.1619 2.55321 17.8936 2.55404 16.6253 2.56488C15.1473 2.57739 14.0604 3.67828 14.0537 5.16031C14.0487 6.39797 14.0487 7.6348 14.0537 8.87246C14.0595 10.402 15.1614 11.4971 16.6944 11.5012C17.9103 11.5046 19.127 11.5046 20.3437 11.5012C21.8858 11.4971 22.9727 10.4212 22.9894 8.88164C22.996 8.26864 22.9902 7.65481 22.9902 7.04099C22.9902 6.3963 23.001 5.75161 22.9877 5.10693ZM9.08027 22.9872C10.386 22.9421 11.4655 21.8604 11.4879 20.551C11.5112 19.1999 11.5129 17.8472 11.4871 16.4961C11.4613 15.1809 10.3528 14.085 9.03783 14.065C7.6971 14.0441 6.35554 14.0441 5.01481 14.065C3.70488 14.085 2.60217 15.1559 2.57138 16.4611C2.53975 17.843 2.53892 19.2275 2.57221 20.6094C2.603 21.8896 3.67991 22.9421 4.96405 22.9872C5.64897 23.0113 6.3364 22.9913 7.02216 22.9913C7.70792 22.9913 8.39451 23.0113 9.08027 22.9872Z" fill="#CAD2EB"/>
</svg>
