<svg width="23" height="17" viewBox="0 0 23 17" fill="none" xmlns="http://www.w3.org/2000/svg">
<path d="M8.62747 16.9981C6.1808 16.9981 3.73413 17.0002 1.28674 16.9974C0.44718 16.9966 -0.137486 16.3577 0.0281211 15.6131C0.0871638 15.3476 0.190848 15.0899 0.298133 14.8379C1.01673 13.1434 2.36607 12.2 4.12583 11.7563C5.6019 11.3843 7.11036 11.3304 8.62315 11.3297C10.1352 11.329 11.643 11.3879 13.1212 11.7521C15.1373 12.2483 16.537 13.4089 17.1757 15.3916C17.4565 16.2648 16.928 16.9952 15.9956 16.9974C13.8095 17.0023 11.6235 16.9988 9.43751 16.9988C9.16678 16.9981 8.89749 16.9981 8.62747 16.9981ZM8.63107 10.1988C11.4817 10.1981 13.8131 7.90736 13.8175 5.10263C13.8218 2.28228 11.4889 -0.00849486 8.61955 2.36812e-05C5.75094 0.0092521 3.45116 2.28015 3.45476 5.10121C3.45764 7.91517 5.7783 10.2003 8.63107 10.1988ZM20.6967 4.6838C20.4144 1.72219 16.8999 0.118573 14.423 1.81731C14.2408 1.94225 14.166 2.05654 14.274 2.27518C15.2035 4.15352 15.2043 6.03612 14.2733 7.91446C14.1746 8.11393 14.2178 8.23674 14.4 8.35742C15.0905 8.81458 15.8465 9.05381 16.6796 9.05594C19.0687 9.07795 20.9235 7.05905 20.6967 4.6838ZM14.7974 10.2336C14.6023 10.2358 14.4453 10.3202 14.3949 10.5218C14.3417 10.7348 14.4237 10.9059 14.6009 11.028C14.688 11.0883 14.7902 11.1274 14.8874 11.1721C15.7724 11.5788 16.532 12.1439 17.1347 12.9042C17.3168 13.1342 17.476 13.3812 17.6624 13.6077C18.2658 14.3403 19.0175 14.7712 20.0112 14.7314C20.5764 14.7094 21.1438 14.7286 21.7098 14.7272C22.712 14.7243 23.2557 13.9207 22.8812 13.0029C22.3607 11.7272 21.3836 10.9648 20.071 10.5836C18.8685 10.2343 17.6322 10.1768 16.3887 10.2308C15.8573 10.2315 15.3274 10.2272 14.7974 10.2336Z" fill="#CAD2EB"/>
</svg>
