<svg width="23" height="23" viewBox="0 0 23 23" fill="none" xmlns="http://www.w3.org/2000/svg">
<path d="M23 10.1237C23.0021 8.60707 22.4332 7.36003 21.2753 6.39714C19.2392 4.70244 17.2038 3.00629 15.1511 1.33194C12.9395 -0.471771 9.96625 -0.434708 7.77047 1.38935C5.77391 3.04626 3.77304 4.6988 1.7736 6.35281C0.597678 7.32588 -0.00215186 8.57147 5.80032e-06 10.1114C0.0036019 12.8387 0.00144424 15.5654 0.000725021 18.2927C0.000725021 18.6379 0.020144 18.9802 0.0949429 19.3181C0.583294 21.5172 2.39501 22.988 4.64689 22.996C6.92898 23.004 9.21107 22.9975 11.4939 22.9975C13.74 22.9975 15.9861 22.9982 18.233 22.9968C18.5113 22.9968 18.7896 22.9989 19.0658 22.9517C21.4191 22.5527 22.9928 20.6902 22.9978 18.2767C23.0036 15.5596 22.9957 12.8416 23 10.1237ZM16.7147 18.4795H6.286C5.57109 18.4795 4.9914 17.8938 4.9914 17.1714C4.9914 16.4491 5.57109 15.8633 6.286 15.8633H16.7147C17.4296 15.8633 18.0093 16.4491 18.0093 17.1714C18.0093 17.8938 17.4296 18.4795 16.7147 18.4795Z" fill="#CAD2EB"/>
</svg>
