<svg width="10" height="6" viewBox="0 0 10 6" fill="none" xmlns="http://www.w3.org/2000/svg">
<path d="M5.64354 5.65522C5.73123 5.65522 5.81891 5.65522 5.90589 5.65594C6.59123 5.57652 7.18328 5.28988 7.6708 4.79096C8.34141 4.10431 9.0043 3.41045 9.66439 2.71442C10.1028 2.2516 10.1105 1.59961 9.69455 1.1664C9.27086 0.725241 8.622 0.731018 8.16955 1.196C7.54383 1.8386 6.92934 2.49348 6.30643 3.13969C5.77893 3.68698 5.12095 3.68626 4.59554 3.13969C3.96702 2.48626 3.34552 1.82633 2.71349 1.17723C2.37538 0.829935 1.94117 0.752678 1.53011 0.939682C1.13307 1.12019 0.88475 1.52885 0.905092 1.97434C0.917719 2.25593 1.02785 2.49637 1.21935 2.69637C1.90189 3.40828 2.57881 4.1267 3.27116 4.82851C3.74606 5.30937 4.33109 5.57652 4.99608 5.65594C5.08377 5.65594 5.17145 5.65522 5.25843 5.65522C5.3868 5.65522 5.51517 5.65522 5.64354 5.65522Z" fill="#98A2C3"/>
</svg>
