<svg width="18" height="18" viewBox="0 0 18 18" fill="none" xmlns="http://www.w3.org/2000/svg">
<path d="M8.203 0C8.39541 0.0761099 8.60185 0.074107 8.80228 0.108156C10.7625 0.442639 12.3559 1.39602 13.5685 2.96628C14.5426 4.22811 15.1058 5.77234 15.1439 7.36664C15.184 9.12718 14.6889 10.7075 13.6667 12.0714C13.5525 12.2257 13.5665 12.2998 13.6988 12.432C15.6269 14.3527 15.4926 14.2085 17.4188 16.1313C17.6853 16.3977 17.9459 16.6601 18 17.0827C17.8557 17.6074 17.527 17.9359 16.9497 18C16.5268 17.8678 16.2603 17.5453 15.9696 17.2549C14.0916 15.3742 14.266 15.5685 12.394 13.6838C12.2817 13.5716 12.2176 13.5696 12.0953 13.6617C10.6843 14.7153 9.0909 15.22 7.33714 15.1599C5.46313 15.0958 3.8156 14.4148 2.42662 13.125C1.19398 11.9833 0.376223 10.4511 0.107648 8.79871C-0.209031 6.86191 0.171785 5.04328 1.26613 3.39891C2.37451 1.73451 3.91982 0.660955 5.87601 0.196284C6.17465 0.126182 6.47931 0.0961389 6.77795 0.0420608C6.81402 0.0340492 6.86012 0.0520752 6.87415 0C7.3171 0 7.76005 0 8.203 0ZM1.82132 7.57494C1.80128 10.7355 4.39283 13.3353 7.57165 13.3433C10.7344 13.3513 13.2979 10.7936 13.328 7.60098C13.356 4.44242 10.7865 1.85668 7.58768 1.82263C4.43893 1.79059 1.84136 4.38033 1.82132 7.57494ZM17.9439 17.2449C17.8076 17.5974 17.5691 17.8418 17.2023 17.9479L17.9439 17.2449ZM7.62777 3.33682C7.06055 3.31879 6.63765 3.76143 6.67573 4.32825C6.7098 4.80895 7.09262 5.13942 7.63578 5.15945C8.44151 5.1895 9.08289 5.536 9.55389 6.18694C9.86055 6.60955 9.98682 7.09224 10.0029 7.613C10.0189 8.1037 10.4037 8.47424 10.8787 8.48626C11.3738 8.49827 11.7626 8.15378 11.8047 7.65105C11.8308 7.35262 11.7967 7.05219 11.7346 6.75976C11.3317 4.82497 9.77236 3.47502 7.80214 3.34884C7.74602 3.34683 7.6879 3.33882 7.62777 3.33682Z" fill="#98A2C3"/>
</svg>
