<svg width="24" height="26" viewBox="0 0 24 26" fill="none" xmlns="http://www.w3.org/2000/svg">
<g filter="url(#filter0_i_1022_5)">
<path d="M23.4955 17.951C23.3918 17.835 23.29 17.7189 23.1901 17.6069C21.8162 16.0625 20.9851 15.1305 20.9851 10.7587C20.9851 8.49527 20.4024 6.63812 19.254 5.24527C18.4073 4.21629 17.2626 3.43571 15.7539 2.85884C15.7344 2.8488 15.7171 2.83564 15.7027 2.81996C15.16 1.13112 13.675 0 12.0002 0C10.3253 0 8.84094 1.13112 8.29828 2.81821C8.28379 2.83332 8.2667 2.84607 8.24769 2.85594C4.72691 4.20295 3.01586 6.78728 3.01586 10.7569C3.01586 15.1305 2.18593 16.0625 0.810843 17.6051C0.710928 17.7171 0.609138 17.8309 0.505476 17.9493C0.237702 18.2494 0.0680456 18.6145 0.0165842 19.0015C-0.0348772 19.3884 0.0340108 19.7809 0.215096 20.1326C0.600396 20.8871 1.42158 21.3554 2.35891 21.3554H21.6483C22.5812 21.3554 23.3968 20.8876 23.7833 20.1367C23.9652 19.7849 24.0347 19.392 23.9837 19.0047C23.9327 18.6173 23.7633 18.2516 23.4955 17.951ZM12.0002 26C12.9025 25.9993 13.7879 25.7717 14.5623 25.3412C15.3368 24.9107 15.9714 24.2935 16.3989 23.555C16.4191 23.5196 16.429 23.4799 16.4278 23.4399C16.4266 23.3999 16.4143 23.3608 16.392 23.3265C16.3698 23.2923 16.3384 23.2639 16.3008 23.2442C16.2633 23.2246 16.221 23.2142 16.1779 23.2143H7.82368C7.78054 23.2141 7.7381 23.2244 7.70049 23.244C7.66288 23.2636 7.63138 23.292 7.60906 23.3263C7.58674 23.3606 7.57435 23.3997 7.57311 23.4398C7.57188 23.4798 7.58182 23.5195 7.60199 23.555C8.02946 24.2934 8.664 24.9106 9.43832 25.3411C10.2126 25.7715 11.0979 25.9992 12.0002 26Z" fill="#9FADC8"/>
</g>
<path d="M7.60199 23.555L7.7925 23.4465L7.79322 23.4461L7.80306 23.4405L7.82298 23.4292L7.82368 23.4288L8.20064 23.2143H8.1905L7.82368 23.4266L7.82298 23.427L7.80226 23.439L7.79169 23.4451L7.78944 23.4464L7.60199 23.555ZM8.56599 23.2143H8.53783C8.5631 23.2957 8.57537 23.3822 8.57264 23.4707C8.56809 23.6176 8.52259 23.7559 8.44722 23.8717C8.37226 23.9869 8.27214 24.0737 8.16317 24.1305C8.1226 24.1517 8.08075 24.1688 8.03819 24.1819C8.04714 24.1927 8.05613 24.2035 8.06518 24.2143H9.52601C9.13961 23.9359 8.81483 23.5962 8.56599 23.2143ZM12.0003 25C12 25 11.9997 25 11.9994 25L12.0002 26L12.001 25C12.0008 25 12.0005 25 12.0003 25ZM14.4749 24.2143H15.9358C15.9448 24.2035 15.9538 24.1927 15.9627 24.1819C15.9198 24.1687 15.8775 24.1514 15.8366 24.1299C15.7278 24.0729 15.6279 23.986 15.5532 23.8709C15.478 23.7551 15.4327 23.6169 15.4283 23.4701C15.4256 23.3819 15.4379 23.2955 15.4631 23.2143H15.4349C15.1861 23.5962 14.8613 23.9359 14.4749 24.2143ZM15.8104 23.2143H15.8003L16.1779 23.4292L16.1781 23.4293L16.1979 23.4406L16.2077 23.4461L16.2084 23.4465L16.3989 23.5549L16.2115 23.4464L16.2093 23.4451L16.1987 23.4391L16.1781 23.4271L16.1779 23.427L15.8104 23.2143ZM22.4429 18.2715L22.4438 18.2725L23.4955 17.951L22.7488 18.6162C22.7489 18.6163 22.7489 18.6164 22.749 18.6165C22.8877 18.7722 22.9683 18.953 22.9923 19.1353C23.0163 19.3172 22.9844 19.5045 22.895 19.6774L22.8942 19.679C22.6989 20.0584 22.2522 20.3554 21.6483 20.3554H2.35891C1.74766 20.3554 1.29865 20.0556 1.10569 19.6778L1.10416 19.6748C1.01519 19.502 0.983692 19.315 1.00786 19.1333C1.03208 18.9512 1.11288 18.7706 1.25164 18.615L1.25168 18.6151L1.25784 18.608C1.3454 18.508 1.43151 18.4115 1.51979 18.3126L1.55709 18.2708L1.55731 18.2706L1.5922 18.2314C2.26005 17.4824 2.91542 16.7474 3.36064 15.6061C3.80661 14.4628 4.01586 12.991 4.01586 10.7569C4.01586 8.91535 4.41183 7.48269 5.14527 6.37503C5.87582 5.27174 6.99814 4.40469 8.60502 3.78992L8.65812 3.7696L8.70857 3.7434C8.82236 3.68431 8.92813 3.60621 9.02008 3.51031L9.17965 3.3439L9.25024 3.12442C9.67069 1.81728 10.7938 1 12.0002 1C13.2065 1 14.3301 1.81722 14.7506 3.12588L14.818 3.33567L14.9674 3.4977C15.0628 3.60124 15.1742 3.6849 15.2946 3.74715L15.3444 3.77288L15.3967 3.79289C16.7777 4.32092 17.7663 5.01118 18.4819 5.8807L18.4825 5.88142C19.4487 7.05333 19.9851 8.66668 19.9851 10.7587C19.9851 12.9921 20.1947 14.4634 20.6408 15.6066C21.0855 16.7461 21.7395 17.481 22.4055 18.2294C22.418 18.2434 22.4304 18.2575 22.4429 18.2715Z" stroke="#9FADC8" stroke-width="2"/>
<defs>
<filter id="filter0_i_1022_5" x="0" y="0" width="24" height="27" filterUnits="userSpaceOnUse" color-interpolation-filters="sRGB">
<feFlood flood-opacity="0" result="BackgroundImageFix"/>
<feBlend mode="normal" in="SourceGraphic" in2="BackgroundImageFix" result="shape"/>
<feColorMatrix in="SourceAlpha" type="matrix" values="0 0 0 0 0 0 0 0 0 0 0 0 0 0 0 0 0 0 127 0" result="hardAlpha"/>
<feOffset dy="1"/>
<feGaussianBlur stdDeviation="0.5"/>
<feComposite in2="hardAlpha" operator="arithmetic" k2="-1" k3="1"/>
<feColorMatrix type="matrix" values="0 0 0 0 0 0 0 0 0 0 0 0 0 0 0 0 0 0 0.3 0"/>
<feBlend mode="normal" in2="shape" result="effect1_innerShadow_1022_5"/>
</filter>
</defs>
</svg>
