<svg width="29" height="29" viewBox="0 0 29 29" fill="none" xmlns="http://www.w3.org/2000/svg">
<path d="M27 12.1817C27 15.5343 27 18.887 27 22.2397C26.9114 22.3356 26.9271 22.4628 26.9049 22.5764C26.5135 24.6142 24.854 25.9982 22.7908 25.9989C17.251 26.0002 11.7112 26.0008 6.17144 25.9982C4.19351 25.9976 2.49432 24.6057 2.08857 22.6703C2.07164 22.5907 2.09248 22.4889 2 22.4348C2 19.0005 2 15.5663 2 12.1327C2.08792 12.0936 2.05731 12.0048 2.07034 11.9415C2.25856 11.0182 2.70989 10.2515 3.40807 9.61919C6.16949 7.11807 8.92766 4.61303 11.6871 2.10929C12.2205 1.62577 12.8379 1.29755 13.5342 1.11484C13.6618 1.08157 13.8057 1.09788 13.9145 1C14.2727 1 14.6309 1 14.9885 1C14.9963 1.01305 15.0028 1.03654 15.0113 1.03785C15.9771 1.15269 16.7704 1.60685 17.4796 2.25285C20.2098 4.74027 22.9471 7.21986 25.6825 9.70206C26.225 10.1947 26.6001 10.7924 26.8118 11.4926C26.8802 11.721 26.9375 11.952 27 12.1817ZM14.4479 23.6034C17.182 23.6034 19.916 23.6047 22.6501 23.6028C23.6277 23.6021 24.3643 22.9059 24.3669 21.9558C24.3747 18.9124 24.3727 15.8691 24.3669 12.8257C24.3656 12.2691 24.1253 11.7895 23.7254 11.4241C21.0219 8.95492 18.2976 6.50861 15.6039 4.02967C14.8843 3.36736 13.8513 3.52657 13.2782 4.04207C12.455 4.78138 11.6383 5.52787 10.819 6.27174C8.90291 8.01007 6.9901 9.75231 5.06687 11.4828C4.8005 11.7223 4.60577 11.9807 4.54455 12.3324C4.50808 12.5412 4.4957 12.7513 4.4957 12.964C4.49766 15.9017 4.49635 18.8394 4.497 21.7764C4.497 22.9046 5.19387 23.6034 6.31863 23.6034C9.0286 23.6034 11.7386 23.6034 14.4479 23.6034Z" fill="url(#paint0_linear_313_346)"/>
<g filter="url(#filter0_d_313_346)">
<path d="M27 12.1817C27 15.5343 27 18.887 27 22.2397C26.9114 22.3356 26.9271 22.4628 26.9049 22.5764C26.5135 24.6142 24.854 25.9982 22.7908 25.9989C17.251 26.0002 11.7112 26.0008 6.17144 25.9982C4.19351 25.9976 2.49432 24.6057 2.08857 22.6703C2.07164 22.5907 2.09248 22.4889 2 22.4348C2 19.0005 2 15.5663 2 12.1327C2.08792 12.0936 2.05731 12.0048 2.07034 11.9415C2.25856 11.0182 2.70989 10.2515 3.40807 9.61919C6.16949 7.11807 8.92765 4.61303 11.6871 2.10929C12.2205 1.62577 12.8379 1.29755 13.5342 1.11484C13.6618 1.08157 13.8057 1.09788 13.9145 1C14.2727 1 14.6309 1 14.9885 1C14.9963 1.01305 15.0028 1.03654 15.0113 1.03785C15.9771 1.15269 16.7704 1.60685 17.4796 2.25285C20.2098 4.74027 22.9471 7.21986 25.6825 9.70206C26.225 10.1947 26.6001 10.7924 26.8118 11.4926C26.8802 11.721 26.9375 11.952 27 12.1817Z" fill="url(#paint1_linear_313_346)"/>
</g>
<defs>
<filter id="filter0_d_313_346" x="0" y="0" width="29" height="29" filterUnits="userSpaceOnUse" color-interpolation-filters="sRGB">
<feFlood flood-opacity="0" result="BackgroundImageFix"/>
<feColorMatrix in="SourceAlpha" type="matrix" values="0 0 0 0 0 0 0 0 0 0 0 0 0 0 0 0 0 0 127 0" result="hardAlpha"/>
<feOffset dy="1"/>
<feGaussianBlur stdDeviation="1"/>
<feComposite in2="hardAlpha" operator="out"/>
<feColorMatrix type="matrix" values="0 0 0 0 0.556863 0 0 0 0 0.6 0 0 0 0 0.686275 0 0 0 1 0"/>
<feBlend mode="normal" in2="BackgroundImageFix" result="effect1_dropShadow_313_346"/>
<feBlend mode="normal" in="SourceGraphic" in2="effect1_dropShadow_313_346" result="shape"/>
</filter>
<linearGradient id="paint0_linear_313_346" x1="14.5" y1="1" x2="14.5" y2="26" gradientUnits="userSpaceOnUse">
<stop stop-color="#8F9CB6"/>
<stop offset="1" stop-color="#8C95A7"/>
</linearGradient>
<linearGradient id="paint1_linear_313_346" x1="14.5" y1="1" x2="14.5" y2="26" gradientUnits="userSpaceOnUse">
<stop stop-color="#8F9CB6"/>
<stop offset="1" stop-color="#8C95A7"/>
</linearGradient>
</defs>
</svg>
