<svg width="25" height="25" viewBox="0 0 25 25" fill="none" xmlns="http://www.w3.org/2000/svg">
<path d="M25 11.1817C25 14.5343 25 17.887 25 21.2397C24.9114 21.3356 24.9271 21.4628 24.9049 21.5764C24.5135 23.6142 22.854 24.9982 20.7908 24.9989C15.251 25.0002 9.71122 25.0008 4.17144 24.9982C2.19351 24.9976 0.494321 23.6057 0.088574 21.6703C0.0716407 21.5907 0.0924816 21.4889 0 21.4348C0 18.0005 0 14.5663 0 11.1327C0.0879227 11.0936 0.0573126 11.0048 0.0703381 10.9415C0.258558 10.0182 0.709894 9.25149 1.40807 8.61919C4.16949 6.11807 6.92766 3.61303 9.68712 1.10929C10.2205 0.625771 10.8379 0.297551 11.5342 0.114844C11.6618 0.0815655 11.8057 0.0978786 11.9145 0C12.2727 0 12.6309 0 12.9885 0C12.9963 0.0130505 13.0028 0.0365414 13.0113 0.0378464C13.9771 0.152691 14.7704 0.606848 15.4796 1.25285C18.2098 3.74027 20.9471 6.21986 23.6825 8.70206C24.225 9.19472 24.6001 9.79243 24.8118 10.4926C24.8802 10.721 24.9375 10.952 25 11.1817ZM12.4479 22.6034C15.182 22.6034 17.916 22.6047 20.6501 22.6028C21.6277 22.6021 22.3643 21.9059 22.3669 20.9558C22.3747 17.9124 22.3727 14.8691 22.3669 11.8257C22.3656 11.2691 22.1253 10.7895 21.7254 10.4241C19.0219 7.95492 16.2976 5.50861 13.6039 3.02967C12.8843 2.36736 11.8513 2.52657 11.2782 3.04207C10.455 3.78138 9.63828 4.52787 8.81897 5.27174C6.90291 7.01007 4.9901 8.75231 3.06687 10.4828C2.8005 10.7223 2.60577 10.9807 2.54455 11.3324C2.50808 11.5412 2.4957 11.7513 2.4957 11.964C2.49766 14.9017 2.49635 17.8394 2.497 20.7764C2.497 21.9046 3.19387 22.6034 4.31863 22.6034C7.0286 22.6034 9.73858 22.6034 12.4479 22.6034Z" fill="url(#paint0_linear_313_346)"/>
<path d="M25 11.1817C25 14.5343 25 17.887 25 21.2397C24.9114 21.3356 24.9271 21.4628 24.9049 21.5764C24.5135 23.6142 22.854 24.9982 20.7908 24.9989C15.251 25.0002 9.71122 25.0008 4.17144 24.9982C2.19351 24.9976 0.494321 23.6057 0.088574 21.6703C0.0716407 21.5907 0.0924816 21.4889 0 21.4348C0 18.0005 0 14.5663 0 11.1327C0.0879227 11.0936 0.0573126 11.0048 0.0703381 10.9415C0.258558 10.0182 0.709894 9.25149 1.40807 8.61919C4.16949 6.11807 6.92765 3.61303 9.68712 1.10929C10.2205 0.625771 10.8379 0.297551 11.5342 0.114844C11.6618 0.0815655 11.8057 0.0978786 11.9145 0C12.2727 0 12.6309 0 12.9885 0C12.9963 0.0130505 13.0028 0.0365414 13.0113 0.0378464C13.9771 0.152691 14.7704 0.606848 15.4796 1.25285C18.2098 3.74027 20.9471 6.21986 23.6825 8.70206C24.225 9.19472 24.6001 9.79243 24.8118 10.4926C24.8802 10.721 24.9375 10.952 25 11.1817Z" fill="url(#paint1_linear_313_346)"/>
<defs>
<linearGradient id="paint0_linear_313_346" x1="12.5" y1="0" x2="12.5" y2="25" gradientUnits="userSpaceOnUse">
<stop stop-color="#8F9CB6"/>
<stop offset="1" stop-color="#8C95A7"/>
</linearGradient>
<linearGradient id="paint1_linear_313_346" x1="12.5" y1="0" x2="12.5" y2="25" gradientUnits="userSpaceOnUse">
<stop stop-color="#8F9CB6"/>
<stop offset="1" stop-color="#8C95A7"/>
</linearGradient>
</defs>
</svg>
