<svg width="26" height="25" viewBox="0 0 26 25" fill="none" xmlns="http://www.w3.org/2000/svg">
<g filter="url(#filter0_i_313_349)">
<path d="M0 19.8189C0 17.4103 0 15.0025 0 12.5939C0.0841552 12.562 0.0489274 12.483 0.0619748 12.4256C0.517326 10.4124 1.69419 9.07376 3.71914 8.53099C3.85679 8.4938 3.86657 8.42335 3.86592 8.30788C3.86266 7.46176 3.85614 6.61564 3.86657 5.77018C3.89919 3.06416 5.82237 0.71956 8.47162 0.136997C8.66407 0.0945931 8.87152 0.108945 9.04832 0C12.6187 0 16.1891 0 19.7595 0C19.7686 0.0384896 19.798 0.0430562 19.8319 0.046318C22.3259 0.321616 24.3607 2.1515 24.9041 4.59918C24.9504 4.80663 24.9426 5.02713 25.0417 5.22284C25.0417 10.0882 25.0417 14.9535 25.0417 19.8189C24.9647 19.8443 24.9948 19.9128 24.9863 19.9631C24.4924 22.8974 22.1296 24.9765 19.2161 24.9876C14.7441 25.0045 10.2722 25.0039 5.80084 24.9869C3.07199 24.9765 0.724779 23.0468 0.136997 20.3936C0.0952454 20.2018 0.109597 19.995 0 19.8189ZM3.86396 10.5227C3.79351 10.5475 3.75567 10.5592 3.71979 10.5735C2.65643 11.0087 1.96362 12.0538 1.95906 13.2659C1.95188 15.2099 1.95318 17.154 1.95775 19.0987C1.96297 21.3141 3.68913 23.0363 5.9137 23.039C10.3152 23.0435 14.7161 23.0429 19.1176 23.039C21.3578 23.037 23.0833 21.3161 23.0846 19.085C23.0879 14.6926 23.0879 10.2996 23.0846 5.90717C23.0833 3.67478 21.3591 1.95579 19.1189 1.95318C16.0051 1.94927 12.8921 1.95253 9.77831 1.95123C9.50823 1.95123 9.24076 1.97145 8.97721 2.02755C7.09057 2.42745 5.82171 3.9853 5.82106 5.91565C5.81845 10.3165 5.82041 14.7174 5.82041 19.1182C5.82041 19.2076 5.82367 19.2976 5.81715 19.3864C5.77018 20.0192 5.20653 20.423 4.59135 20.2657C4.12491 20.1464 3.86527 19.7863 3.86462 19.2435C3.86331 17.0307 3.86396 14.8185 3.86396 12.6057C3.86396 11.9233 3.86396 11.2403 3.86396 10.5227ZM14.6228 7.27323C16.4481 7.27323 18.2734 7.27453 20.0987 7.27258C20.7204 7.27192 21.1673 6.81201 21.1269 6.22488C21.0903 5.6932 20.6611 5.32135 20.0766 5.32135C16.5401 5.3207 13.0036 5.3207 9.46713 5.3207C9.2225 5.3207 8.97786 5.31417 8.73388 5.32331C8.28635 5.33962 7.9419 5.60382 7.82513 6.00764C7.63138 6.67762 8.08347 7.26931 8.80498 7.27127C10.6871 7.27584 12.5698 7.27258 14.4519 7.27258C14.5093 7.27323 14.566 7.27323 14.6228 7.27323ZM20.1333 12.4961C20.635 12.4948 20.999 12.2443 21.1269 11.8235C21.3298 11.1568 20.8796 10.5501 20.1646 10.5461C19.0484 10.539 17.9322 10.5442 16.816 10.5442C15.602 10.5442 14.3879 10.5429 13.1739 10.5448C12.6716 10.5455 12.3075 10.796 12.1803 11.2168C11.9781 11.8822 12.4289 12.4902 13.1426 12.4948C14.3077 12.5019 15.4728 12.4967 16.6379 12.4967C17.8031 12.4967 18.9682 12.498 20.1333 12.4961ZM16.4625 14.4499C15.8342 14.4525 15.4121 14.8452 15.4102 15.4226C15.4082 15.9999 15.831 16.3998 16.4566 16.4011C17.6863 16.4044 18.9167 16.4037 20.1464 16.4011C20.74 16.3998 21.1758 15.9849 21.1778 15.4285C21.1791 14.8707 20.7439 14.4525 20.1529 14.4499C19.5338 14.4473 18.9147 14.4493 18.2956 14.4493C17.6843 14.4493 17.0731 14.4473 16.4625 14.4499ZM8.82977 14.4499C8.2022 14.4532 7.78077 14.8472 7.78012 15.4252C7.78012 16.0019 8.20285 16.3998 8.82912 16.4011C10.0425 16.4037 11.2566 16.4037 12.47 16.4011C13.063 16.3998 13.4981 15.983 13.4988 15.4258C13.4988 14.8681 13.0636 14.4525 12.4706 14.4499C11.8678 14.4473 11.2651 14.4493 10.6623 14.4493C10.0517 14.4493 9.44104 14.4473 8.82977 14.4499ZM10.6453 20.3068C11.2559 20.3068 11.8672 20.3095 12.4778 20.3062C13.0675 20.3029 13.502 19.8809 13.4981 19.3224C13.4942 18.7744 13.063 18.3569 12.4869 18.355C11.2651 18.3517 10.0432 18.355 8.82129 18.353C8.67255 18.353 8.52903 18.3739 8.39138 18.4261C7.9693 18.5853 7.71358 19.0373 7.79121 19.4829C7.87536 19.9683 8.23677 20.2931 8.73909 20.3023C9.3745 20.314 10.0099 20.3049 10.6453 20.3049C10.6453 20.3062 10.6453 20.3068 10.6453 20.3068ZM18.1925 20.3055C18.7477 20.2951 19.1717 19.8698 19.1724 19.3316C19.173 18.7921 18.7483 18.3621 18.1945 18.3563C17.6002 18.3498 17.0052 18.3498 16.4109 18.3563C15.8238 18.3628 15.4108 18.7699 15.4102 19.3296C15.4095 19.888 15.8225 20.2945 16.409 20.3062C16.7019 20.3121 16.9954 20.3075 17.2884 20.3075C17.5897 20.3068 17.8911 20.3114 18.1925 20.3055ZM7.77751 11.4099C7.77164 12.0759 8.31114 12.6337 8.96807 12.6422C9.67002 12.6513 10.2174 12.1177 10.2174 11.4229C10.2174 10.7366 9.68633 10.2076 8.99352 10.203C8.33463 10.1991 7.78338 10.7464 7.77751 11.4099Z" fill="#9FADC8"/>
</g>
<defs>
<filter id="filter0_i_313_349" x="0" y="0" width="25.0417" height="26" filterUnits="userSpaceOnUse" color-interpolation-filters="sRGB">
<feFlood flood-opacity="0" result="BackgroundImageFix"/>
<feBlend mode="normal" in="SourceGraphic" in2="BackgroundImageFix" result="shape"/>
<feColorMatrix in="SourceAlpha" type="matrix" values="0 0 0 0 0 0 0 0 0 0 0 0 0 0 0 0 0 0 127 0" result="hardAlpha"/>
<feOffset dy="1"/>
<feGaussianBlur stdDeviation="0.5"/>
<feComposite in2="hardAlpha" operator="arithmetic" k2="-1" k3="1"/>
<feColorMatrix type="matrix" values="0 0 0 0 0 0 0 0 0 0 0 0 0 0 0 0 0 0 0.3 0"/>
<feBlend mode="normal" in2="shape" result="effect1_innerShadow_313_349"/>
</filter>
</defs>
</svg>
