<svg width="30" height="29" viewBox="0 0 30 29" fill="none" xmlns="http://www.w3.org/2000/svg">
<g filter="url(#filter0_d_331_56)">
<path d="M26.9047 5.59918C26.3607 3.1515 24.3259 1.32162 21.8319 1.04632C21.798 1.0424 21.7687 1.03849 21.7595 1C18.1891 1 14.6187 1 11.0483 1C10.8715 1.10829 10.6641 1.09459 10.4716 1.137C7.82237 1.71956 5.89919 4.06416 5.86657 6.77018C5.85614 7.6163 5.86266 8.46242 5.86592 9.30788C5.86657 9.424 5.85679 9.49446 5.71914 9.53099C3.69419 10.0731 2.51733 11.4124 2.06197 13.4256C2.04893 13.4824 2.08416 13.5613 2 13.5939C2 16.0025 2 18.4103 2 20.8189C2.1096 20.995 2.09525 21.2018 2.13765 21.3936C2.72543 24.0468 5.07264 25.9765 7.80149 25.9869C12.2735 26.0045 16.7454 26.0045 21.2167 25.9876C24.1302 25.9765 26.4924 23.8974 26.9869 20.9631C26.9954 20.9128 26.9654 20.8443 27.0424 20.8189C27.0424 15.9535 27.0424 11.0882 27.0424 6.22284C26.9426 6.02713 26.9504 5.80729 26.9047 5.59918ZM9.82448 7.00829C9.94125 6.60448 10.2857 6.34027 10.7332 6.32396C10.9772 6.31483 11.2218 6.32135 11.4665 6.32135C15.003 6.32135 18.5394 6.3207 22.0759 6.322C22.6611 6.322 23.0897 6.69385 23.1262 7.22553C23.1667 7.81331 22.7205 8.27258 22.0981 8.27323C20.2728 8.27519 18.4475 8.27388 16.6221 8.27388C16.5654 8.27388 16.508 8.27388 16.4512 8.27388C14.5691 8.27388 12.6864 8.27714 10.8043 8.27258C10.0835 8.26997 9.63138 7.67827 9.82448 7.00829ZM14.4713 15.4499C15.0636 15.4525 15.4994 15.8681 15.4994 16.4258C15.4994 16.983 15.0643 17.3998 14.4706 17.4011C13.2572 17.4037 12.0432 17.4037 10.8298 17.4011C10.2035 17.3998 9.78077 17.0019 9.78077 16.4252C9.78077 15.8472 10.2029 15.4532 10.8304 15.4499C11.441 15.4473 12.0523 15.4493 12.6629 15.4493C13.2657 15.4493 13.8685 15.4473 14.4713 15.4499ZM10.9935 11.203C11.6863 11.2069 12.2174 11.7366 12.2174 12.4229C12.2174 13.1177 11.67 13.6513 10.9681 13.6422C10.3105 13.6331 9.77164 13.0759 9.77751 12.4099C9.78338 11.7464 10.3346 11.1991 10.9935 11.203ZM14.4785 21.3062C13.8678 21.3095 13.2566 21.3069 12.646 21.3069C12.646 21.3062 12.646 21.3062 12.646 21.3055C12.0106 21.3055 11.3752 21.3147 10.7397 21.3029C10.2374 21.2938 9.87602 20.9683 9.79186 20.4836C9.71423 20.038 9.97061 19.5859 10.392 19.4267C10.5303 19.3745 10.6739 19.3537 10.8219 19.3537C12.0438 19.3556 13.2657 19.3524 14.4876 19.3556C15.0636 19.3569 15.4955 19.7751 15.4988 20.3231C15.5027 20.8809 15.0682 21.3029 14.4785 21.3062ZM15.1426 13.4948C14.4289 13.4902 13.9787 12.8822 14.1803 12.2168C14.3082 11.796 14.6722 11.5461 15.1739 11.5448C16.3879 11.5422 17.602 11.5442 18.816 11.5442C19.9322 11.5442 21.0484 11.539 22.1646 11.5462C22.8796 11.5507 23.3291 12.1568 23.1269 12.8235C22.999 13.2443 22.6343 13.4948 22.1333 13.4961C20.9682 13.4987 19.8031 13.4967 18.6379 13.4967C17.4728 13.4967 16.3077 13.5019 15.1426 13.4948ZM20.1925 21.3055C19.8911 21.3114 19.5897 21.3069 19.2884 21.3069C18.9954 21.3069 18.7019 21.3114 18.409 21.3055C17.8225 21.2938 17.4095 20.8874 17.4102 20.329C17.4108 19.7699 17.8238 19.3621 18.4109 19.3556C19.0052 19.3491 19.6002 19.3491 20.1945 19.3556C20.7477 19.3615 21.1724 19.7921 21.1724 20.3309C21.1717 20.8704 20.747 21.2951 20.1925 21.3055ZM22.1464 17.4011C20.9167 17.4037 19.6863 17.4037 18.4566 17.4011C17.8316 17.3998 17.4089 16.9999 17.4102 16.4226C17.4122 15.8452 17.8342 15.4532 18.4625 15.4499C19.0731 15.4473 19.6843 15.4493 20.295 15.4493C20.9141 15.4493 21.5331 15.4473 22.1522 15.4499C22.7439 15.4525 23.1791 15.87 23.1771 16.4285C23.1765 16.9849 22.7407 17.3998 22.1464 17.4011Z" fill="url(#paint0_linear_331_56)"/>
</g>
<defs>
<filter id="filter0_d_331_56" x="0" y="0" width="29.0424" height="29.0002" filterUnits="userSpaceOnUse" color-interpolation-filters="sRGB">
<feFlood flood-opacity="0" result="BackgroundImageFix"/>
<feColorMatrix in="SourceAlpha" type="matrix" values="0 0 0 0 0 0 0 0 0 0 0 0 0 0 0 0 0 0 127 0" result="hardAlpha"/>
<feOffset dy="1"/>
<feGaussianBlur stdDeviation="1"/>
<feComposite in2="hardAlpha" operator="out"/>
<feColorMatrix type="matrix" values="0 0 0 0 0.556863 0 0 0 0 0.6 0 0 0 0 0.686275 0 0 0 1 0"/>
<feBlend mode="normal" in2="BackgroundImageFix" result="effect1_dropShadow_331_56"/>
<feBlend mode="normal" in="SourceGraphic" in2="effect1_dropShadow_331_56" result="shape"/>
</filter>
<linearGradient id="paint0_linear_331_56" x1="14.5212" y1="1" x2="14.5212" y2="26.0002" gradientUnits="userSpaceOnUse">
<stop stop-color="#8F9CB6"/>
<stop offset="1" stop-color="#8C95A7"/>
</linearGradient>
</defs>
</svg>
