<svg width="21" height="25" viewBox="0 0 21 25" fill="none" xmlns="http://www.w3.org/2000/svg">
<g filter="url(#filter0_i_331_59)">
<path d="M10.2316 24.9978C7.98684 24.9978 5.74277 25.0014 3.49799 24.9964C1.81636 24.9929 0.437254 23.9178 0.0949631 22.3069C-0.134415 21.2282 0.065847 20.1802 0.543776 19.2054C1.57136 17.1107 3.27429 15.9623 5.60571 15.9203C8.70053 15.8641 11.7975 15.8897 14.8937 15.9118C17.9154 15.9331 20.413 18.4483 20.4542 21.4673C20.4812 23.456 18.9856 24.9879 16.9908 24.995C14.7382 25.0042 12.4849 24.9978 10.2316 24.9978ZM10.2281 22.721C12.4714 22.721 14.7148 22.7217 16.9581 22.7203C17.7272 22.7196 18.1966 22.2336 18.176 21.4645C18.1285 19.6629 16.6613 18.2007 14.8284 18.1886C11.7691 18.1687 8.70976 18.1716 5.65116 18.1872C3.94822 18.1965 2.57267 19.4274 2.31275 21.1066C2.13451 22.2542 2.79565 22.7502 3.71104 22.7331C5.88267 22.694 8.05572 22.721 10.2281 22.721ZM10.2288 13.63C6.41244 13.6086 3.39502 10.5519 3.42129 6.73396C3.44615 3.02127 6.54452 -0.0268591 10.2664 0.000178496C14.055 0.0279276 17.0725 3.10025 17.0483 6.90472C17.0249 10.6117 13.9428 13.6513 10.2288 13.63ZM14.7702 6.82717C14.7844 4.32975 12.7654 2.29553 10.2558 2.27632C7.75888 2.25782 5.70797 4.28563 5.69732 6.78234C5.68738 9.30751 7.70917 11.3588 10.2124 11.3624C12.7342 11.3673 14.756 9.35447 14.7702 6.82717Z" fill="#9FADC8"/>
</g>
<defs>
<filter id="filter0_i_331_59" x="0" y="0" width="20.4545" height="26" filterUnits="userSpaceOnUse" color-interpolation-filters="sRGB">
<feFlood flood-opacity="0" result="BackgroundImageFix"/>
<feBlend mode="normal" in="SourceGraphic" in2="BackgroundImageFix" result="shape"/>
<feColorMatrix in="SourceAlpha" type="matrix" values="0 0 0 0 0 0 0 0 0 0 0 0 0 0 0 0 0 0 127 0" result="hardAlpha"/>
<feOffset dy="1"/>
<feGaussianBlur stdDeviation="0.5"/>
<feComposite in2="hardAlpha" operator="arithmetic" k2="-1" k3="1"/>
<feColorMatrix type="matrix" values="0 0 0 0 0 0 0 0 0 0 0 0 0 0 0 0 0 0 0.3 0"/>
<feBlend mode="normal" in2="shape" result="effect1_innerShadow_331_59"/>
</filter>
</defs>
</svg>
