<svg width="27" height="26" viewBox="0 0 27 26" fill="none" xmlns="http://www.w3.org/2000/svg">
<path d="M9.1278 0.00445778C9.77476 0.0154854 10.199 0.245595 10.5423 0.656557C11.24 1.49318 12.1376 1.93502 13.2301 1.93429C14.2681 1.93429 15.1349 1.52627 15.8252 0.752864C16.5347 -0.0418582 17.0699 -0.167573 18.0712 0.221334C19.3636 0.724193 20.5377 1.42555 21.6059 2.30555C22.2102 2.80253 22.3947 3.46198 22.1411 4.2023C21.4089 6.34165 22.6102 8.4119 24.8252 8.82654C25.6376 8.97872 26.0912 9.44335 26.2456 10.2542C26.5294 11.7496 26.5044 13.242 26.2235 14.7337C26.0883 15.449 25.5391 15.9643 24.8024 16.0724C22.555 16.404 21.2479 18.6102 22.0448 20.7268C22.3528 21.545 22.1727 22.2023 21.4912 22.7551C20.4745 23.58 19.36 24.2417 18.1484 24.7386C17.4022 25.0445 16.6773 24.8614 16.1752 24.238C14.6445 22.3405 12.0707 22.3721 10.5879 24.3071C10.0872 24.9607 9.37482 25.165 8.60804 24.8754C7.24208 24.3593 5.99596 23.6366 4.86821 22.711C4.26684 22.2177 4.1073 21.4965 4.42857 20.7275C5.15125 18.9984 4.44916 17.0855 2.79502 16.2687C2.39508 16.0709 1.96795 15.9812 1.53052 15.9158C0.804904 15.807 0.274108 15.2571 0.159421 14.5366C-0.0758344 13.0648 -0.0471626 11.5989 0.221911 10.1344C0.369681 9.3294 0.912239 8.81478 1.74666 8.71038C3.53754 8.48689 4.81454 7.0261 4.79249 5.22566C4.78734 4.81837 4.69544 4.42873 4.55723 4.04718C4.27345 3.26422 4.47121 2.58418 5.12919 2.07103C6.19152 1.24249 7.35604 0.597008 8.61759 0.125026C8.81609 0.0515089 9.019 -0.00215878 9.1278 0.00445778ZM17.6338 12.5031C17.6433 10.1035 15.6731 8.11269 13.2764 8.10019C10.8253 8.08769 8.82565 10.0396 8.81609 12.4554C8.8058 14.9005 10.7614 16.8892 13.1874 16.9002C15.6414 16.9105 17.6235 14.9513 17.6338 12.5031Z" fill="#9FADC8"/>
</svg>
