<svg width="27" height="25" viewBox="0 0 27 25" fill="none" xmlns="http://www.w3.org/2000/svg">
<g filter="url(#filter0_i_331_62)">
<path d="M13.249 7.11192C13.2453 7.11192 13.2417 7.11192 13.2381 7.11192C10.2619 7.11192 7.83217 9.49603 7.82058 12.4316C7.81478 13.8896 8.36914 15.2578 9.38148 16.2839C10.3945 17.3107 11.7497 17.8781 13.199 17.8824C13.2048 17.8824 13.2098 17.8824 13.2156 17.8824C14.6533 17.8824 16.0048 17.3252 17.023 16.3121C18.0447 15.2947 18.6099 13.9389 18.6136 12.4939C18.6172 11.0678 18.0585 9.72067 17.0411 8.69891C16.0229 7.6786 14.6758 7.11482 13.249 7.11192ZM13.2265 15.7867C12.3388 15.7867 11.5054 15.4411 10.8793 14.8135C10.259 14.1918 9.91845 13.3679 9.92062 12.4939C9.92497 10.6823 11.4105 9.20906 13.2323 9.20906H13.233C15.0374 9.20906 16.5085 10.6866 16.5121 12.5019C16.5135 13.3708 16.1715 14.1932 15.549 14.8164C14.9244 15.4425 14.0997 15.7867 13.2265 15.7867Z" fill="#9FADC8"/>
<path d="M26.2297 10.246C26.0608 9.35472 25.5463 8.83659 24.7014 8.7076C23.7412 8.5605 22.9057 7.99165 22.4093 7.14815C21.9165 6.30972 21.831 5.29956 22.1745 4.37707C22.4666 3.59227 22.2593 2.85675 21.5905 2.30746C20.5056 1.41541 19.3165 0.715396 18.0556 0.22553C17.0019 -0.183175 16.3932 -0.0382442 15.6418 0.80163C14.9881 1.53208 14.1736 1.9031 13.2214 1.9031C13.2113 1.9031 13.2011 1.9031 13.191 1.9031C12.1982 1.89513 11.3627 1.49223 10.7076 0.705251C10.3156 0.23495 9.83584 0.0110324 9.19669 0.000887198C9.05249 -0.007084 8.84958 0.0385692 8.57929 0.14147C7.3423 0.611771 6.20025 1.24729 5.18573 2.02847C4.39659 2.63645 4.18426 3.35314 4.51833 4.28432C4.85819 5.23216 4.76181 6.2503 4.25455 7.07786C3.74512 7.90831 2.87771 8.45687 1.87407 8.58369C0.982742 8.69673 0.379829 9.26341 0.219681 10.1388C-0.0498905 11.6142 -0.0716301 13.086 0.155911 14.5121C0.286349 15.3288 0.863898 15.9172 1.66392 16.0476L1.74653 16.0607C1.9516 16.094 2.14581 16.1252 2.33277 16.1795C3.22917 16.4404 3.94078 17.0397 4.33644 17.8665C4.72993 18.6897 4.74949 19.6557 4.39006 20.518C4.0118 21.4246 4.2031 22.1681 4.97558 22.7898C6.0459 23.6529 7.25027 24.3449 8.55465 24.8471C8.81987 24.9493 9.07785 25 9.32423 25C9.88729 25 10.3902 24.7355 10.7822 24.2203C11.4265 23.3739 12.362 22.8811 13.349 22.8673C13.3627 22.8673 13.3765 22.8673 13.3895 22.8673C14.3678 22.8673 15.3063 23.3384 15.97 24.163C16.5287 24.858 17.3208 25.063 18.1433 24.7261C19.3549 24.2297 20.4854 23.5565 21.5049 22.726C22.205 22.155 22.4071 21.4079 22.0883 20.5637C21.7296 19.6129 21.8049 18.5883 22.2948 17.7535C22.7869 16.915 23.6492 16.3484 24.6615 16.1969C25.4688 16.0766 26.0616 15.5136 26.2101 14.7273C26.4971 13.1997 26.5036 11.6917 26.2297 10.246ZM20.0498 21.0876C20.0846 21.1876 20.081 21.1905 20.0122 21.2441C19.2092 21.8688 18.4128 22.3492 17.5759 22.7137C17.5418 22.7282 17.5085 22.7434 17.4737 22.7594C17.4599 22.7391 17.4462 22.7195 17.4317 22.7021C16.5411 21.6622 15.4367 21.0485 14.149 20.8774C12.2091 20.6209 10.5699 21.2521 9.27713 22.755C9.16988 22.8789 9.15104 22.8847 9.02133 22.8289C8.03073 22.405 7.17346 21.9065 6.40025 21.3057C6.38286 21.2919 6.34808 21.2651 6.33576 21.2506C6.33648 21.2441 6.33938 21.2311 6.34808 21.2093C6.93867 19.6948 6.81331 18.0274 6.00459 16.636C5.18646 15.2295 3.80165 14.2874 2.20523 14.0527C2.18494 14.0498 2.17407 14.0461 2.16828 14.044C2.1661 14.0367 2.16175 14.0193 2.15885 13.9853C2.05668 12.8171 2.08277 11.7714 2.24002 10.7881C2.26103 10.6569 2.2777 10.6468 2.39799 10.6279C3.35816 10.4758 4.23426 10.0634 5.0024 9.40255C6.60243 8.02426 7.22636 5.76044 6.55461 3.77054C6.51692 3.65967 6.52055 3.6488 6.61403 3.58068C7.39883 3.0053 8.24232 2.53428 9.12061 2.18065C9.16626 2.16253 9.1822 2.16325 9.1822 2.16325C9.18365 2.16398 9.19887 2.16978 9.23655 2.21253C10.2837 3.3698 11.6982 4.00677 13.2185 4.00677C13.2185 4.00677 13.2192 4.00677 13.22 4.00677C14.7403 4.00677 16.1534 3.36908 17.2005 2.21181C17.2382 2.16978 17.2534 2.16398 17.2527 2.16398C17.2534 2.16398 17.2686 2.16253 17.3164 2.18137C18.3078 2.57776 19.2433 3.12052 20.0955 3.79445C20.131 3.82271 20.139 3.83431 20.139 3.83286C20.139 3.83503 20.1397 3.85025 20.1274 3.88866C19.6563 5.38072 19.8303 6.92785 20.6158 8.24455C21.3912 9.54385 22.6782 10.4497 24.1463 10.7308C24.1673 10.7352 24.1775 10.7395 24.1796 10.7388C24.1818 10.7432 24.1876 10.7577 24.1941 10.7924C24.3724 11.8359 24.3818 12.9215 24.2224 14.1114C24.2202 14.128 24.2173 14.1367 24.2173 14.1382C24.2014 14.1469 24.1499 14.1563 24.1325 14.1592C21.9941 14.5519 20.323 16.1759 19.8759 18.2962C19.6737 19.247 19.7332 20.1861 20.0498 21.0876Z" fill="#9FADC8"/>
</g>
<defs>
<filter id="filter0_i_331_62" x="0" y="0" width="26.4304" height="26" filterUnits="userSpaceOnUse" color-interpolation-filters="sRGB">
<feFlood flood-opacity="0" result="BackgroundImageFix"/>
<feBlend mode="normal" in="SourceGraphic" in2="BackgroundImageFix" result="shape"/>
<feColorMatrix in="SourceAlpha" type="matrix" values="0 0 0 0 0 0 0 0 0 0 0 0 0 0 0 0 0 0 127 0" result="hardAlpha"/>
<feOffset dy="1"/>
<feGaussianBlur stdDeviation="0.5"/>
<feComposite in2="hardAlpha" operator="arithmetic" k2="-1" k3="1"/>
<feColorMatrix type="matrix" values="0 0 0 0 0 0 0 0 0 0 0 0 0 0 0 0 0 0 0.3 0"/>
<feBlend mode="normal" in2="shape" result="effect1_innerShadow_331_62"/>
</filter>
</defs>
</svg>
