<svg width="30" height="30" viewBox="0 0 30 30" fill="none" xmlns="http://www.w3.org/2000/svg">
<path d="M0.00187807 7.47274C0.00187807 6.1434 -0.00246402 4.81516 0.00296359 3.48583C0.0116478 1.41351 1.39786 0.0145557 3.46578 0.00694092C6.15027 -0.00176174 8.83477 -0.00284957 11.5193 0.00694092C13.6024 0.0145557 14.9929 1.42765 14.9951 3.52064C14.9973 6.17821 14.9973 8.83579 14.9951 11.4934C14.9929 13.5733 13.5752 14.9984 11.5052 15.0005C8.83477 15.0027 6.1633 15.0038 3.49292 15.0005C1.4326 14.9984 0.0159898 13.5951 0.00404911 11.5401C-0.00354954 10.1847 0.00187807 8.82926 0.00187807 7.47274ZM26.7958 29.9854C28.5446 29.9289 29.9384 28.5538 29.9731 26.8122C30.009 25.0499 30.009 23.2855 29.9731 21.5232C29.9373 19.7718 28.5044 18.3674 26.7535 18.3434C25.0177 18.3206 23.282 18.3195 21.5473 18.3445C19.7964 18.3706 18.357 19.8294 18.3363 21.5863C18.3168 23.3083 18.3157 25.0314 18.3363 26.7535C18.357 28.5005 19.7595 29.9267 21.5082 29.9843C22.3886 30.0137 23.2711 29.9898 24.1515 29.9898C25.0329 29.9909 25.9155 30.0148 26.7958 29.9854ZM29.984 6.66121C29.946 4.75642 28.5478 3.3629 26.6482 3.3455C24.9938 3.33027 23.3395 3.33136 21.6852 3.3455C19.7573 3.36182 18.3396 4.79775 18.3309 6.73083C18.3244 8.34518 18.3244 9.95843 18.3309 11.5728C18.3385 13.5679 19.7757 14.9962 21.7753 15.0016C23.3612 15.006 24.9483 15.006 26.5353 15.0016C28.5468 14.9962 29.9644 13.5929 29.9862 11.5847C29.9948 10.7852 29.9872 9.98454 29.9872 9.1839C29.9872 8.343 30.0014 7.50211 29.984 6.66121ZM11.8438 29.9833C13.547 29.9245 14.9549 28.5136 14.9842 26.8057C15.0146 25.0434 15.0168 23.2789 14.9832 21.5167C14.9495 19.8011 13.5036 18.3717 11.7885 18.3456C10.0397 18.3184 8.28984 18.3184 6.54106 18.3456C4.83245 18.3717 3.39413 19.7685 3.35397 21.471C3.31272 23.2735 3.31163 25.0793 3.35505 26.8818C3.39522 28.5517 4.79988 29.9245 6.47484 29.9833C7.36823 30.0148 8.26487 29.9887 9.15934 29.9887C10.0538 29.9887 10.9494 30.0148 11.8438 29.9833Z" fill="#68759F"/>
</svg>
