<svg width="165" height="164" viewBox="0 0 165 164" fill="none" xmlns="http://www.w3.org/2000/svg">
<circle cx="82" cy="82" r="80.5" stroke="#E9EEFF" stroke-width="3" stroke-dasharray="10 10"/>
<circle cx="138" cy="136" r="25.5" fill="#FAFBFF" stroke="#E9EEFF" stroke-width="3" stroke-dasharray="10 10"/>
<path d="M63 93.6576C63 85.8602 63 78.0627 63 70.2653C63.1188 70.2205 63.0709 70.1121 63.0854 70.0308C63.793 66.1024 66.0562 63.5391 69.8648 62.3303C70.3285 62.1834 70.8277 62.1865 71.2809 62C79.0419 62 86.8018 62 94.5628 62C94.5805 62.0604 94.6274 62.0656 94.6816 62.0719C98.6527 62.495 101.916 65.4168 102.778 69.3056C102.855 69.6515 102.845 70.0152 103 70.3434C103 78.1148 103 85.8862 103 93.6576C102.88 93.7014 102.927 93.8097 102.914 93.891C102.197 98.4936 98.3943 101.891 93.8167 101.911C86.6049 101.945 79.393 101.943 72.1812 101.911C67.8819 101.893 64.1452 98.8041 63.2199 94.6173C63.1511 94.2974 63.173 93.9546 63 93.6576ZM65.6592 81.9213C65.6592 85.4684 65.6509 89.0164 65.6613 92.5635C65.6728 96.3043 68.6384 99.2522 72.3917 99.2553C79.4618 99.2605 86.5309 99.2574 93.601 99.2564C94.1366 99.2564 94.667 99.2001 95.1869 99.073C98.2453 98.3279 100.317 95.6958 100.329 92.5187C100.34 89.699 100.331 86.8793 100.331 84.0596C100.331 79.8362 100.343 75.6129 100.328 71.3896C100.315 67.5904 97.3564 64.6676 93.5499 64.6655C86.558 64.6603 79.5671 64.6582 72.5751 64.6519C72.0916 64.6519 71.6112 64.6717 71.1382 64.7666C67.8579 65.422 65.6655 68.0906 65.6613 71.4344C65.6561 74.9304 65.6592 78.4264 65.6592 81.9213ZM69.2292 92.5812C69.8211 92.7625 70.2931 92.5603 70.6953 92.1175C72.4542 90.1835 74.2163 88.2526 75.9773 86.3207C76.1347 86.1478 76.2899 85.9717 76.4525 85.8039C77.7039 84.5139 79.5962 84.4993 80.8133 85.8133C82.74 87.8931 84.6365 90.0011 86.5507 92.0925C87.1123 92.7062 87.8709 92.7562 88.4555 92.2415C89.0359 91.7288 89.0755 90.9087 88.5201 90.2981C86.5872 88.1714 84.6657 86.0331 82.7004 83.9356C80.4809 81.567 76.738 81.5816 74.532 83.9553C72.5584 86.08 70.6203 88.2381 68.6655 90.3794C68.4279 90.6399 68.2893 90.9369 68.2945 91.2443C68.2862 91.9039 68.6446 92.403 69.2292 92.5812ZM93.6583 75.3222C93.6302 77.5751 91.8285 79.3361 89.583 79.3048C87.402 79.2746 85.6337 77.4427 85.6618 75.242C85.6889 73.0735 87.5041 71.3052 89.684 71.3229C91.8942 71.3396 93.6843 73.1423 93.6583 75.3222ZM90.9907 75.3191C90.997 74.5772 90.4103 73.9853 89.6694 73.9853C88.9265 73.9853 88.3273 74.573 88.3232 75.3066C88.319 76.0297 88.9286 76.6445 89.6549 76.6498C90.3874 76.6539 90.9845 76.06 90.9907 75.3191ZM88.9244 84.4316C88.2304 84.517 87.7844 85.0703 87.8251 85.7893C87.8636 86.4708 88.4336 87.0595 89.0922 87.0158C90.228 86.9397 91.0939 87.3888 91.8306 88.2193C92.9612 89.4926 94.1251 90.7358 95.2703 91.9956C95.6788 92.4457 96.1935 92.6552 96.7687 92.5124C97.7576 92.2675 98.0681 91.0953 97.3606 90.3096C96.0914 88.8987 94.8191 87.4899 93.5155 86.1113C92.4266 84.9588 91.0439 84.4316 89.4089 84.3878C89.287 84.3993 89.1047 84.4097 88.9244 84.4316Z" fill="#E9EEFF"/>
<path d="M146.789 134.788H139.212V127.212C139.212 126.544 138.668 126 138 126C137.332 126 136.788 126.544 136.788 127.212V134.788H129.212C128.544 134.788 128 135.332 128 136C128 136.668 128.544 137.212 129.212 137.212H136.788V144.788C136.788 145.456 137.332 146 138 146C138.668 146 139.212 145.456 139.212 144.788V137.212H146.788C147.456 137.212 148 136.668 148 136C148 135.332 147.457 134.788 146.789 134.788Z" fill="#E9EEFF"/>
</svg>
