<svg width="22" height="22" viewBox="0 0 22 22" fill="none" xmlns="http://www.w3.org/2000/svg">
<path d="M11 21C16.5228 21 21 16.5228 21 11C21 5.47715 16.5228 1 11 1C5.47715 1 1 5.47715 1 11C1 16.5228 5.47715 21 11 21Z" stroke="#9095B2" stroke-width="2" stroke-linecap="round" stroke-linejoin="round"/>
<path d="M12.2998 14.0889H10.0586C10.0645 13.5615 10.1055 13.1074 10.1816 12.7266C10.2637 12.3398 10.4014 11.9912 10.5947 11.6807C10.7939 11.3701 11.0576 11.0625 11.3857 10.7578C11.6611 10.5117 11.9014 10.2773 12.1064 10.0547C12.3115 9.83203 12.4727 9.60352 12.5898 9.36914C12.707 9.12891 12.7656 8.8623 12.7656 8.56934C12.7656 8.22949 12.7129 7.94824 12.6074 7.72559C12.5078 7.49707 12.3555 7.32422 12.1504 7.20703C11.9512 7.08984 11.6992 7.03125 11.3945 7.03125C11.1426 7.03125 10.9082 7.08691 10.6914 7.19824C10.4746 7.30371 10.2959 7.46777 10.1553 7.69043C10.0205 7.91309 9.9502 8.20605 9.94434 8.56934H7.39551C7.41309 7.7666 7.59766 7.10449 7.94922 6.58301C8.30664 6.05566 8.78418 5.66602 9.38184 5.41406C9.97949 5.15625 10.6504 5.02734 11.3945 5.02734C12.2148 5.02734 12.918 5.16211 13.5039 5.43164C14.0898 5.69531 14.5381 6.08496 14.8486 6.60059C15.1592 7.11035 15.3145 7.73145 15.3145 8.46387C15.3145 8.97363 15.2148 9.42773 15.0156 9.82617C14.8164 10.2188 14.5557 10.585 14.2334 10.9248C13.9111 11.2646 13.5566 11.6162 13.1699 11.9795C12.8359 12.2783 12.6074 12.5918 12.4844 12.9199C12.3672 13.248 12.3057 13.6377 12.2998 14.0889ZM9.79492 16.8047C9.79492 16.4297 9.92383 16.1191 10.1816 15.873C10.4395 15.6211 10.7852 15.4951 11.2188 15.4951C11.6465 15.4951 11.9893 15.6211 12.2471 15.873C12.5107 16.1191 12.6426 16.4297 12.6426 16.8047C12.6426 17.168 12.5107 17.4756 12.2471 17.7275C11.9893 17.9795 11.6465 18.1055 11.2188 18.1055C10.7852 18.1055 10.4395 17.9795 10.1816 17.7275C9.92383 17.4756 9.79492 17.168 9.79492 16.8047Z" fill="#9095B2"/>
</svg>
