<svg width="24" height="27" viewBox="0 0 24 27" fill="none" xmlns="http://www.w3.org/2000/svg">
<path d="M6.00012 2.49994C5.81151 2.50001 5.62985 2.57114 5.49133 2.69916L2.24133 5.69916C2.16531 5.76936 2.10463 5.85453 2.06312 5.94932C2.02161 6.04411 2.00016 6.14646 2.00012 6.24994V8.24994C2.00012 9.2186 2.38242 10.0977 3.00012 10.7626V21.2499C3.00014 21.4489 3.07917 21.6396 3.21981 21.7803C3.36046 21.9209 3.55122 21.9999 3.75012 21.9999H20.2501C20.449 21.9999 20.6398 21.9209 20.7804 21.7803C20.9211 21.6396 21.0001 21.4489 21.0001 21.2499V10.7636C21.6184 10.0986 22.0011 9.2191 22.0011 8.24994V6.24994H21.9991C21.9992 6.14653 21.9779 6.04422 21.9366 5.94944C21.8953 5.85466 21.8348 5.76945 21.7589 5.69916L18.5089 2.69916C18.3704 2.57114 18.1887 2.50001 18.0001 2.49994H6.00012ZM6.29309 3.99994H17.7072L19.3322 5.49994H4.66809L6.29309 3.99994ZM3.50012 6.99994H8.16614V8.24994C8.16614 8.25191 8.16613 8.25383 8.16614 8.2558C8.16281 9.49346 7.14067 10.4999 5.83411 10.4999C4.52541 10.4999 3.50012 9.49037 3.50012 8.24994V6.99994ZM9.66711 6.99994H14.3341V8.24994C14.3341 9.49037 13.3088 10.4999 12.0001 10.4999C10.6936 10.4999 9.67044 9.49346 9.66711 8.2558C9.66712 8.25383 9.66711 8.25191 9.66711 8.24994V6.99994ZM15.8341 6.99994H20.5011V8.24994C20.5011 9.49037 19.4758 10.4999 18.1671 10.4999C16.8584 10.4999 15.8341 9.49037 15.8341 8.24994V6.99994ZM15.0841 10.3535C15.7809 11.3243 16.8771 11.9999 18.1671 11.9999C18.6353 11.9999 19.0832 11.9125 19.5001 11.7597V20.4999H11.5001V14.2499C11.5001 14.051 11.4211 13.8603 11.2804 13.7196C11.1398 13.579 10.949 13.5 10.7501 13.4999H6.75012C6.55122 13.5 6.36046 13.579 6.21981 13.7196C6.07917 13.8603 6.00014 14.051 6.00012 14.2499V20.4999H4.50012V11.7597C4.91726 11.9127 5.36565 11.9999 5.83411 11.9999C7.09129 11.9999 8.21477 11.395 8.91614 10.4658C9.61776 11.3952 10.7427 11.9999 12.0001 11.9999C13.2904 11.9999 14.3873 11.3245 15.0841 10.3535ZM13.7501 13.4999C13.5512 13.5 13.3605 13.579 13.2198 13.7196C13.0792 13.8603 13.0001 14.051 13.0001 14.2499V17.7499C13.0001 17.9488 13.0792 18.1396 13.2198 18.2803C13.3605 18.4209 13.5512 18.4999 13.7501 18.4999H17.2501C17.449 18.4999 17.6398 18.4209 17.7804 18.2803C17.9211 18.1396 18.0001 17.9488 18.0001 17.7499V14.2499C18.0001 14.051 17.9211 13.8603 17.7804 13.7196C17.6398 13.579 17.449 13.5 17.2501 13.4999H13.7501ZM7.50012 14.9999H10.0001V20.4999H7.50012V14.9999ZM14.5001 14.9999H16.5001V16.9999H14.5001V14.9999Z" fill="#9095B2"/>
</svg>
