<svg width="21" height="22" viewBox="0 0 21 22" fill="none" xmlns="http://www.w3.org/2000/svg">
<circle cx="10.5" cy="11" r="9.69231" stroke="#9095B2" stroke-width="1.61538"/>
<path d="M5.65194 9.75144C5.33651 9.43602 4.82511 9.43602 4.50969 9.75144C4.19426 10.0669 4.19426 10.5783 4.50969 10.8937L5.65194 9.75144ZM9.14533 14.3871L8.5742 14.9582L9.16097 15.545L9.73167 14.9426L9.14533 14.3871ZM15.8284 8.50709C16.1352 8.18326 16.1214 7.67204 15.7976 7.36525C15.4738 7.05847 14.9625 7.07228 14.6558 7.39611L15.8284 8.50709ZM4.50969 10.8937L8.5742 14.9582L9.71645 13.816L5.65194 9.75144L4.50969 10.8937ZM9.73167 14.9426L15.8284 8.50709L14.6558 7.39611L8.55898 13.8316L9.73167 14.9426Z" fill="#9095B2"/>
</svg>
