<svg width="23" height="16" viewBox="0 0 23 16" fill="none" xmlns="http://www.w3.org/2000/svg">
<circle cx="18.1651" cy="2.63693" r="1.88693" stroke="#9095B2" stroke-width="1.5"/>
<mask id="path-2-inside-1_67_128" fill="white">
<path fill-rule="evenodd" clip-rule="evenodd" d="M22.9802 10.5476C22.9933 10.4029 22.9999 10.2563 22.9999 10.1081C22.9999 7.43817 20.8355 5.27374 18.1656 5.27374C15.4956 5.27374 13.3312 7.43817 13.3312 10.1081C13.3312 10.2563 13.3378 10.4029 13.3509 10.5476H22.9802Z"/>
</mask>
<path d="M22.9802 10.5476V12.0476H24.3511L24.4742 10.6823L22.9802 10.5476ZM13.3509 10.5476L11.8569 10.6823L11.98 12.0476H13.3509V10.5476ZM21.4999 10.1081C21.4999 10.2113 21.4953 10.3129 21.4863 10.413L24.4742 10.6823C24.4912 10.4928 24.4999 10.3013 24.4999 10.1081H21.4999ZM18.1656 6.77374C20.0071 6.77374 21.4999 8.26659 21.4999 10.1081H24.4999C24.4999 6.60974 21.6639 3.77374 18.1656 3.77374V6.77374ZM14.8312 10.1081C14.8312 8.26659 16.324 6.77374 18.1656 6.77374V3.77374C14.6672 3.77374 11.8312 6.60974 11.8312 10.1081H14.8312ZM14.8448 10.413C14.8358 10.3129 14.8312 10.2113 14.8312 10.1081H11.8312C11.8312 10.3013 11.8399 10.4928 11.8569 10.6823L14.8448 10.413ZM13.3509 12.0476H22.9802V9.04763H13.3509V12.0476Z" fill="#9095B2" mask="url(#path-2-inside-1_67_128)"/>
<circle cx="4.83383" cy="2.63693" r="1.88693" stroke="#9095B2" stroke-width="1.5"/>
<mask id="path-5-inside-2_67_128" fill="white">
<path fill-rule="evenodd" clip-rule="evenodd" d="M9.64905 10.5476C9.66209 10.4029 9.66876 10.2563 9.66876 10.1081C9.66876 7.43817 7.50433 5.27374 4.83438 5.27374C2.16442 5.27374 0 7.43817 0 10.1081C0 10.2563 0.00666436 10.4029 0.0197096 10.5476H9.64905Z"/>
</mask>
<path d="M9.64905 10.5476V12.0476H11.0199L11.143 10.6823L9.64905 10.5476ZM0.0197096 10.5476L-1.47424 10.6823L-1.35119 12.0476H0.0197096V10.5476ZM8.16876 10.1081C8.16876 10.2113 8.16412 10.3129 8.1551 10.413L11.143 10.6823C11.1601 10.4928 11.1688 10.3013 11.1688 10.1081H8.16876ZM4.83438 6.77374C6.6759 6.77374 8.16876 8.26659 8.16876 10.1081H11.1688C11.1688 6.60974 8.33276 3.77374 4.83438 3.77374V6.77374ZM1.5 10.1081C1.5 8.26659 2.99285 6.77374 4.83438 6.77374V3.77374C1.336 3.77374 -1.5 6.60974 -1.5 10.1081H1.5ZM1.51366 10.413C1.50464 10.3129 1.5 10.2113 1.5 10.1081H-1.5C-1.5 10.3013 -1.49131 10.4928 -1.47424 10.6823L1.51366 10.413ZM0.0197096 12.0476H9.64905V9.04763H0.0197096V12.0476Z" fill="#9095B2" mask="url(#path-5-inside-2_67_128)"/>
<circle cx="11.7196" cy="4.68806" r="2.76591" stroke="#9095B2" stroke-width="1.5"/>
<mask id="path-8-inside-3_67_128" fill="white">
<path fill-rule="evenodd" clip-rule="evenodd" d="M18.139 15.2355C18.1564 15.0426 18.1653 14.8472 18.1653 14.6497C18.1653 11.0898 15.2794 8.20387 11.7195 8.20387C8.15952 8.20387 5.27362 11.0898 5.27362 14.6497C5.27362 14.8472 5.2825 15.0426 5.29988 15.2355H18.139Z"/>
</mask>
<path d="M18.139 15.2355V16.7355H19.51L19.633 15.3701L18.139 15.2355ZM5.29988 15.2355L3.80593 15.3701L3.92894 16.7355H5.29988V15.2355ZM16.6653 14.6497C16.6653 14.8022 16.6584 14.9527 16.6451 15.1009L19.633 15.3701C19.6544 15.1325 19.6653 14.8922 19.6653 14.6497H16.6653ZM11.7195 9.70387C14.451 9.70387 16.6653 11.9182 16.6653 14.6497H19.6653C19.6653 10.2613 16.1078 6.70387 11.7195 6.70387V9.70387ZM6.77362 14.6497C6.77362 11.9182 8.98795 9.70387 11.7195 9.70387V6.70387C7.33109 6.70387 3.77362 10.2613 3.77362 14.6497H6.77362ZM6.79383 15.1009C6.78048 14.9527 6.77362 14.8022 6.77362 14.6497H3.77362C3.77362 14.8922 3.78452 15.1325 3.80593 15.3701L6.79383 15.1009ZM5.29988 16.7355H18.139V13.7355H5.29988V16.7355Z" fill="#9095B2" mask="url(#path-8-inside-3_67_128)"/>
</svg>
