<svg width="20" height="21" viewBox="0 0 20 21" fill="none" xmlns="http://www.w3.org/2000/svg">
<path d="M2.5 5.12439H4.16667H17.5" stroke="#677180" stroke-width="2" stroke-linecap="round" stroke-linejoin="round"/>
<path d="M6.6665 5.12438V3.41626C6.6665 2.96323 6.8421 2.52876 7.15466 2.20843C7.46722 1.88809 7.89114 1.70813 8.33317 1.70813H11.6665C12.1085 1.70813 12.5325 1.88809 12.845 2.20843C13.1576 2.52876 13.3332 2.96323 13.3332 3.41626V5.12438M15.8332 5.12438V17.0813C15.8332 17.5343 15.6576 17.9688 15.345 18.2891C15.0325 18.6094 14.6085 18.7894 14.1665 18.7894H5.83317C5.39114 18.7894 4.96722 18.6094 4.65466 18.2891C4.3421 17.9688 4.1665 17.5343 4.1665 17.0813V5.12438H15.8332Z" stroke="#677180" stroke-width="2" stroke-linecap="round" stroke-linejoin="round"/>
<path d="M8.3335 9.39468V14.5191" stroke="#677180" stroke-width="2" stroke-linecap="round" stroke-linejoin="round"/>
<path d="M11.6665 9.39468V14.5191" stroke="#677180" stroke-width="2" stroke-linecap="round" stroke-linejoin="round"/>
</svg>
