<svg width="28" height="28" viewBox="0 0 28 28" fill="none" xmlns="http://www.w3.org/2000/svg">
<path d="M13.125 1.75C6.85645 1.75 1.75 6.85645 1.75 13.125C1.75 19.3936 6.85645 24.5 13.125 24.5C19.3936 24.5 24.5 19.3936 24.5 13.125C24.5 6.85645 19.3936 1.75 13.125 1.75ZM13.125 3.5C18.4502 3.5 22.75 7.7998 22.75 13.125C22.75 15.4697 21.916 17.6094 20.5352 19.2773C19.7832 17.1445 18.1562 15.4287 16.0781 14.5811C16.9463 13.7812 17.5 12.6396 17.5 11.375C17.5 8.96875 15.5312 7 13.125 7C10.7188 7 8.75 8.96875 8.75 11.375C8.75 12.6396 9.30371 13.7812 10.1719 14.5811C8.09375 15.4287 6.47363 17.1445 5.72168 19.2773C4.33399 17.6094 3.5 15.4697 3.5 13.125C3.5 7.7998 7.7998 3.5 13.125 3.5ZM13.125 8.75C14.5879 8.75 15.75 9.91211 15.75 11.375C15.75 12.8379 14.5879 14 13.125 14C11.6621 14 10.5 12.8379 10.5 11.375C10.5 9.91211 11.6621 8.75 13.125 8.75ZM13.125 15.75C16.0986 15.75 18.5391 17.8623 19.1064 20.665C17.459 21.9707 15.3877 22.75 13.125 22.75C10.8623 22.75 8.79102 21.9707 7.15039 20.665C7.71094 17.8623 10.1514 15.75 13.125 15.75Z" fill="#9095B2"/>
</svg>
