<svg width="16" height="16" viewBox="0 0 16 16" fill="none" xmlns="http://www.w3.org/2000/svg">
<circle cx="8" cy="8" r="8" fill="#7AB4EA"/>
<path fill-rule="evenodd" clip-rule="evenodd" d="M10.1498 7.22425C10.3884 6.98567 10.6269 6.7449 10.8666 6.50741C10.9385 6.43551 11.0006 6.3538 11.0475 6.26338C11.2719 5.82763 11.0998 5.29167 10.6641 5.06729C10.3264 4.89301 9.91569 4.95295 9.64224 5.21768C9.13675 5.71446 8.6378 6.21559 8.13993 6.71999C8.07021 6.79189 8.03644 6.78645 7.96999 6.71782C7.48852 6.22982 7.00161 5.74726 6.51905 5.26252C6.42646 5.16557 6.31426 5.08823 6.19116 5.03486C5.738 4.8497 5.21945 5.0676 5.03424 5.52078C4.90023 5.84869 4.97428 6.22342 5.22046 6.47614C5.715 6.97722 6.21281 7.47503 6.71389 7.96739C6.79014 8.04146 6.78469 8.07741 6.7117 8.14822C6.21819 8.63519 5.72904 9.1287 5.23771 9.62003C4.88583 9.9632 4.88035 10.5264 5.22457 10.8772C5.31171 10.9665 5.41738 11.0373 5.53394 11.0819C5.8542 11.2235 6.22785 11.1483 6.4708 10.8967C6.97955 10.4032 7.47633 9.89987 7.9742 9.39547C8.04283 9.32466 8.07769 9.32901 8.14523 9.39655C8.63323 9.89109 9.12668 10.3802 9.61687 10.8725C9.79987 11.0686 10.0635 11.1688 10.3304 11.1416C10.8184 11.1023 11.1823 10.6731 11.1409 10.1851C11.1235 9.98028 11.0364 9.78855 10.8948 9.64041C10.4035 9.13606 9.9035 8.64043 9.40133 8.14698C9.32508 8.07291 9.33053 8.03696 9.40352 7.96615C9.65517 7.7232 9.90138 7.47264 10.1498 7.22425Z" fill="white"/>
</svg>
